<?xml version="1.0" encoding="utf-8"?>
<!-- Generator: Adobe Illustrator 23.0.1, SVG Export Plug-In . SVG Version: 6.00 Build 0)  -->
<svg version="1.1" id="Warstwa_1" xmlns="http://www.w3.org/2000/svg" xmlns:xlink="http://www.w3.org/1999/xlink" x="0px" y="0px"
	 viewBox="0 0 225 225" style="enable-background:new 0 0 225 225;" xml:space="preserve">
<style type="text/css">
	.st0{display:none;fill-rule:evenodd;clip-rule:evenodd;fill:#FFFFFF;}
	.st1{fill-rule:evenodd;clip-rule:evenodd;fill:#00A2E1;}
	.st2{fill-rule:evenodd;clip-rule:evenodd;fill:#FFFFFF;}
	.st3{fill:none;stroke:#FFFFFF;stroke-width:11.5541;stroke-miterlimit:2.6131;}
</style>
<g id="g10" transform="matrix(1.3333333,0,0,-1.3333333,0,257.33333)">
	<g id="g12" transform="scale(0.1)">
		<path id="path14" class="st0" d="M-150,2080h1987.5V85H-150V2080"/>
		<path id="path16" class="st1" d="M843.8,1911.7c455,0,826.1-372.5,826.1-829.2s-371.1-829.2-826.1-829.2S17.7,625.8,17.7,1082.5
			S388.7,1911.7,843.8,1911.7L843.8,1911.7"/>
		<path id="path18" class="st2" d="M532.9,978.5v219.9h142.5v-38.2H575.3V1110h87.4v-38.2h-87.4v-93.5h-42.4V978.5z M925.1,1125.5
			c-1.8,7.9-3.8,14-6,18.1c-4,7-9.6,12.5-16.9,16.2c-7.2,3.8-15.5,5.7-24.7,5.7c-14.4,0-26.1-4.9-35-14.7
			c-6.5-7.3-11.5-16.5-15.2-27.5c-3.6-11-5.5-22.6-5.5-34.8c0-12.2,1.9-23.9,5.5-35.1c3.6-11.3,8.5-20.2,14.6-26.9
			c9-9.8,20.8-14.7,35.9-14.7c16.2,0,28.7,5.7,37.2,17.2c4.1,5.4,7.7,13.8,10.6,25h41.6c-1.6-14-4.4-25.1-8.4-33.6
			c-4.7-10-11-18.6-19-25.8c-7.9-7.1-17.3-12.6-28-16.2c-10.7-3.7-22.4-5.6-34.7-5.6c-14.5,0-27.8,2.7-40,8.2
			c-12.2,5.5-22.6,13.4-31.3,23.5c-8.8,10.2-15.5,22.5-20.1,36.8c-4.6,14.3-7,30.1-7,47.3c0,17.4,2.4,33.2,7,47.6
			s11.4,26.6,20.3,36.8c8.8,10.1,19.4,18,31.6,23.5c12.3,5.5,25.9,8.2,40.9,8.2c8.8,0,17.2-0.9,25.2-2.7s15.4-4.5,22.2-8.1
			c6.8-3.5,12.7-7.9,17.6-12.7c6.5-6.3,11.5-13.6,15.2-22c3.8-8.1,6.6-19.3,8.4-33.6L925.1,1125.5L925.1,1125.5z M1087.9,978.5
			v219.9h42.5V978.5H1087.9L1087.9,978.5"/>
		<path id="path20" class="st3" d="M287.7,1245.8h1099.1c32.8-105.6,37.6-209.7-1.5-311.3H287.7
			C247.7,1038.4,252.5,1142.3,287.7,1245.8z M712.7,1246.5c14.3,240.3,59,417,111.9,417c52.7,0,97.3-175.8,111.9-415.7 M937.6,934.5
			c-13.3-248.9-59-433.5-113-433.5c-54,0-99.4,185.1-112.8,434.4 M1196.2,934.5C1152.8,685.4,1002.4,501,824.6,501
			C646.5,501,496.3,685.9,453,935.3 M358.9,754.7h950.3 M372.5,1428.4h921.8 M456.5,1247.9c47.4,239.7,194.5,415.5,368.1,415.5
			c173.8,0,321.5-176.8,368.5-417.7 M835.5,1661.8c318,0,577.2-260.3,577.2-579.5s-259.3-579.5-577.2-579.5
			c-317.9,0-577.2,260.3-577.2,579.5S517.6,1661.8,835.5,1661.8z M843.8,1849.1c420.6,0,763.6-344.3,763.6-766.6
			s-343-766.6-763.6-766.6S80.1,660.2,80.1,1082.5C80.1,1504.8,423.2,1849.1,843.8,1849.1z"/>
		<path id="path22" class="st2" d="M771.7,446.1h142.7v-23.9H771.7V446.1L771.7,446.1"/>
		<path id="path24" class="st2" d="M771.7,401.8h142.7v-23.9H771.7V401.8L771.7,401.8"/>
		<path id="path26" class="st2" d="M597.7,515.8l-49.2-92.8L484.7,457l8.6,16.1l44.9-23.9l11.2,21.1l-39.2,20.9l8.6,16.1l39.2-20.9
			l20.9,39.4L597.7,515.8L597.7,515.8z M459.1,600.7l62.7-45.7l-61.6-85.1l-60.6,44.2l10.6,14.7l43.2-31.5l13.2,18.3l-39.4,28.8
			l10.5,14.5l39.4-28.8l16.1,22.3L448,585.3L459.1,600.7L459.1,600.7z M373.3,535.9L342,566.2c-7,6.8-11.7,14.1-13.7,21.7
			c-2.2,7.7-1.8,15.4,1.2,23.5c2.9,8.1,8.2,16.1,16,24.2c7.8,8.1,15.8,13.8,23.8,16.9c8.1,3.1,16.2,3.6,24.1,1.7
			c7.9-2.1,15.6-6.6,23-13.8l29.6-28.7C446.1,611.6,373.3,535.9,373.3,535.9z M417.4,612.9l-12.2,11.8c-4.9,4.8-9.7,7.8-14.3,9
			c-4.6,1.2-9.5,0.7-14.4-1.7c-4.9-2.4-10.2-6.4-15.9-12.3c-15.3-15.8-16.7-29.9-4.2-42l14-13.6
			C370.5,564.1,417.4,612.9,417.4,612.9z M326.7,749.7l44.4-63.8l-85.8-60.3l-43,61.6l14.7,10.3l30.6-43.9l18.5,12.9l-27.9,40.1
			l14.6,10.3l27.9-40.1l22.4,15.7l-32.1,46.1C311.2,738.8,326.7,749.7,326.7,749.7z M287.6,820.3c-2.5-2.6-4.5-4.3-6.1-5.4
			c-1.5-1-4.1-2.5-7.7-4.3l-3-1.6c-6.9-3.5-11.2-7-12.8-10.6c-1.6-3.4-1-7.9,1.6-13.2l10.3-20.4l36.3,18.5l9.8-19.3l-93.3-47.7
			l-23.1,45.4c-3.2,6.3-4.9,12.3-5.3,17.8c-0.3,5.6,0.8,10.6,3.5,14.8c2.7,4.3,6.6,7.9,12,10.6c5.1,2.6,9.5,3.9,13.3,4
			c2.9,0.2,5.9-0.4,8.9-1.7c2.2-0.9,4-2,5.4-3.1c1.3-1.2,3.1-3.2,5.1-5.9c-1,3.1-1.5,5.5-1.8,7.3c-0.1,1.9,0.1,3.9,0.8,6
			c0.5,1.4,1.2,2.9,2.3,4.2c1.3,1.7,2.7,3.1,3.9,4.2c1.3,1.1,3.4,2.6,6,4c2.6,1.6,6.3,3.5,10.9,5.9c3.5,1.9,5.9,3.4,7,4.7
			c1.2,1.2,2,2.9,2.2,5l2.9,1.4L287.6,820.3L287.6,820.3z M253.8,756.5l-11.4,22.7c-4.8,9.6-11.4,12.3-19.6,8.2
			c-4-2.1-6.5-4.8-7.4-8.2c-0.9-3.4-0.3-7.3,1.9-11.7l12-23.6L253.8,756.5z M159.9,851.1l-7.7,23.7l89.6,69.1l7.1-22.1l-18.3-13.7
			l12.6-38.7l22.6,0.2l6.8-21.1C272.7,848.6,159.9,851.1,159.9,851.1z M175.1,867.7l49.8,1.7l-9,27.7L175.1,867.7z M238.3,976.7
			l-84.9-15l5.4-30.6l-18.4-3.2l-14.5,82.6l18.4,3.2l5.4-30.6l84.9,15C234.6,998,238.3,976.7,238.3,976.7z M230,1039.9l-104.8-1.9
			l-0.4,21.6l104.8,1.9L230,1039.9z M124.1,1138.4c0.7,8,2.6,15.1,5.7,21.3c3.1,6.2,7.2,11.4,12.4,15.5c5.2,4.1,11.3,7.1,18.4,8.9
			c7,1.8,14.8,2.4,23.2,1.7c8.4-0.7,15.8-2.6,22.4-5.6c6.6-3,12.1-6.9,16.5-11.9c4.4-5,7.6-10.7,9.6-17.2c2-6.5,2.7-13.7,2-21.3
			c-0.6-7.8-2.6-14.6-5.7-20.7c-3.1-6.1-7.3-11.2-12.5-15.2c-5.3-4.1-11.3-7-18.4-8.8c-7-1.9-14.6-2.4-22.9-1.7
			c-8,0.7-15.4,2.6-22.1,5.6c-6.6,3-12.2,6.9-16.6,11.8c-4.4,4.9-7.7,10.6-9.8,17C124.2,1124.1,123.4,1131,124.1,1138.4z
			 M176.6,1105.3c5.5-0.5,10.5-0.2,15.2,0.7c4.6,1,8.7,2.7,12.1,5c3.4,2.3,6.2,5.2,8.1,8.6c2,3.5,3.2,7.3,3.6,11.7
			c0.5,6.1-0.5,11.5-3,16.1c-2.6,4.7-6.5,8.5-11.9,11.3s-11.9,4.6-19.5,5.3c-5.6,0.5-10.5,0.2-15.1-0.7c-4.5-1-8.5-2.6-11.9-5
			c-3.4-2.3-6.1-5.2-8-8.7c-2-3.5-3.2-7.5-3.5-11.9c-0.4-4.5,0.1-8.5,1.5-12.2c1.3-3.7,3.6-7,6.6-9.9c3-2.9,6.7-5.2,11-6.9
			C166.2,1106.8,171.2,1105.7,176.6,1105.3L176.6,1105.3z M136.5,1227.6l7.4,25.8l95,16.2l0.3,1l-5.4,1.1l-78.3,22.6l4.8,16.9
			l100.7-29l-7.5-26.3l-93.4-16.6l-0.2-0.6l4.9-1.1l77-22.1l-4.8-16.9C237.3,1198.6,136.5,1227.6,136.5,1227.6z M257,1436.1
			c-3.7,1.1-6.7,1.7-9,1.7c-3.9-0.1-7.5-1.2-11-3.5c-3.4-2.3-6.3-5.5-8.7-9.5c-3.6-6.3-4.5-12.6-2.9-18.9c1.4-4.7,3.9-9,7.5-13.2
			c3.6-4.2,7.9-7.8,12.9-10.7c5.1-2.9,10.3-5,15.9-6c5.6-1.1,10.5-1.1,14.8,0c6.3,1.7,11.3,5.7,15.2,12.3c4.1,7.1,4.9,14,2.4,20.5
			c-1.1,3.1-3.7,6.7-7.6,10.7l10.5,18.3c5.4-4,9.3-8,11.8-11.7c3-4.5,4.8-9.3,5.8-14.5c0.9-5.2,0.8-10.7-0.4-16.2
			c-1.1-5.6-3.3-11.2-6.5-16.7c-3.7-6.4-8.1-11.6-13.5-15.7c-5.4-4-11.2-6.8-17.6-8.2c-6.4-1.4-13.2-1.4-20.3-0.1
			c-7.1,1.3-14.2,4.1-21.2,8.3c-7.2,4.1-13.1,9-17.8,14.5c-4.7,5.5-8,11.4-10,17.7c-2,6.3-2.5,12.8-1.6,19.6c0.8,6.7,3.2,13.4,7,20
			c2.3,3.8,4.7,7.3,7.4,10.5c2.8,3.1,5.8,5.7,9,7.9c3.2,2.2,6.5,3.7,9.7,4.7c4.2,1.3,8.6,1.9,13,1.4c4.2-0.2,9.6-1.7,16-4.3
			C267.6,1454.7,257,1436.1,257,1436.1z M354.6,1455.8l-30.3,24.6l-75,12l17.4,21.5l52.4-14.1l-25.3,47.6l14.6,18.2l29.3-68.5
			l30.3-24.6L354.6,1455.8z M325.8,1583.6l19.6,18.3l89.8-35.2l0.7,0.7l-4.1,3.7l-55.5,59.7l12.8,12l71.5-76.9l-19.9-18.6
			l-88.6,34.2l-0.4-0.4l3.7-3.5l54.6-58.9l-12.8-12L325.8,1583.6L325.8,1583.6z M458.8,1695.4c6.8,4.2,13.6,7,20.4,8.3
			c6.8,1.2,13.4,1.1,19.8-0.6c6.4-1.7,12.5-4.8,18.1-9.3s10.7-10.5,15.3-17.7c4.4-7.1,7.4-14.2,9.1-21.2c1.6-7,1.8-13.9,0.5-20.4
			c-1.2-6.5-3.9-12.5-7.9-18.1c-4-5.5-9.3-10.3-15.8-14.5c-6.6-4.1-13.2-6.7-19.9-7.9c-6.7-1.1-13.2-0.8-19.6,0.8
			c-6.4,1.8-12.4,4.9-18,9.4c-5.7,4.5-10.6,10.2-15.1,17.4c-4.3,6.9-7.2,14-8.9,21c-1.5,7.1-1.8,13.9-0.6,20.4
			c1.2,6.5,3.7,12.5,7.5,18.1C447.5,1686.7,452.6,1691.5,458.8,1695.4L458.8,1695.4z M464.1,1633.2c2.9-4.7,6.2-8.6,9.7-11.7
			c3.6-3.1,7.3-5.4,11.2-6.7c3.9-1.3,7.8-1.8,11.8-1.3c3.9,0.5,7.8,1.9,11.4,4.1c5.2,3.2,8.9,7.3,11,12.2c2.2,4.9,2.8,10.3,1.9,16.4
			c-0.9,6-3.5,12.2-7.5,18.7c-3,4.8-6.2,8.6-9.7,11.6c-3.5,3-7.2,5.3-11.1,6.5c-3.9,1.3-7.7,1.8-11.8,1.2c-3.9-0.5-7.8-2-11.7-4.3
			c-3.7-2.4-6.7-5.2-8.9-8.6c-2.2-3.4-3.5-7.1-3.9-11.2c-0.5-4.1-0.1-8.5,1.1-13C459.1,1642.5,461.2,1638,464.1,1633.2L464.1,1633.2
			z M533.6,1734.2l19.7,8.8l34.7-78.3l45.1,20.1l7.8-17.8l-64.8-28.9L533.6,1734.2L533.6,1734.2z M671.5,1786.8
			c7.8,1.9,15.2,2.2,22,1.2c6.9-1,13.1-3.3,18.6-7c5.6-3.7,10.2-8.6,14.1-14.8c3.9-6.1,6.8-13.4,8.7-21.6c1.9-8.2,2.5-15.9,1.6-23.1
			c-0.8-7.2-2.9-13.7-6.2-19.5c-3.3-5.8-7.7-10.6-13.3-14.5c-5.6-3.9-12.2-6.7-19.6-8.5c-7.5-1.8-14.6-2.1-21.3-0.9
			c-6.7,1.1-12.8,3.5-18.3,7.2c-5.5,3.7-10.2,8.7-14,14.8c-3.9,6.1-6.8,13.2-8.7,21.3c-1.9,8-2.4,15.5-1.5,22.8
			c0.8,7.2,2.8,13.8,6,19.5c3.2,5.8,7.5,10.7,13,14.6C658,1782.3,664.2,1785.1,671.5,1786.8L671.5,1786.8z M656.3,1726.4
			c1.2-5.4,3.1-10.1,5.4-14.2c2.4-4,5.2-7.5,8.5-9.9c3.2-2.6,6.8-4.2,10.7-5.2c3.9-0.8,7.9-0.8,12.2,0.2c5.9,1.3,10.7,4,14.3,7.9
			c3.7,3.9,6,8.8,7,14.9c1,6,0.7,12.7-1,20.2c-1.2,5.5-3,10.1-5.4,14.2c-2.4,4-5.1,7.3-8.4,9.8c-3.2,2.5-6.8,4.1-10.7,5
			c-3.9,0.8-8,0.7-12.4-0.3c-4.3-1-8-2.7-11.1-5.2c-3.1-2.5-5.6-5.6-7.3-9.3c-1.8-3.7-2.9-8-3.2-12.7
			C654.5,1736.8,655.1,1731.7,656.3,1726.4z M838,1715.1c-0.7-1.3-1.2-2.3-1.5-2.7c-0.2-0.4-0.6-1.1-1.2-2.1
			c-2.1-3.2-4.4-5.9-7.2-8.1c-2.8-2.2-6-3.8-9.6-5c-3.6-1.1-7.8-2-12.7-2.3c-9.4-0.6-17.8,1.1-25.4,5.3
			c-7.5,4.1-13.6,10.3-18.1,18.5c-4.5,8.3-7.2,17.8-8,28.8c-0.5,8.1,0.1,15.5,2.1,22.4c2,6.8,4.9,12.7,9.2,17.9
			c4.1,5.2,9.3,9.2,15.4,12.2c6.1,3,12.9,4.8,20.4,5.3c13.6,0.9,25.1-2.1,34.2-9c3.4-2.7,6.4-6,8.9-9.9c2.1-3.4,3.8-7.9,5.2-13.6
			l-22-1.6c-1.6,4-3.5,7.2-5.7,9.5c-2.2,2.4-4.8,3.9-8,4.9c-3.2,0.9-6.9,1.2-11.2,0.9c-5.9-0.4-10.9-2.3-15.1-5.5
			c-4.2-3.3-7.2-7.8-9.2-13.5c-2-5.7-2.7-12.2-2.2-19.6c0.4-5.6,1.4-10.6,3.1-15c1.6-4.5,3.9-8.2,6.7-11.2s6.1-5.3,9.8-6.7
			s7.8-2.1,12.3-1.8c8.4,0.6,14.8,4,19.4,10.5c1.2,1.9,2.3,3.8,3,5.9c0.7,2,1.4,4.9,2.2,8.5l-23.8-1.7l-1.2,17.6l43.4,3l3.9-56.4
			l-13.2-0.9L838,1715.1L838,1715.1z M874.5,1698.8l7.3,104.9l21.4-1.6l-7.3-104.9L874.5,1698.8z M1000.9,1672.7l-10.6,15.2
			c-2-1.1-3.6-2.1-4.7-2.6c-2.7-1.1-6.2-1.9-10.7-2.1c-4.4-0.2-8.8,0-13,0.7c-7.4,1.3-13.9,3.8-19.6,7.5
			c-5.7,3.6-10.3,8.3-13.8,13.9c-3.6,5.6-6,12-7.1,19.1c-1.1,7.1-1,14.8,0.4,22.9c1.4,8.3,3.9,15.5,7.5,21.8
			c3.5,6.3,7.9,11.5,13.2,15.4c5.3,4,11.2,6.7,17.9,8.2c6.7,1.4,13.8,1.6,21.4,0.2c7.6-1.3,14.3-3.8,20.1-7.5
			c5.8-3.6,10.4-8.3,14-13.8c3.5-5.6,6-12,7.1-19.3c1.2-7.2,1-14.9-0.4-23.3c-1.4-8.5-3.9-15.4-7.4-20.9c-2.4-4-6.3-8.3-11.8-12.7
			l9.9-13.9L1000.9,1672.7L1000.9,1672.7z M982.6,1724.6l10.1-14.2c2.5,3.6,4.2,6.7,5.2,9.2c0.9,2.5,2,6.8,3,12.8
			c1,5.9,1.3,11.2,0.8,15.9c-0.5,4.9-1.8,9.1-3.7,12.7c-2,3.6-4.5,6.6-7.8,8.9c-3.3,2.3-7.2,3.8-11.8,4.7c-4.3,0.7-8.5,0.6-12.3-0.4
			c-3.9-1-7.3-2.9-10.4-5.7c-3.1-2.7-5.7-6.2-7.7-10.3c-2.1-4.2-3.6-9-4.5-14.4c-1.2-7.5-1.2-14.2,0.3-20.3c1.4-6.1,4.1-11.1,8-15
			s8.8-6.3,14.5-7.3c3.6-0.6,8.1-0.4,13.7,0.5l-9.9,13.8L982.6,1724.6L982.6,1724.6z M1064.6,1769.4l20.1-7.8l-23.5-61.4
			c-2.2-5.6-3.1-9.9-2.9-12.8c0.2-3.5,1.4-6.7,3.8-9.6s5.6-5.1,9.6-6.6c5.8-2.2,11-2.4,15.8-0.6c1.9,0.7,3.4,1.7,4.6,2.8
			c1.3,1.1,2.6,2.7,3.7,4.8c1.1,2,2.3,4.5,3.4,7.5l23.5,61.4l20.1-7.8l-24.3-63.5c-2.3-6-5.2-11-8.7-14.9c-3.5-3.9-7.5-6.9-12-8.8
			c-4.5-1.9-9.6-2.7-15.1-2.4c-5.5,0.2-11.3,1.6-17.6,3.9c-8.4,3.2-15,7.3-19.7,12.5s-7.6,11.1-8.5,17.8c-0.9,6.7,0.2,14.1,3.2,21.9
			L1064.6,1769.4L1064.6,1769.4z M1191.1,1593.9l-67.8,37.7l50.8,92l65.5-36.4l-8.8-15.8l-46.7,26l-10.9-19.8l42.6-23.7l-8.7-15.7
			l-42.6,23.7l-13.3-24l49-27.2L1191.1,1593.9L1191.1,1593.9z M1236.8,1555.4l67.3,80.5l16.5-13.9l-67.3-80.5L1236.8,1555.4z
			 M1350.3,1596.9l17.5-20.3l-38.3-88.8l0.7-0.8l3.8,3.9l61.5,53.6l11.4-13.2l-79.1-69l-17.8,20.6l37.1,87.7l-0.4,0.4l-3.6-3.6
			l-60.5-52.8l-11.4,13.2L1350.3,1596.9z M1352.2,1426.7l72.3,47.1l-16.9,26.1l15.7,10.1l45.5-70.3l-15.7-10.1l-16.9,26.1
			l-72.3-47.1L1352.2,1426.7L1352.2,1426.7z M1419,1301l-32.8,70.5l95,44.4l31.7-68.1l-16.4-7.7l-22.6,48.5l-20.4-9.5l20.6-44.3
			l-16.2-7.6l-20.6,44.3l-24.8-11.6l23.6-50.9L1419,1301L1419,1301z M1441.7,1224.1c3,2,5.3,3.4,7,4.1c1.8,0.7,4.5,1.7,8.5,2.8
			l3.2,0.9c7.5,2.2,12.4,4.8,14.6,7.9c2.3,3,2.5,7.5,0.8,13.2l-6.3,22l-39.2-11.3l-6,20.8l100.7,29l14-49c2-6.8,2.6-13,1.8-18.5
			c-0.8-5.5-2.9-10.1-6.3-13.9c-3.4-3.7-8-6.4-13.8-8.1c-5.5-1.6-10.1-2.1-13.8-1.3c-2.9,0.4-5.7,1.4-8.4,3.3
			c-2,1.3-3.5,2.7-4.6,4.1s-2.5,3.7-3.9,6.8c0.4-3.2,0.5-5.7,0.3-7.6c-0.2-1.9-0.8-3.8-2-5.8c-0.7-1.3-1.8-2.7-3-3.8
			c-1.5-1.3-3.2-2.6-4.7-3.4c-1.5-0.8-3.8-1.9-6.6-2.9c-2.9-1-6.8-2.3-11.9-3.7c-3.8-1.1-6.4-2.3-7.8-3.3c-1.4-0.9-2.5-2.5-3.1-4.5
			l-3.1-0.9L1441.7,1224.1L1441.7,1224.1z M1486.9,1280.3l7-24.4c3-10.3,8.9-14.3,17.7-11.8c4.2,1.2,7.2,3.4,8.9,6.6
			c1.6,3.2,1.8,7.1,0.4,11.8l-7.2,25.5L1486.9,1280.3L1486.9,1280.3z M1555.4,1189.8l2.4-26.8l-82.9-49.3l0.1-1l5.5,0.9l81,7.1
			l1.5-17.5l-104.3-9.2l-2.4,27.2l81.2,49.1l-0.1,0.6l-5.1-0.7l-79.8-7l-1.5,17.5L1555.4,1189.8L1555.4,1189.8z M1562.8,1039.4
			l-1.8-24.8l-108.9-30.4l1.6,23.2l22,5.8l2.9,40.7l-21,8.4l1.5,22.1L1562.8,1039.4L1562.8,1039.4z M1542.6,1029.8l-46.8,17.2
			l-2.1-29.1L1542.6,1029.8z M1443.6,953.4l83.9-19.5l7,30.3l18.1-4.2l-18.8-81.7l-18.1,4.2l7,30.2l-83.9,19.5L1443.6,953.4z
			 M1426.6,890.5l99.6-32.5l-6.7-20.6l-99.6,32.5C1419.9,870,1426.6,890.5,1426.6,890.5z M1489.4,760.6c-3.6-7.1-8-13-13.2-17.7
			s-10.9-7.9-17.3-9.7c-6.4-1.9-13.1-2.4-20.3-1.3c-7.2,0.9-14.5,3.4-22.1,7.2c-7.4,3.8-13.7,8.3-18.7,13.6
			c-4.9,5.3-8.6,11-10.9,17.3c-2.3,6.3-3.1,12.7-2.5,19.6c0.6,6.8,2.7,13.7,6.1,20.5c3.5,6.9,7.8,12.6,13,17.1
			c5.2,4.5,10.9,7.6,17.3,9.4c6.4,1.9,13.1,2.3,20.3,1.3c7.1-0.9,14.4-3.3,21.9-7.1c7.2-3.7,13.3-8.2,18.4-13.5
			c5.1-5.3,8.7-11,11-17.2s3.3-12.6,2.8-19.4C1494.8,774,1492.8,767.2,1489.4,760.6L1489.4,760.6z M1453.1,811.1
			c-4.9,2.5-9.7,4.1-14.3,5c-4.6,0.8-9,0.8-13-0.1c-4-0.8-7.6-2.5-10.8-5c-3.2-2.5-5.7-5.6-7.6-9.5c-2.8-5.4-3.8-10.9-3.2-16.1
			s2.9-10.3,6.8-15c3.9-4.7,9.3-8.7,16.1-12.2c4.9-2.5,9.7-4.1,14.2-5c4.5-0.7,8.9-0.7,12.9,0.1c4,0.9,7.5,2.6,10.7,5.1
			c3.1,2.5,5.7,5.8,7.7,9.7c2,3.9,3.1,8,3.2,11.9c0.1,4-0.7,7.9-2.4,11.7c-1.8,3.7-4.2,7.3-7.6,10.6
			C1462.2,805.8,1458,808.6,1453.1,811.1L1453.1,811.1z M1444.7,682.9l-16.5-21.1l-94.1,20.7l-0.6-0.8l4.6-3.1l64.1-50.3l-10.7-13.8
			l-82.6,64.7l16.8,21.5l92.8-19.9l0.3,0.5l-4.2,2.9l-63.2,49.6l10.7,13.9L1444.7,682.9L1444.7,682.9z M1349.9,567.7l-17.8-17.3
			l-101.3,50.5l16.6,16.1l20.2-10.5l29.2,28.3l-10,20.3l15.9,15.4L1349.9,567.7z M1328.4,574.1l-23.3,44.2l-20.9-20.3L1328.4,574.1z
			 M1282.8,511.4l-17.4-12.7l-50.2,69.3l-39.9-29.1l-11.3,15.7l57.3,41.8L1282.8,511.4L1282.8,511.4z M1085.5,514.4l68.5,36.5
			l49.2-92.8l-66.1-35.3l-8.5,16l47.1,25.1l-10.6,20l-43-23l-8.5,15.8l43,23l-12.9,24.2l-49.4-26.4L1085.5,514.4L1085.5,514.4"/>
	</g>
</g>
</svg>
