<?xml version="1.0" encoding="utf-8"?>
<!-- Generator: Adobe Illustrator 23.0.1, SVG Export Plug-In . SVG Version: 6.00 Build 0)  -->
<svg version="1.1" id="Warstwa_1" xmlns="http://www.w3.org/2000/svg" xmlns:xlink="http://www.w3.org/1999/xlink" x="0px" y="0px"
	 viewBox="0 0 3000 1000" style="enable-background:new 0 0 3000 1000;" xml:space="preserve">
<style type="text/css">
	.st0{fill:#F5F5F5;}
	.st1{fill:url(#SVGID_1_);}
	.st2{fill:url(#SVGID_2_);}
</style>
<polyline class="st0" points="-101,590 3078.1,500 3078,1000 2332,1336 -84.3,1039.3 -101,627 "/>
<linearGradient id="SVGID_1_" gradientUnits="userSpaceOnUse" x1="-1740.0001" y1="299.935" x2="3361.9763" y2="299.935">
	<stop  offset="0" style="stop-color:#6CB5E4"/>
	<stop  offset="9.145045e-02" style="stop-color:#63B0E1"/>
	<stop  offset="0.2435" style="stop-color:#49A3D9"/>
	<stop  offset="0.4362" style="stop-color:#208DCC"/>
	<stop  offset="0.5674" style="stop-color:#007CC2"/>
	<stop  offset="1" style="stop-color:#0059A9"/>
</linearGradient>
<path class="st1" d="M-376.6,1138c9-14.7,18.4-29.2,28.3-43.3c9.9-14.2,20.2-28.2,30.8-41.9c10.6-13.6,21.5-26.8,32.7-39.8
	c11.3-13,22.9-25.8,34.9-38.2c12-12.5,24.4-24.7,37-36.5c12.5-11.7,25.4-23.2,38.5-34.3c13.2-11.2,26.7-22,40.5-32.5
	c323-245.6,766.1-272.3,1144.5-155.3c105.3,32.6,205.9,78.6,303.9,128.6c72.5,37,143.4,82.4,221.1,107.8
	c78.3,25.7,165.9,34.9,247.9,40.5c468.2,31.6,890.1-207.7,1261.1-469.4c33.2-23.5,66.3-46.4,95.9-74.2
	c12.6-11.6,24.8-23.6,36.4-36.2c11.7-12.6,22.7-25.8,33.7-39c11-13.3,21.8-26.8,32.1-40.7c10.3-13.8,20.1-27.9,29.5-42.4
	c9.2-14.3,17.9-29,26-44c8.2-15.1,15.7-30.5,22.6-46.3c6.9-15.8,13-31.9,18.4-48.2c5-15.1,9.3-30.5,13-46c0-0.9,0.4-1.7,0.6-2.5
	c0.3-1.1,0.5-2.2,0.7-3.3c0.4-2.1,0.8-4.1,1.1-6.2c0.7-4.3,1.4-8.6,2-12.9c1.2-8.7,2.2-17.5,3-26.3c1.6-17.6,2.4-35.2,2.5-52.9
	c0.1-17.7-0.5-35.5-1.7-53.1c-1.3-17.6-3.2-35.1-5.8-52.6c-2.6-17.3-5.8-34.5-9.7-51.5c-3.9-17-8.5-33.9-13.7-50.6
	c-5.2-16.5-11-32.8-17.4-48.9c-6.4-16-13.4-31.7-21-47.1c-7.6-15.4-15.7-30.5-24.5-45.1c-8.6-14.3-18-28-28.4-41.1
	c-10.4-13.1-21.6-25.4-33.6-37c-12-11.6-24.8-22.5-38-32.7c-13.6-10.4-27.7-20.1-42.2-29.2c-14.6-9.1-29.5-17.7-44.8-25.7
	c-15.3-8.1-31-15.6-46.7-22.8c-15.9-7.2-32-14-48.3-20.5c-16.2-6.5-32.6-12.6-49-18.4c-16.6-5.9-33.3-11.5-50-16.9
	c-16.7-5.4-33.5-10.5-50.4-15.5c-16.9-5-33.9-9.8-50.9-14.4c-17.1-4.6-34.2-9.1-51.4-13.4c-17-4.3-34.1-8.5-51.2-12.5
	c-17.3-4.1-34.6-8-51.9-11.9c-17.3-3.8-34.6-7.6-52-11.2c-17.3-3.6-34.6-7.2-51.9-10.6c-17.4-3.5-34.8-6.9-52.1-10.2
	c-17.4-3.3-34.8-6.6-52.2-9.7c-17.4-3.2-34.9-6.3-52.4-9.4c-17.5-3.1-35-6.1-52.4-9c-17.5-2.9-35-5.8-52.5-8.7
	c-17.5-2.8-35.1-5.7-52.6-8.4c-17.5-2.8-35-5.5-52.6-8.1c-17.6-2.7-35.1-5.3-52.7-7.9c-17.5-2.6-35-5.1-52.5-7.6
	c-17.6-2.5-35.1-5-52.7-7.5c-17.5-2.4-35.1-4.9-52.6-7.3s-35.1-4.7-52.7-7.1c-17.6-2.3-35.3-4.7-52.9-6.9
	c-17.6-2.3-35.2-4.5-52.8-6.8c-17.6-2.2-35.1-4.4-52.7-6.6c-17.5-2.2-35.1-4.3-52.6-6.5c-17.6-2.1-35.2-4.3-52.8-6.4
	c-17.7-2.1-35.4-4.2-53.2-6.3c-17.7-2.1-35.3-4.1-53-6.2c-17.6-2-35.2-4-52.9-6c-17.6-2-35.2-4-52.8-5.9c-17.6-2-35.2-3.9-52.8-5.9
	c-17.7-1.9-35.4-3.9-53.2-5.8c-17.7-1.9-35.3-3.8-53-5.7c-17.6-1.9-35.2-3.7-52.8-5.6c-17.6-1.8-35.2-3.7-52.8-5.5
	c-17.7-1.8-35.4-3.6-53-5.4c-17.7-1.8-35.4-3.5-53.1-5.3c-17.6-1.7-35.2-3.4-52.8-5.1c-17.6-1.7-35.3-3.3-52.9-5
	c-17.7-1.6-35.3-3.2-53-4.8c-17.7-1.6-35.4-3.2-53.1-4.7c-17.8-1.5-35.5-3.1-53.3-4.5c-17.6-1.5-35.3-2.9-52.9-4.3
	c-17.7-1.4-35.5-2.8-53.2-4.2c-17.7-1.4-35.3-2.7-53-4c-17.7-1.3-35.4-2.5-53.2-3.8c-17.8-1.2-35.6-2.4-53.4-3.5
	c-17.6-1.1-35.2-2.2-52.9-3.3c-17.8-1.1-35.6-2.1-53.4-3c-17.7-1-35.5-1.9-53.2-2.7c-17.7-0.9-35.4-1.6-53.1-2.4
	c-17.8-0.7-35.6-1.4-53.5-2c-17.7-0.6-35.3-1.2-53-1.6c-17.7-0.5-35.5-0.9-53.2-1.2c-17.8-0.3-35.5-0.6-53.3-0.7
	c-17.8-0.2-35.5-0.2-53.3-0.2c-17.7,0-35.5,0.2-53.2,0.4c-17.7,0.2-35.4,0.6-53,1c-17.8,0.5-35.6,1.1-53.4,1.8
	c-17.7,0.7-35.4,1.6-53.1,2.6c-17.6,1-35.3,2.2-52.9,3.6c-17.6,1.4-35.2,2.9-52.8,4.6c-17.6,1.7-35.2,3.7-52.8,5.8
	c-17.6,2.1-35.1,4.5-52.6,7.1c-17.5,2.6-35,5.4-52.4,8.4c-17.4,3-34.7,6.3-52,9.8c-17.3,3.5-34.6,7.2-51.8,11
	c-17.3,3.9-34.5,8-51.7,12.1c-17.3,4.2-34.6,8.3-51.8,12.5c-17.2,4.2-34.4,8.4-51.6,12.7c-17.2,4.3-34.4,8.7-51.6,13.1
	c-17.2,4.4-34.3,9-51.5,13.6c-17,4.6-34.1,9.4-51,14.3c-17,4.9-33.9,10-50.8,15.2c-16.9,5.2-33.7,10.6-50.4,16.2
	c-16.7,5.6-33.4,11.4-50,17.4c-16.5,6-32.9,12.1-49.2,18.6c-16.3,6.4-32.5,13.1-48.5,20c-16.1,6.9-32.1,14.2-47.9,21.7
	c-15.8,7.5-31.4,15.2-46.9,23.3c-15.5,8.1-30.8,16.5-46,25.2c-15.1,8.7-30.1,17.7-44.8,27.1c-14.6,9.3-29.1,18.9-43.3,28.9
	c-14.2,10-28.2,20.3-41.9,30.9c-13.7,10.6-27.1,21.6-40.3,32.9c-13.1,11.3-26,22.9-38.5,34.9c-12.5,11.9-24.6,24.1-36.5,36.7
	c-11.8,12.5-23.4,25.4-34.5,38.5c-11.2,13.2-22.1,26.8-32.6,40.6c-10.4,13.7-20.5,27.8-30.1,42.1c-9.7,14.4-19,29.1-27.9,44.1
	c-8.9,14.9-17.3,30.1-25.2,45.6c-7.9,15.4-15.4,31-22.5,46.8c-7.1,15.9-13.7,32.1-19.9,48.4c-6.1,16.2-11.8,32.6-16.9,49.1
	c-5.3,16.8-10.1,33.7-14.4,50.8c-4.3,17-8.2,34.1-11.6,51.3c-3.4,17.3-6.4,34.7-9,52.1c-2.6,17.5-4.7,35-6.5,52.6
	c-1.7,17.5-3.1,35-4,52.6c-1,17.8-1.5,35.6-1.8,53.4c-0.2,17.7-0.1,35.4,0.4,53.1c0.5,17.6,1.2,35.3,2.3,52.9
	c1.1,17.6,2.5,35.2,4.1,52.8c1.7,17.6,3.6,35.3,5.8,52.9c2.2,17.7,4.6,35.3,7.3,52.9c2.6,17.5,5.5,35,8.5,52.4
	c3.1,17.5,6.3,34.9,9.7,52.3c3.4,17.3,7,34.6,10.7,51.8c3.7,17.2,7.5,34.4,11.5,51.6c4,17.3,8,34.5,12.1,51.7
	c4.1,17.2,8.3,34.3,12.5,51.5c4.2,17.2,8.5,34.5,12.7,51.7c4.2,17.2,8.5,34.4,12.8,51.6c4.3,17.1,8.7,34.2,13.1,51.3
	c4.5,17.1,9,34.2,13.7,51.2c4.7,17,9.5,34,14.5,50.9c5,16.9,10.2,33.7,15.6,50.4c5.4,16.7,11.1,33.4,17,50
	c5.9,16.5,12.2,32.9,18.7,49.2c6.6,16.2,13.5,32.2,20.9,48c7.3,15.7,15.1,31.3,23.4,46.5c8.2,15.1,16.9,30,26.3,44.4
	c9.2,14.3,19,28.2,29.5,41.7c10.4,13.3,21.5,26.2,33.2,38.3c11.7,12.1,24.2,23.6,37.3,34.3c13,10.6,26.7,20.3,40.9,29.1
	c14.4,8.9,29.3,16.8,44.7,23.7c15.5,7,31.5,12.9,47.7,17.8c16.6,5,33.5,9,50.5,12c17.4,3,34.9,5.1,52.5,6.2
	c17.6,1.1,35.3,1.3,52.9,0.7c17.6-0.6,35.2-2.1,52.7-4.3c17.4-2.2,34.8-5.1,52-8.6c17.1-3.5,34-7.7,50.8-12.4
	c16.8-4.7,33.4-10,49.9-15.8c16.3-5.7,32.5-12,48.4-18.7c16.1-6.8,32-14,47.7-21.6c15.7-7.6,31.2-15.6,46.4-24
	c15.2-8.4,30.3-17.2,45.1-26.3c14.9-9.1,29.5-18.6,43.9-28.4c14.3-9.7,28.4-19.7,42.2-30.1c14-10.4,27.7-21.1,41.3-32.1
	c13.5-11,26.8-22.3,39.9-33.8c13.1-11.5,25.9-23.3,38.5-35.4c12.6-12.1,25-24.4,37.1-36.9c12-12.4,23.8-25.1,35.4-38
	C-395.9,1160.6-386.2,1149.4-376.6,1138z"/>
<linearGradient id="SVGID_2_" gradientUnits="userSpaceOnUse" x1="-1250" y1="97.9348" x2="3464.9797" y2="97.9348">
	<stop  offset="0" style="stop-color:#CCE0F4"/>
	<stop  offset="0.1457" style="stop-color:#A2D0EE"/>
	<stop  offset="0.3651" style="stop-color:#69BBE6"/>
	<stop  offset="0.5681" style="stop-color:#3BA9E0"/>
	<stop  offset="0.748" style="stop-color:#1B9DDC"/>
	<stop  offset="0.8981" style="stop-color:#0796D9"/>
	<stop  offset="1" style="stop-color:#0093D8"/>
</linearGradient>
<path class="st2" d="M3.8,931.4c59.5-76.4,117.9-154.2,188.6-220c146-136,329.3-220.5,526.5-250.1c216.8-32.5,442.7-2,645.4,80.5
	c131.7,53.6,246.8,139.4,377.8,194.1c106.9,44.6,224.2,59.3,339.4,58.7c388.8-2.1,732.8-209,1037.9-430.1
	c13.3-9.7,26.5-19.5,39.6-29.5c12.9-10,25.7-20.1,38.3-30.5c12.6-10.5,25.1-21.2,37.2-32.2c11.9-10.9,23.6-22,34.8-33.6
	c11.2-11.6,22-23.6,32.2-36c10.3-12.6,20.3-25.5,30-38.5c9.8-13,19.3-26.3,28.4-39.8c9.1-13.5,17.7-27.3,25.9-41.4
	c8.2-14,15.8-28.4,23-43c7.1-14.6,13.7-29.5,19.7-44.6c6-15.2,11.3-30.5,16-46.1c4.4-14.5,8.2-29.2,11.4-44c0-0.8,0.4-1.7,0.5-2.5
	c0.2-1,0.4-2,0.6-3c0.4-2.1,0.7-4.1,1-6.2c0.7-4.1,1.2-8.2,1.8-12.3c1.1-8.3,2-16.6,2.7-24.9c2.3-26.3,3-52.7,2.3-79
	c-0.7-26.1-2.8-52.2-6.2-78.2c-1.9-14.5-4.3-28.9-7.1-43.2c-3.1-15.8-6.7-31.5-10.8-47.1c-4.1-15.5-8.7-30.9-13.9-46.1
	c-5.1-15.1-10.7-30-16.9-44.7c-6.1-14.7-12.8-29.2-19.9-43.5c-7-14-14.4-27.7-22.7-41c-8.2-13.1-17.2-25.6-26.9-37.6
	c-9.7-11.9-20.2-23.2-31.3-33.9c-11.2-10.7-22.9-20.8-35.2-30.3c-12.4-9.6-25.2-18.6-38.3-27c-13.3-8.6-26.9-16.6-40.8-24.2
	c-14-7.7-28.3-14.9-42.8-21.8c-14.5-6.9-29.2-13.4-44-19.6c-14.9-6.3-30-12.2-45.1-17.9c-15.1-5.7-30.4-11.1-45.7-16.4
	c-15.3-5.2-30.7-10.3-46.2-15.1c-15.5-4.9-31.1-9.5-46.7-14.1c-15.6-4.5-31.3-8.9-47-13.1c-15.7-4.2-31.4-8.3-47.1-12.3
	c-15.8-4-31.6-7.9-47.4-11.7c-15.8-3.8-31.7-7.5-47.6-11c-15.8-3.6-31.7-7.1-47.6-10.5c-16-3.4-32-6.8-48-10.1
	c-16-3.3-32-6.5-48-9.6c-16-3.1-32-6.2-48-9.2c-16-3-32-6-48-8.9c-16.1-2.9-32.2-5.8-48.3-8.6c-16.1-2.8-32.3-5.6-48.4-8.3
	c-16.1-2.7-32.3-5.4-48.4-8.1c-16.1-2.7-32.3-5.3-48.5-7.8c-16.1-2.6-32.3-5.1-48.4-7.6c-16.1-2.5-32.2-5-48.4-7.4
	c-16.2-2.4-32.4-4.9-48.6-7.2c-16.2-2.4-32.4-4.7-48.5-7.1c-16.2-2.3-32.3-4.6-48.5-6.9c-16.2-2.3-32.3-4.5-48.5-6.7
	c-16.2-2.2-32.4-4.4-48.5-6.6c-16.2-2.2-32.4-4.3-48.6-6.5c-16.2-2.1-32.4-4.2-48.6-6.3c-16.2-2.1-32.4-4.2-48.6-6.2
	c-16.3-2.1-32.6-4.1-48.9-6.2c-16.2-2-32.4-4-48.6-6c-16.2-2-32.4-4-48.6-5.9c-16.2-2-32.4-3.9-48.7-5.8
	c-16.3-1.9-32.5-3.8-48.8-5.8c-16.3-1.9-32.5-3.8-48.8-5.7c-16.2-1.9-32.5-3.7-48.7-5.5c-16.3-1.8-32.6-3.7-48.9-5.5
	c-16.2-1.8-32.5-3.6-48.7-5.3c-16.2-1.8-32.5-3.5-48.7-5.2s-32.5-3.4-48.7-5.1c-16.3-1.7-32.6-3.3-48.8-5
	c-16.3-1.6-32.6-3.2-48.9-4.8c-16.3-1.6-32.6-3.1-48.9-4.7c-16.3-1.5-32.6-3-48.9-4.5c-16.3-1.5-32.5-2.9-48.8-4.3
	c-16.3-1.4-32.5-2.8-48.8-4.2c-16.3-1.4-32.6-2.7-48.9-4c-16.3-1.3-32.7-2.5-49-3.8c-16.3-1.2-32.5-2.4-48.8-3.5
	c-16.3-1.1-32.7-2.2-49-3.3c-16.3-1-32.6-2.1-48.9-3c-16.3-1-32.6-1.9-49-2.7c-16.3-0.9-32.7-1.7-49-2.4
	c-16.3-0.7-32.6-1.4-48.9-2.1c-16.4-0.6-32.7-1.2-49.1-1.7c-16.3-0.5-32.6-0.9-48.9-1.2c-16.3-0.3-32.7-0.6-49-0.8
	c-16.3-0.2-32.7-0.3-49-0.2c-16.3,0-32.6,0.1-49,0.3c-16.4,0.2-32.7,0.5-49.1,1c-16.4,0.4-32.7,1-49.1,1.7
	c-16.3,0.7-32.6,1.6-48.8,2.6c-16.3,1-32.6,2.2-48.8,3.5c-16.2,1.3-32.4,2.8-48.6,4.5c-16.1,1.7-32.3,3.6-48.4,5.6
	c-16.2,2.1-32.3,4.4-48.4,6.9c-16.1,2.5-32.1,5.2-48,8.2c-16,3-31.9,6.1-47.8,9.5c-15.9,3.4-31.7,7-47.5,10.8
	c-15.8,3.8-31.5,7.8-47.2,11.8c-15.8,4.1-31.6,8.2-47.3,12.4c-15.8,4.1-31.5,8.3-47.3,12.5c-15.8,4.2-31.5,8.5-47.3,12.9
	c-15.7,4.4-31.3,8.8-46.9,13.3c-15.6,4.5-31.1,9.2-46.6,14c-15.5,4.8-30.9,9.7-46.3,14.8c-15.4,5.1-30.7,10.3-46,15.7
	c-15.3,5.4-30.6,11-45.7,16.9c-15.1,5.8-30.2,11.8-45.1,18c-14.9,6.2-29.6,12.6-44.3,19.3c-14.7,6.7-29.2,13.6-43.7,20.8
	c-14.4,7.2-28.7,14.7-42.8,22.4c-14.1,7.7-28,15.7-41.8,24c-13.8,8.3-27.4,16.9-40.8,25.8c-13.3,8.8-26.4,18-39.4,27.4
	c-12.9,9.4-25.6,19.2-38,29.2c-12.4,10-24.6,20.3-36.5,30.9c-11.9,10.6-23.5,21.4-34.8,32.5c-11.4,11.2-22.5,22.6-33.3,34.3
	c-10.8,11.7-21.4,23.7-31.6,36c-10.2,12.3-20.2,24.8-29.8,37.5c-9.6,12.8-18.9,25.8-27.8,39c-8.9,13.2-17.5,26.7-25.8,40.4
	c-8.2,13.7-16.1,27.5-23.6,41.6c-7.5,14.1-14.6,28.4-21.4,42.8c-6.8,14.5-13.2,29.2-19.2,44c-6,14.9-11.7,29.9-17,45.1
	c-5.3,15.2-10.2,30.5-14.7,46c-4.5,15.5-8.7,31.1-12.5,46.7c-3.8,15.7-7.2,31.5-10.3,47.4c-3.1,15.9-5.8,31.9-8.2,48
	c-2.4,16.1-4.5,32.3-6.2,48.5c-1.7,16.2-3.1,32.4-4.2,48.6c-1.1,16.3-1.9,32.6-2.4,48.9c-0.5,16.4-0.7,32.7-0.7,49.1
	c0.1,16.3,0.4,32.7,0.9,49c0.6,16.3,1.4,32.6,2.4,48.9c1,16.2,2.3,32.5,3.8,48.7c1.5,16.3,3.2,32.5,5.1,48.8
	c1.9,16.2,4,32.4,6.2,48.5c2.3,16.1,4.7,32.2,7.2,48.3c2.6,16.1,5.3,32.1,8.2,48.2c2.9,16,5.9,32,9,48c3.1,15.9,6.3,31.9,9.6,47.8
	c3.3,15.9,6.7,31.8,10.2,47.7c3.5,15.9,7,31.8,10.6,47.8c3.6,15.9,7.2,31.8,10.8,47.7c3.6,15.9,7.2,31.9,10.9,47.8
	c3.7,16,7.3,31.9,11.1,47.8c3.7,16,7.6,31.9,11.4,47.8c3.9,15.8,7.8,31.5,11.9,47.2c4.1,15.7,8.2,31.4,12.6,47.1
	c4.3,15.6,8.8,31.2,13.4,46.7c4.7,15.5,9.5,31,14.6,46.4c5.1,15.3,10.4,30.6,16,45.8c5.6,15.1,11.4,30,17.7,44.8
	c6.2,14.8,12.8,29.5,19.8,43.9c6.9,14.3,14.3,28.4,22.1,42.3c7.8,13.7,16,27.2,24.9,40.3c8.7,12.9,18,25.5,27.9,37.6
	c9.8,12,20.2,23.5,31.3,34.3c11,10.8,22.6,21,34.8,30.3c12.2,9.4,25.1,18,38.5,25.7c13.5,7.8,27.5,14.6,41.9,20.5
	c14.5,5.9,29.5,10.9,44.7,14.9c15.4,4,31.1,7.1,46.8,9.2c16,2.2,32.2,3.4,48.3,3.7c16.3,0.4,32.5-0.2,48.7-1.5
	c16.2-1.3,32.3-3.4,48.2-6.1c15.8-2.7,31.5-6.1,47.1-10.1c15.6-4,31-8.6,46.2-13.7c15.2-5.1,30.2-10.7,45-16.8
	c14.8-6.1,29.4-12.6,43.9-19.5c14.4-6.9,28.7-14.3,42.7-22c14-7.7,27.9-15.8,41.5-24.2c13.7-8.4,27.1-17.2,40.4-26.3
	c13.2-9,26.1-18.4,38.9-28c12.7-9.6,25.3-19.5,37.6-29.6C-112.9,1078.7-54,1005.7,3.8,931.4z"/>
</svg>
