<?xml version="1.0" encoding="utf-8"?>
<!-- Generator: Adobe Illustrator 23.0.1, SVG Export Plug-In . SVG Version: 6.00 Build 0)  -->
<svg version="1.1" id="Warstwa_1" xmlns="http://www.w3.org/2000/svg" xmlns:xlink="http://www.w3.org/1999/xlink" x="0px" y="0px"
	 viewBox="0 0 3000 300" style="enable-background:new 0 0 3000 300;" xml:space="preserve">
<style type="text/css">
	.st0{fill:#F5F5F5;}
</style>
<path class="st0" d="M3000,300c0,0-2997,0-3000,0c5.4,0,16.7-28,19.6-32.9c7.7-13.1,16.1-25.8,25.2-38
	c18.3-24.3,39.4-46.5,62.6-66.1c50.1-42.2,110.9-73.4,175.4-85.6c78.6-14.8,155.9-0.4,233.8,12c159.2,25.3,315.6,64.9,476.6,78.2
	c78.5,6.5,157.4,8.8,236.1,3.9c81.2-5.1,161.4-18.5,242.3-26.5c80.2-7.9,160.9-9,241.4-5.7c79.2,3.3,157.8,12,236,24.7
	c77.9,12.7,155.8,29.1,234.3,38.7c81,10,162.6,15.2,244.2,13.1c156.9-4,313.1-34,461.9-83.4c37.2-12.4,74.1-26,110.4-40.9"/>
</svg>
