<?xml version="1.0" encoding="utf-8"?>
<!-- Generator: Adobe Illustrator 23.0.1, SVG Export Plug-In . SVG Version: 6.00 Build 0)  -->
<svg version="1.1" id="Warstwa_1" xmlns="http://www.w3.org/2000/svg" xmlns:xlink="http://www.w3.org/1999/xlink" x="0px" y="0px"
	 viewBox="0 0 225 225" style="enable-background:new 0 0 225 225;" xml:space="preserve">
<style type="text/css">
	.st0{fill-rule:evenodd;clip-rule:evenodd;fill:#F9FBFA;}
	.st1{fill-rule:evenodd;clip-rule:evenodd;fill:#04933C;}
	.st2{fill-rule:evenodd;clip-rule:evenodd;fill:#54A276;}
	.st3{fill-rule:evenodd;clip-rule:evenodd;fill:#5FD090;}
	.st4{fill-rule:evenodd;clip-rule:evenodd;fill:#2C8954;}
</style>
<g id="svgg">
	<path id="path0" class="st0" d="M102,0.1c0.3,0.1,0.7,0.1,1,0c0.3-0.1,0-0.1-0.5-0.1C102,0,101.8,0,102,0.1 M120.7,0.1
		c0.4,0,1,0,1.4,0c0.4,0,0.1-0.1-0.7-0.1C120.6,0,120.3,0,120.7,0.1 M125.2,0.1c0.4,0,1.1,0,1.5,0c0.4,0,0.1-0.1-0.7-0.1
		C125.2,0,124.8,0,125.2,0.1 M128.7,9.6c0.8,0,2.1,0,2.9,0c0.8,0,0.1-0.1-1.4-0.1C128.6,9.5,127.9,9.6,128.7,9.6 M89,11.6
		c0,0.5,0,0.8,0.1,0.5c0.1-0.3,0.1-0.7,0-1C89.1,10.9,89,11.1,89,11.6 M103,16c0,1,0,1.3,0.1,0.8c0-0.5,0-1.3,0-1.7
		C103,14.7,103,15.1,103,16 M118.7,15.6c0,0.6,0,0.8,0.1,0.5c0-0.3,0-0.8,0-1.1C118.7,14.7,118.7,15,118.7,15.6 M109.4,15.7
		c0,0.4,0,0.6,0.1,0.4c0.1-0.2,0.1-0.5,0-0.8C109.5,15.1,109.4,15.3,109.4,15.7 M96.5,29.8c0.2,0.2,0.6,0.4,1,0.3l0.7,0L97.5,30
		c-0.4-0.1-0.8-0.2-1-0.3C96.2,29.5,96.2,29.5,96.5,29.8 M138.4,31.8c0.2,0.1,0.5,0.1,0.8,0c0.2-0.1,0-0.1-0.4-0.1
		C138.4,31.7,138.2,31.8,138.4,31.8 M112.5,33.4c0.6,0,1.6,0,2.1,0c0.6,0,0-0.1-1.1-0.1C112.4,33.3,111.9,33.3,112.5,33.4
		 M112.1,36.4c-4.9,0.6-8.9,1.9-10.4,3.4c-1.5,1.4-4.1,6.2-4,7.1c0.2,1.1,1.1,0.7,2.3-1c4.2-6.3,7.2-7.9,14.2-7.6
		c9,0.4,11.3,1.9,17.2,11.4c3.2,5.1,3.4,5.8,2.5,6.6c-0.9,0.8-1.8,0.8-2.3,0c-2.1-3.8-5.9-8.5-6.8-8.4c-1.1,0.2-0.9,0.7,0.7,2.5
		c1.2,1.3,1.8,2.1,2.4,3.5c0.5,1,1.2,2.6,1.7,3.6c1.2,2.5,1.1,3.6-0.6,3.6c-2,0-3.6-1.7-5.6-5.8c-2.4-5.2-2.2-4.9-3.1-4.9
		c-1.7,0-1.6,0.7,0.5,4.4c2.2,3.9,2.3,4.7,0.6,4.7c-0.9,0-1.2-0.3-4.5-4.7l-2.8-3.7l-0.9,0.1c-1.4,0.1-1.2,0.5,1.7,4.1
		c1.5,1.8,2.8,3.5,2.8,3.7c0.9,2.8,2.8,3.6,5.1,2.1c1.5-0.9,1.7-0.8,4.4,1.2c1.8,1.3,3.5,2.3,3.8,2.1c0.1-0.1,0-0.8-0.1-1.5
		c-0.3-1.4-0.2-1.8,0.3-1.8c0.2,0,0.4-0.5,0.5-1.2c0.4-1.8,0.3-1.8,1.1-1.6c2.1,0.6,3.5-2.2,2.5-5.1c-0.4-1-3.3-6-5-8.4
		c-2.4-3.4-7-7.5-9.2-8.1C120.5,36.2,113.5,36.2,112.1,36.4 M28.3,42.3c0,0,0.3,0.4,0.7,0.7l0.7,0.6L29,43
		C28.4,42.3,28.3,42.2,28.3,42.3 M109.8,47.9c-2.1,0.3-2.3,0.4-3.6,1.4c-2.7,2.1-4.6,2.7-7.7,2.7c-2.6,0-2.8,0.1-2.8,1
		c0,0.8,0.1,0.8,1.5,1.5c2.4,1.1,4.8,3.7,5.4,5.8c0.2,0.8,0.7,2.3,1,3.3l0.5,1.8l1.7,0.4l1.7,0.4l1.5,2c0.8,1.1,1.6,2.1,1.8,2.3
		c0.2,0.3,0.5,0.3,1.8,0.2c3.6-0.4,4.3-0.3,6.1,0.5l1.7,0.8l-1-1.3c-0.5-0.7-1.2-1.7-1.4-2.2c-0.5-1-0.6-1-1.3-0.4
		c-1.3,1.2-1.9,1.5-2.6,1.5c-1,0-2-0.7-2.2-1.6c-0.3-1.4-0.3-1.5-1.1-1.5c-1.6,0-1.7-0.1-2-2c-0.2-1.6-0.3-1.7-0.7-1.6
		c-0.3,0.1-0.9,0.1-1.5,0.2l-1.1,0.1l-0.8-2.7l-0.8-2.7l-2.4-2.1c-2-1.8-2.4-2.2-2-2.3c0.2-0.1,1.3-0.4,2.4-0.6
		c2.3-0.6,4.9-1.6,6.4-2.6c1-0.6,1.1-0.7,3.2-0.7c2.2,0,2.2,0,2.2-0.5c0-0.5-0.5-1.2-0.9-1.2c-0.1,0-0.3,0-0.5-0.1
		C112.2,47.6,111,47.7,109.8,47.9 M167.5,48.2c0,0,0.3,0.4,0.7,0.7l0.7,0.6l-0.6-0.7C167.7,48.2,167.5,48,167.5,48.2 M170.2,50.4
		c0.3,0,0.8,0,1.1,0c0.3-0.1,0-0.1-0.6-0.1C170,50.3,169.8,50.4,170.2,50.4 M179.4,52.1l-0.6,0.7L179.4,52.1
		c0.5-0.3,0.8-0.6,0.8-0.6C180.2,51.3,180,51.4,179.4,52.1 M106,54.9c-1,1.1-0.2,2.4,1.3,2.3c1-0.1,1.4-1.6,0.6-2.4
		C107.3,54.2,106.6,54.3,106,54.9 M166.9,54.4c0,0,0.3,0.4,0.7,0.7l0.7,0.6l-0.6-0.7C167.1,54.4,166.9,54.3,166.9,54.4 M169.7,57.3
		c0,0,0.3,0.4,0.7,0.7l0.7,0.6l-0.6-0.7C169.8,57.2,169.7,57.1,169.7,57.3 M79,61c-0.4,0.2-1.1,0.7-1.6,1.1
		c-1.1,0.8-1.5,0.9-2.2,0.3c-1.1-0.9-4.5,0.7-7.6,3.4l-1.9,1.7L65.4,69c-0.7,4.1-0.2,7.4,1.8,12.8c1.2,3.2,1.3,3.6,0.4,4.9
		c-0.9,1.4-1.7,0.4-1.7-2.2c0-2.4-0.3-3.4-1.3-4.9c-0.7-1-0.8-1.4-1.1-3.4c-0.4-2.5-0.4-2.6-0.9-2.6c-1.9,0-3.5,4.2-3,7.9
		c0.3,2.7,0.2,3-2.1,4.5c-2.8,1.8-4,3.6-5,7.4l-0.5,1.8l0.6,1.3c0.3,0.7,1,3,1.5,5.1c1.3,5.2,2.5,7.5,4.3,8.2c2,0.8,2.2,1.1,2.5,5.3
		c0.4,4.7,1,6,3.8,7.6c2.5,1.4,3,2.2,3.1,4.6c0,1.4,0.3,2.2,1.9,6.6c2.6,7.2,2.6,6.7,1.9,17.1c-0.4,6.1-1.5,7.8-7.2,10.8
		c-3.3,1.7-4.2,2.8-3.9,4.5l0.1,0.5l5.6,0.1l5.6,0.1l0.8-0.8c1.3-1.4,2.7-3.6,3.3-5.4c0.3-1,1.1-2.5,1.7-3.5c2.6-4.2,3-5.1,3.3-6.8
		c0.1-0.5,0.3-1.2,0.5-1.5c0.2-0.5,0.4-1.6,0.5-3.9c0.1-3,0.2-3.4,0.9-5.1c0.8-2,0.9-3.1,0.5-5.5l-0.2-1.3l0.7-0.2
		c1-0.3,1.2-0.9,0.9-3.5c-0.4-3.5-0.4-4.4,0.4-5.3c1.1-1.4,1.1-2.4-0.2-5.2c-1.7-3.7,0.5-4.5,2.4-1c1.5,2.8,1.8,5.4,0.9,6.7
		c-1.4,1.9-1.2,7.7,0.2,7.8c2.8,0.1,3,0.2,2.9,1.4c-0.1,0.9-0.2,1-2.7,3.2c-1,0.9-1.3,2.1-0.4,2.1c0.7,0,2.1-1.6,3.7-4.4l1.5-2.6
		l1.5-0.1c2.9-0.2,3,0.2,0.7,2.8c-5.3,6.1-10.5,14.1-17,26.2c-3.7,6.7-3.8,10.3-0.6,13.4c4.6,4.4,8.9,4.1,31.1-1.8
		c13.8-3.7,23.3-4.9,23.6-3.1c0.3,1.8,0.3,2.4,0,5.5c-0.4,3.8-0.5,3.6,1.3,3.3c3.9-0.8,5.6-2.1,6.6-5.5l0.7-2.3l0.7,0.1
		c1.3,0.2,6.3,3.6,6.3,4.3c0,0.1,0.1,1,0.3,2l0.3,1.7l1.1-0.1c1.3-0.1,1.8-0.5,3.2-2.7c1.5-2.3,1.6-2.8,0.7-6.7
		c-0.4-1.9-0.8-3.4-0.8-3.5c0-0.1-0.1-0.1-0.3-0.1c-1.5,0-3.5-2-6.6-6.8c-2.6-4-4.3-5.8-6.1-6.8l-1.1-0.6l-2.4,0.7
		c-3.1,0.9-2.9,0.9-3.6-0.5c-0.4-0.9-1-1.7-2.2-2.9l-1.7-1.7H127h-1.9l-3,1.9l-3,1.9l-1.8,0l-1.8,0l-1.1,1l-1.1,1l2.5-0.1l2.5-0.1
		l4.2-2c4.9-2.4,4.5-2.4,6.9-0.1c2.3,2.2,3.1,4.8,1.6,5.4c-2,0.8-8.9,0.8-13.4,0.1c-4.1-0.6-10-2.3-9.5-2.7c0.1-0.1,6.9-4,15.1-8.8
		l15-8.6v-0.9c0-0.8-0.1-1-0.6-1.3c-0.8-0.5-0.7-0.5-1.4,0.5c-1.2,1.9-2.5,2.8-6.7,4.9c-4.9,2.5-7.9,4.2-17.2,9.5
		c-10.3,5.9-15,8.5-19.1,10.6l-3.7,1.9l-0.2,0.9c-0.3,1.2-0.3,1.1,0.9,1c0.7-0.1,1.7-0.6,3.4-1.6c3.6-2.2,7.1-3.8,10.1-4.6
		c1.2-0.3,1.5-0.3,3.8,0c4.2,0.6,8.8,1,15.5,1.6c3.7,0.3,6.3-0.1,9.4-1.6c6.9-3.3,7.3-3.2,10.1,1.3c2.4,3.9,4.5,6.1,6.7,7.3
		c2.1,1.1,3.4,6.2,2.3,8.9L151,175l-2.4-3.2l-2.4-3.2l-4.4-1.4l-4.4-1.4l-3.9,0.1c-4,0.1-4.6,0.2-16.9,2.2
		c-6.5,1.1-6.7,1.1-12.1,2.9c-10.2,3.4-17,4.6-20.6,3.7c-5.2-1.4-7.5-6.1-5.1-10.7c6.8-13.5,19.9-31.4,23.4-31.9
		c0.6-0.1,1.5-0.3,1.9-0.5c1.1-0.4,1.6-0.4,3,0c1.7,0.5,2.7,0.3,3.8-0.8c1.3-1.3,2.8-1.6,4.6-1.1c1.1,0.3,1.8,0.1,2.9-0.9
		c0.9-0.8,1-0.9,2.6-0.9c1.8,0,2.4-0.2,3.9-1.3c2-1.5,3.6-2.1,5.1-2.1c2.1,0,2.3-0.1,2.1-1.1c-0.3-2.1-3-5.9-4.8-6.7
		c-1.7-0.8-2.1-2.7-0.7-3.2c2-0.8,6.6,5.2,8,10.4c0.7,2.6,3.4,7.4,4.6,8.2c11.3,7.3,16.3,11.4,20,16.4l1.2,1.7l0.3,2.7
		c0.2,1.5,0.4,3.8,0.6,5.1c0.2,1.4,0.3,2.5,0.3,2.6c0,0.1-0.6,0.5-1.3,1c-2.8,1.8-5.5,4.8-5.2,5.9c0.3,1.2,0.6,1.3,4.9,1l3.8-0.2
		l1.8-1.8l1.8-1.8l0.2-2.1c0.2-1.8,0.2-2.2-0.1-2.8c-0.5-1-0.4-2.9,0.2-4.3c0.8-1.7,1.1-3.1,1.3-5.2c0.2-3.3,0.1-3.5-2.1-5.4
		c-1.5-1.2-1.9-1.7-1.9-2.2c0-0.3-0.3-2.4-0.7-4.8c-1.2-6.7-1.2-7.9,0.2-9.1c5.9-5.4,9-12.7,6.5-15.4c-0.7-0.7-0.8-3-0.2-4.5
		c0.6-1.6,0.6-2.4,0-5.4l-0.4-2.4l1.2-2.3c1.4-2.7,1.7-4.8,0.8-6.6l-0.5-0.9l1.1-1.7l1.1-1.7l-0.4-3.6c-0.8-6.5-1.9-8-3.7-5.1
		c-0.7,1.2-0.8,1.3-1.5,1.2c-0.9-0.1-0.8,0.2-1.2-3.1c-0.4-3.4-0.2-3.1-2.7-4.8l-2-1.4l-1.6,0.1c-0.9,0.1-2.1,0.2-2.6,0.3
		c-1,0.1-1,0.1-1.7-0.7c-0.8-0.9-2.2-1.4-5.7-2.1c-2.6-0.5-4.5-1.3-5.7-2.4c-0.6-0.5-1.1-0.8-1.5-0.8c-1,0-3.2-0.8-5.2-1.9
		c-2.7-1.5-2.9-1.5-4.6-1.5h-1.6l-0.4,1.5c-1.3,5.2-5.1,9.3-9.6,10.4c-1.1,0.3-3.7-0.7-5.7-2c-1-0.7-2.2-0.8-2.4-0.1
		c-0.3,0.9,0.1,1.2,1.8,1.9c7.8,3.1,13.4,0.7,17.3-7.4c0.3-0.7,0.7-1.2,0.7-1.2c0.7,0,10,2.9,10.2,3.2c0.4,0.6,0.3,1.5-0.3,2.2
		l-0.6,0.6l-2.1-0.4c-1.2-0.2-2.2-0.4-2.2-0.3c-0.2,0.2,0.4,2.5,0.6,2.6c0.3,0.2,0.3,1.4,0,2.1c-0.1,0.4-0.7,0.8-1.5,1.2
		c-2.6,1.3-4.2,3-6,6.6l-1,2l-0.2,3.1c-0.3,4.3-0.3,4,0.5,4.3c1.3,0.5,1.4,0.4,1.8-2.4l0.2-1.7l0.5,0.3c0.6,0.3,0.8,0.9,0.8,3.3
		c0,2.7,0.5,3.7,1.7,3.9c1.2,0.2,1.1,0.3,1.4-2.1c0.2-2.5,0.3-2.5,1.2-2.5l0.7,0l-0.1,2.9l-0.1,2.9l1.5,1.4c2.5,2.5,2.7,2.4,3.5-1.3
		c0.3-1.4,0.5-2.6,0.6-2.6c0.1,0,0.8,0.5,1.6,1.2c2.2,1.8,2.5,1.4,2.7-3.1l0.1-2.8l3.2,0.1l3.2,0.1l0.8,0.9c2.1,2.3,2.3,5.1,0.4,5.1
		c-0.8,0-1-0.3-1.7-2l-0.6-1.6l-1.8-0.1c-2.1-0.1-1.9-0.4-2.3,3.1c-0.5,4.8-2.3,6.2-4.1,3.2l-0.8-1.3l-0.5,3.4
		c-0.3,1.9-0.5,3.5-0.6,3.5c-0.5,0.6-2.3-0.9-4.7-3.9c-2.2-2.7-2-2.6-2.7-1.3c-0.8,1.7-1.9,1.1-3.1-1.5c-0.9-1.8-0.8-1.8-1.6-1.2
		c-0.7,0.5-0.9,0.3-1.3-1.1c-0.5-2.2-3.4-2.9-8.3-2c-6.3,1.1-14.2,0.7-22.2-1.2c-6.6-1.6-9.4-2.5-10.9-3.6c-2.7-2-6-1.5-7.7,1
		c-1.6,2.4-2.5,2.4-2.6,0.1l-0.1-1.3l-0.8-0.1c-0.9-0.1-1.4-0.7-1-1.1c0.9-0.7,1.7-0.9,2.9-0.8c1.2,0.1,1.3,0.1,1.9-0.4
		c0.6-0.5,0.9-0.5,2.3-0.6c8.7-0.1,10.4-0.5,12.7-2.9c3.8-4.1,3.4-5.9-1.8-8.7c-3.8-2-4.7-3.2-4.4-5.6c0.1-1,0.1-1-0.5-1.3
		c-0.3-0.1-1.6-1.1-2.9-2.2C83.9,61,81.1,59.9,79,61 M21.8,64.7c0.4,0,1,0,1.3,0c0.3,0,0-0.1-0.7-0.1C21.7,64.6,21.4,64.6,21.8,64.7
		 M12.2,68.3c0.5,0.6,1,1,1,1C13.3,69.3,13.2,69.1,12.2,68.3l-1-1L12.2,68.3 M78.1,69.1c0,1.2,0.1,2.4,0.7,4.7
		c0.9,3.8,1.1,3.4-2.6,6.3c-0.7,0.5-1.7,1.7-2.6,2.9c-2.3,3.4-2.7,0.3-0.4-3.3c0.2-0.3,0.9-0.8,1.5-1.3c2.6-1.7,2.6-1.8,2.1-5.2
		c-0.5-3.3-0.2-6,0.8-5.9C78.1,67.4,78.1,67.6,78.1,69.1 M87.4,72.2c1.2,1.2,0.1,3.2-1.5,2.8c-1.7-0.4-1.4-3.3,0.4-3.3
		C86.6,71.7,87.1,71.9,87.4,72.2 M213.4,75.9c0.4,0,1,0,1.4,0c0.4,0,0.1-0.1-0.7-0.1C213.3,75.8,213,75.9,213.4,75.9 M58.3,89v1.8
		l1.2,0.1c1.7,0.2,2.9,0.8,5.1,2.5c1.1,0.9,2.3,1.6,2.8,1.8c2.8,0.8,3.4,1.8,1.8,2.8c-1,0.6-1.5,0.5-3.8-0.7l-2.1-1.1l-0.6,0.5
		c-1.4,1.3,1.7,3.2,6.9,4.1c2.5,0.4,2.8,0.6,3.1,1.3c0.6,1.6-0.3,2-2.5,1.2c-1.8-0.6-2.3-0.5-2,0.3c0.1,0.3,0.6,0.6,1.8,1
		c2.1,0.7,2.6,1.1,2.6,1.7c0,1.3-0.9,1.3-3.9-0.2c-2.4-1.2-3.2-1.3-3.2-0.5c0,0.4,0.4,0.7,2.5,1.5c2,0.8,2.4,1.2,2.4,2.1
		c0,1.1-0.7,1-5-0.8c-3.1-1.3-3.8-1.4-3.8-0.9c0,0.6,1,1.2,2.9,1.8c2.7,0.9,3,2.4,0.5,2.2c-2.8-0.2-6.5-2.8-7.4-5.2
		c-3.9-10.3-4.2-12.8-1.5-17.2C57.8,86.4,58.3,86.3,58.3,89 M196.6,102.7c0.3,0.1,0.7,0.1,1,0c0.3-0.1,0-0.1-0.5-0.1
		C196.6,102.6,196.4,102.6,196.6,102.7 M204.3,103.1c0.3,0,0.8,0,1.1,0c0.3-0.1,0-0.1-0.6-0.1C204.2,103,203.9,103.1,204.3,103.1
		 M211.8,103.6c0.3,0,0.9,0,1.2,0c0.3,0,0.1-0.1-0.6-0.1C211.7,103.5,211.5,103.5,211.8,103.6 M0,106c0,0.7,0,0.9,0.1,0.6
		c0-0.3,0-0.9,0-1.2C0,105.1,0,105.4,0,106 M167.8,107.7c0.1,0.3,0.5,1.4,0.9,2.4c2.3,5.9,1.1,10.5-3.9,15.8
		c-3.1,3.3-10.3,5.5-10.3,3.1c0-0.8,0.3-1,2.3-1.2c1.9-0.3,3.1-0.7,3.1-1.2c0-0.5-0.4-0.5-4.2,0.3c-4.1,0.8-4.8,0.8-4.8,0
		c0-1,0.6-1.4,2.6-1.8c2.5-0.5,3-0.7,3-1.3c-0.1-0.7-0.8-0.7-3.3,0.1c-3.1,0.9-3.7,0.8-3.7-0.3c0-0.7,0.7-1.1,2.6-1.4
		c1.6-0.3,2.4-0.6,2.2-1.1c-0.1-0.2-0.9-0.3-3.1-0.1c-1.6,0.1-2-0.7-1-1.9l0.6-0.7h3.1c5.1,0,8.7-1.7,6.5-3.1
		c-0.2-0.1-0.9,0-2.2,0.4c-2.4,0.8-3.2,0.8-4-0.1c-1.3-1.3-0.7-2.1,1.6-2.3c1.1-0.1,1.8-0.4,4-1.4c2.7-1.3,2.7-1.3,4.5-1.3h1.9
		l0.1-1.1c0.3-2.2,0.3-2.3,1-2.3C167.6,107.1,167.7,107.2,167.8,107.7 M6,115.5c0.6,0,1.5,0,2,0c0.6,0,0.1-0.1-1-0.1
		C5.9,115.4,5.4,115.4,6,115.5 M35.2,116.8c0,0.4,0,0.6,0.1,0.4c0.1-0.2,0.1-0.5,0-0.8C35.2,116.2,35.2,116.4,35.2,116.8
		 M23.5,120.8c0.3,0.1,0.7,0,0.9,0c0.2-0.1,0-0.1-0.5-0.1C23.4,120.8,23.2,120.8,23.5,120.8 M5.8,129.3c0,0.4,0,0.6,0.1,0.4
		c0.1-0.2,0.1-0.5,0-0.8C5.8,128.7,5.8,128.9,5.8,129.3 M194.3,132.3c0.3,0.1,0.7,0,0.9,0c0.2-0.1,0-0.1-0.5-0.1
		C194.2,132.2,194,132.2,194.3,132.3 M201.9,142.8c0.4,0.4,0.8,0.8,0.8,0.8c0.1,0-0.2-0.3-0.6-0.8c-0.4-0.4-0.8-0.8-0.8-0.8
		C201.2,142.1,201.5,142.4,201.9,142.8 M69.7,146.6c-0.9,3.7-2.6,5.8-7,8.3c-3.3,1.9-3.6,4.2-0.6,4.9c2.5,0.5,6.1-2.7,7.6-6.7
		l0.7-1.9l-0.2-2.9l-0.2-2.9L69.7,146.6 M154.7,145.9c0,0.1,0.1,1.1,0.3,2.2c0.4,2.4,0.7,7.4,0.6,9l-0.1,1.2l-1.8,0.8
		c-2.2,0.9-3.5,2.1-3.1,2.8c2.1,2.9,2.7,3.1,4.8,1.2c0.5-0.4,1.4-1,2.2-1.4c2.1-1,2.2-1.2,1.6-6.7l-0.5-4.4l-1.6-1.9
		c-0.9-1.1-1.8-2.1-2-2.4C154.8,145.9,154.7,145.7,154.7,145.9 M13.2,149.8c0.4,0,1,0,1.3,0c0.3,0,0-0.1-0.7-0.1
		C13.1,149.7,12.8,149.7,13.2,149.8 M28.4,149.8c0.4,0,1,0,1.3,0c0.3,0,0-0.1-0.7-0.1C28.3,149.7,28,149.7,28.4,149.8 M188.7,152.6
		c0.7,0,1.9,0,2.7,0c0.7,0,0.1-0.1-1.3-0.1C188.6,152.5,188,152.6,188.7,152.6 M34,155c0.3,0.1,0.7,0,0.9,0c0.2-0.1,0-0.1-0.5-0.1
		C33.9,154.9,33.7,154.9,34,155 M25,155.4c0.4,0,1.1,0,1.5,0c0.4,0,0.1-0.1-0.7-0.1C25,155.3,24.6,155.4,25,155.4 M18.4,155.8
		c0.2,0.1,0.5,0.1,0.8,0c0.2-0.1,0-0.1-0.4-0.1C18.4,155.7,18.2,155.8,18.4,155.8 M15.2,160.1c0,0,0.3,0.4,0.7,0.7l0.7,0.6l-0.6-0.7
		C15.4,160.1,15.2,159.9,15.2,160.1 M43.2,163c0.3,0.1,0.7,0.1,1,0c0.3-0.1,0-0.1-0.5-0.1C43.2,162.9,43,162.9,43.2,163 M43.6,166
		c0.3,0,0.8,0,1.1,0c0.3-0.1,0-0.1-0.6-0.1C43.4,165.9,43.2,165.9,43.6,166 M169,168.2l-0.7,0.8L169,168.2c0.8-0.6,1-0.8,0.8-0.8
		C169.8,167.4,169.4,167.7,169,168.2 M138.9,168.8c-0.1,0.2-0.3,1.5-0.6,2.9c-0.6,3.6-1.6,5-3.1,4.6c-0.5-0.1-0.6-0.2-0.4-0.8
		c0.5-2.6,0.8-5.2,0.6-6l-0.1-1h1.9C138.8,168.4,139,168.5,138.9,168.8 M54.3,175.8l-0.8,0.9L54.3,175.8c0.9-0.7,1.1-0.9,0.9-0.9
		C55.2,174.9,54.8,175.3,54.3,175.8 M167.9,178.5c0.3,0.1,0.7,0.1,1,0c0.3-0.1,0-0.1-0.5-0.1C167.8,178.4,167.6,178.5,167.9,178.5
		 M60.8,183.6l-1.1,1.1L60.8,183.6c0.7-0.5,1.2-1,1.2-1.1C62,182.4,61.8,182.6,60.8,183.6 M164.9,183.5c0.3,0.1,0.7,0.1,1,0
		c0.3-0.1,0-0.1-0.5-0.1C164.8,183.4,164.6,183.4,164.9,183.5 M186.3,186.8c0.5,0.5,0.9,0.9,0.9,0.9c0.1,0-0.3-0.4-0.7-0.9
		c-0.5-0.5-0.9-0.9-0.9-0.9S185.8,186.3,186.3,186.8 M108.4,191.3c0.2,0.1,0.5,0.1,0.8,0c0.2-0.1,0-0.1-0.4-0.1
		C108.3,191.2,108.1,191.2,108.4,191.3 M118,191.3c0.2,0.1,0.5,0.1,0.8,0c0.2-0.1,0-0.1-0.4-0.1C118,191.2,117.8,191.2,118,191.3
		 M85.5,192.8c0.3,0.1,0.7,0.1,1,0c0.3-0.1,0-0.1-0.5-0.1C85.5,192.7,85.2,192.7,85.5,192.8 M91.5,198c0.3,0.1,0.7,0,0.9,0
		c0.2-0.1,0-0.1-0.5-0.1C91.4,197.9,91.2,197.9,91.5,198 M46,198.9l-0.8,0.9L46,198.9c0.9-0.7,1.1-0.9,0.9-0.9
		C46.8,198,46.4,198.4,46,198.9 M85.9,198.4c0.3,0.1,0.7,0,0.9,0c0.2-0.1,0-0.1-0.5-0.1C85.8,198.3,85.7,198.3,85.9,198.4
		 M174.4,199.3c0.3,0,0.8,0,1.1,0c0.3-0.1,0-0.1-0.6-0.1C174.3,199.2,174.1,199.2,174.4,199.3 M93.3,218.7c0.3,0,0.9,0,1.2,0
		c0.3,0,0.1-0.1-0.6-0.1C93.3,218.6,93,218.7,93.3,218.7 M131,218.7c0.4,0,1.1,0,1.5,0c0.4,0,0.1-0.1-0.7-0.1
		C131,218.6,130.6,218.7,131,218.7"/>
	<path id="path1" class="st1" d="M99.4,0.5c-0.1,0.1-1.1,0.2-2.2,0.3C91,1.4,91.5,1.2,90.6,4c-1.8,5.7-1.8,9.8-0.1,14.8
		c0.8,2.4,2.9,6.7,3.7,7.4c0.1,0.1,0.3,0.4,0.6,0.9c0.6,0.8,0.6,0.9,1.4,1.9c0.6,0.7,0.6,0.7,2,0.6c2.6-0.2,3.8-0.4,4.2-0.6
		c0.2-0.1,0.8-0.2,1.2-0.3c2.1-0.3,2-0.3,3-2.3c3.1-6.3,3.5-12.3,1.3-19c-0.5-1.5-2.7-5.9-3.1-6.4c-0.2-0.2-0.3-0.4-0.3-0.5
		C104.4,0.4,99.7,0.3,99.4,0.5 M117.4,1.1c-1.6,2-3.5,6.8-4,9.6c-0.9,5.6,0.9,15.1,3.1,16.7l1,0.7L120,28c1.3-0.1,2.7-0.2,3.2-0.3
		c0.7-0.1,0.8-0.1,1.1,0.6c0.4,1,1,1.5,2,1.5c0.4,0,0.9,0.1,0.9,0.2c0.1,0.1,0.4,0.2,0.8,0.2c0.4,0,0.8,0.1,1,0.2
		c0.9,0.5,1.4-0.2,1.7-1.9c0.1-0.9,0.4-2.4,0.6-3.3c0.2-0.9,0.4-2,0.5-2.5c0.1-0.5,0.4-1.8,0.8-2.9c1.2-4.1,1.2-4.1,0.9-4.6
		c-0.3-0.7-0.6-0.8-2.5-1c-0.9-0.1-2.3-0.3-3.2-0.4c-0.9-0.1-1.8-0.3-2.1-0.3c-0.7-0.2-1.6,0.8-1.6,1.7c0,0.9,0.4,1.4,1.2,1.4
		c0.4,0,1,0.1,1.4,0.1l0.7,0.1l-0.1,1.2c-0.6,6.1-1.1,7.9-2.2,7.7c-0.4-0.1-1.1-0.2-1.5-0.3c-0.4-0.1-1-0.3-1.2-0.6
		c-0.2-0.3-0.6-0.7-0.8-0.9c-0.2-0.3-0.5-0.7-0.7-1c-0.1-0.3-0.3-0.6-0.4-0.6c-0.5-0.4-1.4-3.2-1.7-5.3c-0.2-1.6-0.1-3.1,0.5-5.6
		c0.3-1.3,1.8-4.7,2.3-5.2c0.1-0.1,0.3-0.5,0.4-0.7c0.1-0.2,0.2-0.4,0.3-0.4c0.1,0,0.2-0.2,0.3-0.4c0.4-1.2,1.7-1.6,2.4-0.8
		c0.4,0.5,0.7,1,2,4l0.7,1.6h2.7c2.8,0,3.7-0.3,3.3-1.3c-0.5-1.2-1.4-4-1.6-5c-0.6-2.8-0.6-2.8-8.4-2.8H118L117.4,1.1 M99.8,4.3
		c0.3,0.5,0.6,1,0.6,1.1s0.1,0.2,0.2,0.3c0.4,0.2,2,4.3,2.3,5.8c0.8,4.1,0.6,7.6-0.7,12.2c-0.2,0.8-0.4,1.6-0.4,1.7
		c0,0.1-0.2,0.4-0.4,0.6c-0.5,0.5-2.2,0-2.2-0.6c0-0.2-0.1-0.4-0.2-0.4c-0.2-0.1-1.1-1.9-1.9-3.7C94.4,15.2,93.9,7,96,4.2
		C96.8,3,99,3.1,99.8,4.3 M142.3,4.7c-0.2,0.3-0.4,1.2-0.6,2.1c-0.6,3.9-1.6,8.4-3,13.7c-0.5,1.9-1,3.8-1.1,4.3
		c-0.2,0.9-0.5,2.1-0.9,3.5c-0.5,2-0.5,2.6,0,2.7c0.2,0.1,0.5,0.2,0.5,0.3c0,0.1,0.4,0.2,1,0.2c0.5,0,1.1,0.1,1.3,0.2
		c1.6,0.8,2,0.8,2-0.1c0-0.7,0-0.7,1.7-6.1c0.7-2.3,1.5-4.6,1.7-5c0.2-0.4,0.4-0.9,0.4-1.1c0-0.2,0.1-0.4,0.2-0.5
		c0.1-0.1,0.4-0.8,0.7-1.6c0.3-0.8,0.6-1.8,0.8-2.3c0.2-0.5,0.5-1.3,0.7-1.8c0.2-0.5,0.4-1.1,0.5-1.2c0.1-0.1,0.2-0.4,0.2-0.6
		c0-0.2,0.1-0.6,0.2-0.8c0.4-0.8,1.1-3.4,1.1-4.2V5.6l-1,0c-1,0-2.9-0.4-3.2-0.7c-0.1-0.1-0.3-0.2-0.5-0.2c-0.2,0-0.4-0.1-0.4-0.2
		C144.6,4,142.7,4.2,142.3,4.7 M77.9,5.4c-0.9,0.3-1.6,0.6-2.1,0.8c-0.2,0.1-0.6,0.2-0.8,0.2c-0.2,0-0.4,0.1-0.4,0.2
		c0,0.1-0.1,0.2-0.3,0.2c-0.2,0-0.5,0.1-0.7,0.2c-0.2,0.1-0.9,0.4-1.5,0.7c-1.4,0.6-1.4,0.4,0.2,3.9c0.8,1.6,1.6,3.4,1.8,4
		c0.9,2.1,1.3,3,1.7,3.8c0.2,0.4,0.6,1.2,0.8,1.8c0.3,0.6,0.5,1.1,0.5,1.2c0,0.1,0.3,0.8,0.6,1.5c0.4,0.7,0.6,1.4,0.6,1.5
		c0,0.2,1.6,3.6,2.7,6l0.6,1.2l1.2,0.1c0.6,0,1.4,0,1.6-0.1c0.2-0.1,0.8-0.3,1.2-0.3c0.7-0.1,1.5-0.3,4.1-0.8c0.6-0.1,1.5-0.3,2-0.3
		c1.3-0.2,1.6-1.2,0.8-2.7c-0.3-0.5-0.7-1.3-0.9-1.6c-0.3-0.6-1.1-0.8-1.1-0.4c0,0.4-1.3,1.5-1.7,1.5c-0.2,0-0.4,0.1-0.5,0.2
		c-0.1,0.1-0.4,0.2-0.8,0.2c-0.3,0-0.6,0.1-0.6,0.2c0,1-1.6-2.2-2.6-5c-0.3-0.8-0.6-1.5-0.7-1.6c-0.1-0.1-0.2-0.4-0.2-0.7
		c0-0.3-0.1-0.5-0.2-0.6c-0.1-0.1-0.2-0.3-0.2-0.5c0-0.2-0.3-1.3-0.6-2.5c-0.4-1.2-0.9-3.1-1.3-4.3c-0.9-2.9-2.6-8.4-2.6-8.3
		C78.6,5.2,78.3,5.3,77.9,5.4 M156.2,13.3c-3,3.1-4.1,4.6-5.6,7.6c-1.8,3.6-2.1,7.9-0.9,10.9c0.7,1.8,1.9,4.1,2,4.1
		c0.1,0,0.2,0.1,0.2,0.3s0.2,0.6,0.5,0.9c0.3,0.3,0.5,0.7,0.5,0.8c0,0.1,0.2,0.2,0.4,0.2c0.2,0,0.5,0.1,0.6,0.2
		c0.1,0.1,0.6,0.2,1.1,0.1c1.9-0.3,2.4-0.4,2.6-0.6c0.1-0.1,0.5-0.2,0.9-0.2c1,0,1-0.5-0.3-2.1c-0.6-0.7-1.2-1.6-1.3-2
		c-0.2-0.4-0.4-0.7-0.5-0.7c-0.1,0-0.2-0.1-0.2-0.3c0-0.2-0.2-0.7-0.5-1.2c-0.7-1.4-0.4-6,0.5-7.9c0.2-0.4,0.4-0.8,0.4-1
		s0.1-0.3,0.2-0.3c0.1,0,0.4-0.5,0.7-1.1c0.3-0.6,0.6-1.1,0.6-1.1c0.1,0,0.4-0.4,0.7-0.8c1.2-1.8,3.1-3.3,3.9-3.1
		c1.1,0.2,1.1,0.3,0.3,3.4c-0.4,1.4-0.5,3.2-0.2,3.4c0.1,0.1,0.2,0.4,0.2,0.5c0,0.5,0.6,0.9,1.5,0.9c0.5,0,0.9,0.1,1,0.2
		c0.1,0.1,0.3,0.2,0.6,0.2c0.3,0,0.6,0.1,0.7,0.2c0.5,0.5,1.4,0.1,1.6-0.7c0.4-1.8,0.6-2.4,0.8-3.3c0.7-2.5,0.4-3.5-1.9-5
		c-1.3-0.9-2.5-2-2.5-2.3c0-0.1-0.3-0.2-0.6-0.2c-0.3,0-0.7-0.1-0.8-0.2c-0.1-0.1-0.3-0.2-0.5-0.2c-0.2,0-0.4-0.1-0.4-0.2
		c0-0.1-0.3-0.3-0.8-0.5c-0.4-0.2-0.8-0.4-0.8-0.5c0-0.1-0.3-0.2-0.6-0.2c-0.3,0-0.7-0.1-0.8-0.2C159.2,10.6,158.2,11.2,156.2,13.3
		 M60.5,12.3c0,0.1-0.2,0.2-0.4,0.2c-0.2,0-0.4,0.1-0.4,0.2c0,0.1-0.5,0.4-1.2,0.7c-0.6,0.3-1.2,0.6-1.2,0.7c0,0.1-0.3,0.3-0.8,0.4
		s-0.8,0.4-0.8,0.5s-0.1,0.2-0.3,0.2c-0.2,0-0.5,0.2-0.7,0.4c-0.2,0.2-0.7,0.5-1,0.7c-0.3,0.2-0.6,0.4-0.6,0.5
		c0,0.1-0.1,0.2-0.3,0.2c-0.2,0-0.8,0.4-2.2,1.6c-0.8,0.7,0,7,1.4,10.8c0.5,1.2,1.6,3.6,1.8,3.6c0.1,0,0.2,0.1,0.2,0.2
		c0,0.9,5,6.2,5.8,6.2c0.1,0,0.2,0.1,0.2,0.2c0,0.1,0.1,0.2,0.3,0.2c0.2,0,0.3,0.1,0.3,0.2c0,0.1,0.3,0.3,0.7,0.5
		c0.4,0.2,0.7,0.4,0.8,0.4c0.2,0.3,1.1,0.7,1.4,0.7c0.2,0,0.3,0.1,0.3,0.2s0.2,0.2,0.4,0.2c0.2,0,0.5,0.1,0.5,0.2
		c0.1,0.1,0.4,0.2,0.6,0.2c0.3,0,0.6,0.1,0.6,0.2c0.1,0.2,0.9-0.1,1.2-0.4c0.1-0.1,0.4-0.3,0.8-0.4c0.4-0.2,0.7-0.4,0.7-0.5
		c0-0.1,0.1-0.2,0.3-0.2c0.2,0,0.3-0.1,0.3-0.2c0-0.1,0.1-0.2,0.3-0.2c0.2,0,0.3-0.1,0.3-0.2c0-0.1,0.1-0.2,0.3-0.2
		c0.2,0,0.3-0.1,0.3-0.2c0-0.1,0.3-0.3,0.6-0.5c0.3-0.2,0.8-0.5,1.1-0.8c0.3-0.2,0.7-0.6,1-0.8c1.3-1,0.6-9.1-1-13
		c-1-2.4-1.7-3.8-1.9-3.8c-0.1,0-0.3-0.3-0.4-0.6c-0.1-0.4-0.3-0.6-0.4-0.6c-0.1,0-0.2-0.2-0.3-0.4c-0.2-0.5-4-4.5-5-5.2
		c-0.4-0.3-0.9-0.7-1.2-0.9c-0.2-0.2-0.7-0.5-1-0.7c-0.3-0.1-0.6-0.3-0.6-0.4c0-0.1-0.2-0.2-0.5-0.2C60.7,12,60.5,12.1,60.5,12.3
		 M59,18.8c0.3,0.1,0.7,0.4,0.9,0.6s0.5,0.4,0.6,0.4c0.8,0,4.8,4.8,5.9,7.1c0.9,1.9,2.6,7.5,2.6,8.6c0,1.5-1.9,1.8-3.4,0.4
		c-0.1-0.1-0.7-0.6-1.2-1c-1.8-1.4-4.6-4.4-5.1-5.4c-0.1-0.3-0.3-0.6-0.4-0.6c-0.9-0.6-2.7-6.6-2.8-9.1C56.1,18.8,57.9,18.2,59,18.8
		 M176.5,20c0,0.1-0.1,0.2-0.3,0.2c-0.2,0-0.3,0.1-0.3,0.2c0,0.1-0.1,0.2-0.3,0.2c-0.2,0-0.5,0.2-0.7,0.4c-0.2,0.2-0.7,0.5-1,0.7
		c-0.7,0.4-0.8,1.3-0.2,1.4c0.2,0.1,0.6,0.2,0.9,0.3c0.3,0.1,0.8,0.3,1.1,0.4c0.3,0.1,0.8,0.4,1.1,0.5c0.3,0.2,0.7,0.4,0.9,0.4
		c0.2,0.1,0.4,0.2,0.4,0.3c0,0.1,0.1,0.2,0.2,0.2c0.9,0,2.3,1.6,1.6,1.8c-0.5,0.2-1.6,0.9-1.7,1.1c0,0.1-0.2,0.2-0.3,0.2
		s-0.8,0.4-1.5,0.9c-0.7,0.5-1.4,0.9-1.5,0.9c-0.1,0-0.2,0.1-0.2,0.2c0,0.1-0.1,0.2-0.3,0.2c-0.2,0-0.5,0.2-0.7,0.4
		c-0.3,0.2-0.5,0.4-0.6,0.4c-0.1,0-0.7,0.4-1.4,0.9c-0.7,0.5-1.4,0.9-1.5,0.9s-0.2,0.1-0.2,0.2s-0.1,0.2-0.3,0.2
		c-0.2,0-0.3,0.1-0.3,0.2c0,0.1-0.1,0.2-0.3,0.2s-0.3,0.1-0.3,0.2c0,0.1-0.2,0.2-0.4,0.3c-0.4,0.1-1.6,0.8-1.8,1
		c-0.1,0.1-0.6,0.4-1.2,0.6c-0.6,0.3-1.1,0.6-1.2,0.6c-0.1,0.1-2,1-2.8,1.3c-0.3,0.1-0.7,0.3-0.9,0.4c-0.2,0.1-0.7,0.2-1,0.2
		c-1.6,0-0.7,1.6,1.9,3.5c0.4,0.3,1,0.7,1.2,1c0.2,0.2,0.8,0.7,1.2,1c0.4,0.3,1.9,1.7,3.4,3.2c2.5,2.5,2.7,2.6,3.5,2.6
		c1.8,0,4-2.9,2.9-4c-0.4-0.4-1.8-1.2-2.2-1.2c-0.2,0-0.3-0.1-0.3-0.2c0-0.1-0.2-0.2-0.4-0.2c-0.2,0-0.6-0.1-0.8-0.2
		c-0.2-0.1-0.8-0.4-1.4-0.7c-1.7-0.8-1.9-1.8-0.5-2.4c0.4-0.2,0.8-0.4,0.8-0.4c0-0.1,0.2-0.2,0.4-0.3c0.4-0.1,1.6-0.8,1.8-1
		c0.1-0.1,0.5-0.3,1.1-0.6c0.5-0.3,1.4-0.7,1.8-1c0.5-0.3,0.9-0.5,1-0.6c0.1-0.1,0.4-0.3,0.8-0.4c0.4-0.2,0.7-0.4,0.8-0.4
		c0.1-0.1,0.6-0.4,1.2-0.6c0.6-0.3,1.1-0.6,1.1-0.7c0-0.1,0.3-0.2,0.5-0.2c0.2,0,0.4-0.1,0.4-0.2s0.2-0.2,0.4-0.2
		c0.2,0,0.4-0.1,0.4-0.2c0-0.1,0.2-0.2,0.4-0.2c0.2,0,0.4-0.1,0.4-0.2c0-0.1,0.2-0.2,0.4-0.2c0.2,0,0.4-0.1,0.4-0.2s0.1-0.2,0.3-0.2
		c0.2,0,0.7-0.2,1.1-0.4c1-0.5,2.7-1.3,3.5-1.6c1.4-0.6,1.5-0.7,1.5-1.4c0-0.5-0.2-0.8-0.5-1c-0.3-0.2-0.8-0.6-1.1-0.9
		c-0.4-0.3-1-0.8-1.4-1.2c-0.4-0.3-1-0.8-1.2-1c-0.3-0.3-0.8-0.7-1.3-1.1c-0.4-0.3-1-0.8-1.3-1c-0.2-0.2-0.8-0.7-1.2-1
		c-0.4-0.3-1-0.8-1.3-1.1C177.4,20,176.5,19.5,176.5,20 M39.3,28.3c-1.6,1.6-1.3,3,0.8,4.6c0.4,0.3,1,0.8,1.3,1.1
		c0.3,0.3,0.9,0.8,1.3,1.1c0.4,0.3,1,0.8,1.3,1.1c0.3,0.3,0.9,0.8,1.3,1.1c0.4,0.3,1,0.8,1.3,1.1c0.3,0.3,0.9,0.8,1.3,1.1
		c0.4,0.3,1,0.8,1.4,1.2c0.7,0.7,1.5,1.2,1.8,1.2c0.5,0,0.9,0.7,0.8,1.3c-0.1,0.8-1.2,1.1-1.7,0.6c-0.1-0.1-0.5-0.2-0.8-0.2
		c-0.3,0-0.8-0.1-1-0.2c-1.7-0.8-2.3-1.1-2.6-1.1c-0.2,0-0.4-0.1-0.4-0.2c0-0.1-0.2-0.2-0.5-0.2s-0.6-0.1-0.7-0.2
		c-0.1-0.1-0.4-0.2-0.6-0.2c-0.3,0-0.6-0.1-0.6-0.2c-0.1-0.1-0.4-0.2-0.6-0.2c-0.3,0-0.6-0.1-0.6-0.2c-0.1-0.1-0.4-0.2-0.6-0.2
		c-0.3,0-0.6-0.1-0.6-0.2c-0.1-0.1-0.4-0.2-0.6-0.2c-0.3,0-0.6-0.1-0.6-0.2c-0.1-0.1-0.4-0.2-0.6-0.2c-0.3,0-0.6-0.1-0.6-0.2
		c-0.1-0.1-0.4-0.2-0.6-0.2c-0.3,0-0.6-0.1-0.6-0.2c-0.1-0.1-0.3-0.2-0.6-0.2c-0.2,0-0.6-0.1-0.8-0.2c-0.2-0.1-0.6-0.3-0.9-0.4
		c-0.3-0.1-1-0.4-1.5-0.7c-1.6-0.8-2.7-0.6-3.9,0.6c-0.6,0.6-1.2,1.1-1.4,1.2c-1,0.6-0.1,1.9,3.7,5.2c0.7,0.6,1.6,1.4,2,1.9
		c0.4,0.4,1.2,1.1,1.7,1.5c0.5,0.4,1.2,1,1.5,1.3c0.3,0.3,1,0.9,1.5,1.3c0.5,0.4,1.1,0.9,1.3,1.1c0.3,0.2,1,0.9,1.6,1.4
		c0.6,0.5,1.4,1.2,1.7,1.4c0.3,0.3,0.8,0.7,1.3,1.1c0.4,0.3,1,0.8,1.3,1c3,2.9,3.9,3.1,5.4,1.3c0.6-0.8-1.5-3.3-4.7-5.5
		c-0.3-0.2-0.7-0.5-0.9-0.8c-0.4-0.4-1-0.9-3-2.6c-2-1.7-2.3-2.1-1.9-2.7c0.2-0.3,0.4-0.3,2.8,0.2c0.6,0.1,1.6,0.3,2.3,0.5
		c0.6,0.1,1.5,0.3,1.9,0.3s0.9,0.2,1.2,0.3c0.2,0.1,0.8,0.2,1.2,0.3s1.2,0.2,1.8,0.3c2.5,0.5,3.5,0.7,4.3,0.8
		c0.5,0.1,0.9,0.2,1.1,0.3c0.1,0.1,0.6,0.2,1.1,0.2c0.5,0,1,0.1,1,0.2c0.1,0.2,0.9-0.1,1.2-0.5c0.2-0.3,0-1.6-0.3-1.9
		c-0.5-0.6-2.3-2.7-3.2-3.6c-0.5-0.6-1.6-1.7-2.4-2.6c-0.8-0.9-1.8-2-2.4-2.6c-0.5-0.6-1.4-1.5-1.9-2.1c-0.5-0.6-1.5-1.7-2.1-2.4
		c-0.7-0.7-1.9-2-2.6-2.9C41.3,27.3,40.6,26.9,39.3,28.3 M190.9,33.5c-0.2,0.2-0.4,0.6-0.4,1c0,0.6-1.1,3.2-1.5,3.5
		c-0.1,0.1-0.4,0.4-0.7,0.9c-0.6,0.9-5.5,5.8-6.8,6.9c-0.5,0.4-1.2,1-1.5,1.3c-0.3,0.3-0.9,0.8-1.3,1.1c-0.4,0.3-0.9,0.7-1.2,1
		c-0.2,0.2-0.8,0.7-1.2,1c-0.4,0.3-1,0.8-1.2,1c-0.3,0.2-0.7,0.6-0.9,0.8c-0.5,0.4-0.6,2.2-0.2,2.6c0.6,0.6,1.3,0.8,1.5,0.6
		c0.1-0.1,0.4-0.2,0.6-0.2s1.7-1.4,3.5-3.1c10.3-10.1,11.3-10.7,8.3-4.5c-0.6,1.3-1.3,2.7-1.4,3.3c-0.2,0.5-0.5,1.4-0.7,1.9
		c-0.2,0.5-0.4,1-0.4,1.2c0,0.2-0.1,0.4-0.2,0.5c-0.1,0.1-0.4,0.8-0.7,1.6c-0.3,0.8-0.7,1.8-0.9,2.3c-0.2,0.5-0.4,1-0.4,1.1
		c0,0.1-0.2,0.6-0.4,1.1c-1.1,2.4-1,4.4,0.2,5.1c0.4,0.2,0.6,0.2,0.6,0.1c0-0.1,0.1-0.2,0.3-0.2c0.2,0,0.3-0.1,0.3-0.2
		s0.4-0.4,0.9-0.7c0.5-0.3,0.9-0.6,0.9-0.7c0-0.1,0.1-0.2,0.3-0.2c0.2,0,0.3-0.1,0.3-0.2c0-0.1,0.4-0.4,0.9-0.7
		c0.5-0.3,0.9-0.6,0.9-0.6c0-0.1,0.4-0.4,0.9-0.6c0.5-0.3,0.9-0.6,0.9-0.7c0-0.1,0.1-0.2,0.3-0.2c0.2,0,0.3-0.1,0.3-0.2
		s0.1-0.2,0.3-0.2c0.2,0,0.3-0.1,0.3-0.2c0-0.1,0.4-0.4,0.9-0.7c0.5-0.3,0.9-0.6,0.9-0.7c0-0.1,0.1-0.2,0.3-0.2
		c0.2,0,0.3-0.1,0.3-0.2c0-0.1,0.1-0.2,0.3-0.2c0.2,0,0.3-0.1,0.3-0.2c0-0.1,0.1-0.2,0.3-0.2c0.2,0,0.3-0.1,0.4-0.2
		c0.1-0.2,5.3-3.7,5.5-3.7c0.1,0,0.2-0.1,0.2-0.2s0.1-0.2,0.3-0.2c0.2,0,0.3-0.1,0.3-0.2c0-0.1,0.1-0.2,0.3-0.2
		c0.2,0,0.3-0.1,0.3-0.2c0-0.1,0.2-0.2,0.4-0.3c3-0.9,3.1-2.5,0.6-5.2c-1.6-1.7-1.3-1.8-7.2,4.6c-3.9,4.2-4.2,4.5-4.8,4.5
		c-0.8,0-0.7-0.6,0.1-2.3c0.4-0.7,0.6-1.5,0.6-1.7c0-0.2,0.1-0.4,0.2-0.4c0.1,0,0.2-0.1,0.2-0.3c0-0.3,2.6-5.6,2.8-5.8
		c0.2-0.2,2.1-4,2.4-4.9c0.5-1.4,0.5-1.4-2.9-4.9c-1.3-1.3-2.3-2.5-2.3-2.6C192.2,33.1,191.3,33.2,190.9,33.5 M107.8,33.8
		c-0.1,0.1-1.1,0.2-2.4,0.3c-3,0.2-5.8,0.7-8.4,1.3c-0.6,0.1-1.4,0.3-1.9,0.4c-0.4,0.1-0.9,0.2-0.9,0.3c-0.1,0.1-0.4,0.2-0.7,0.2
		c-0.3,0-0.7,0.1-0.8,0.2c-0.1,0.1-0.4,0.2-0.8,0.2c-0.3,0-0.7,0.1-0.8,0.2c-0.1,0.1-0.4,0.2-0.8,0.2c-0.3,0-0.7,0.1-0.8,0.2
		c-0.1,0.1-0.4,0.2-0.6,0.2c-0.3,0-0.6,0.1-0.6,0.2c-0.1,0.1-0.3,0.2-0.6,0.2c-0.2,0-0.6,0.1-0.8,0.2c-0.2,0.1-0.6,0.3-1,0.4
		c-0.3,0.1-0.9,0.4-1.2,0.5c-0.6,0.2-1,0.4-2,0.8c-0.3,0.1-0.9,0.4-1.4,0.6C81,40.8,80.4,41,80.3,41c-0.2,0-0.3,0.1-0.3,0.2
		c0,0.1-0.1,0.2-0.3,0.2c-0.3,0-1.1,0.4-1.4,0.7c-0.1,0.1-0.8,0.4-1.6,0.9c-0.8,0.4-1.6,0.8-1.6,0.9c-0.1,0.1-0.4,0.3-0.8,0.4
		c-0.4,0.2-0.7,0.4-0.7,0.5c0,0.1-0.1,0.2-0.3,0.2c-0.2,0-0.3,0.1-0.3,0.2s-0.1,0.2-0.2,0.2c-0.1,0-0.8,0.4-1.5,0.9
		c-0.7,0.5-1.4,0.9-1.5,0.9c-0.1,0-0.2,0.1-0.2,0.2s-0.4,0.4-0.9,0.7c-0.5,0.3-0.9,0.6-0.9,0.7c0,0.1-0.1,0.2-0.2,0.2
		c-0.2,0-0.7,0.3-1.4,1c-0.1,0.1-0.6,0.5-1,0.7c-0.4,0.3-0.9,0.6-1,0.7c-0.1,0.1-0.7,0.7-1.4,1.2c-0.6,0.5-1.6,1.4-2.2,1.9
		c-0.6,0.5-1.4,1.3-1.8,1.8c-1.1,1-4.6,4.8-5.3,5.7c-0.3,0.4-0.5,0.7-0.6,0.8c-0.1,0.1-0.5,0.5-0.9,1.1c-0.4,0.5-0.8,1-0.9,1.1
		c-0.1,0.1-0.6,0.7-1.1,1.5c-0.5,0.8-1.1,1.6-1.3,1.8c-0.2,0.2-0.4,0.5-0.4,0.7s-0.1,0.3-0.2,0.3c-0.1,0-0.3,0.3-0.5,0.6
		c-0.1,0.4-0.3,0.6-0.4,0.6c-0.1,0-0.4,0.5-0.7,1c-0.3,0.6-0.6,1.1-0.7,1.1c-0.1,0.1-0.7,1.1-1.3,2.4c-0.6,1.2-1.2,2.3-1.3,2.3
		c-0.1,0-0.2,0.3-0.2,0.5c0,0.2-0.1,0.4-0.2,0.4c-0.1,0-0.2,0.1-0.2,0.3c0,0.2-0.3,1-0.8,1.8c-0.9,1.9-1.3,3-2.8,7.5
		c-1.1,3.2-1.3,3.9-1.8,6.1c-0.6,2.4-1.2,5.6-1.8,9.9c-0.4,2.7-0.4,14.7,0,17.2c1.3,8.8,1.8,10.7,3.5,16.2c0.4,1.1,0.7,2.1,0.8,2.3
		c0.1,0.1,0.2,0.3,0.2,0.5c0,0.2,0.2,0.7,0.4,1.2c0.2,0.5,0.4,1,0.4,1.1c0,1,5.7,11.9,7.4,14.1c0.1,0.1,0.6,0.8,1.1,1.6
		s1.1,1.5,1.2,1.7c0.2,0.2,0.3,0.4,0.3,0.4c0,0.1,0.2,0.4,0.5,0.7c0.3,0.3,0.7,0.8,1,1.2c1.8,2.3,7.5,8.2,9.9,10.3
		c0.6,0.5,1.3,1.1,1.4,1.2c0.2,0.1,0.3,0.3,0.4,0.3c0.1,0,0.3,0.2,0.5,0.4c0.2,0.2,0.7,0.6,1.1,0.9c0.4,0.3,0.8,0.6,0.9,0.7
		c0.1,0.1,0.6,0.5,1.2,0.9c0.6,0.4,1.1,0.8,1.1,0.9c0,0.1,0.2,0.2,0.4,0.2c0.2,0,0.3,0.1,0.3,0.2c0,0.1,0.1,0.2,0.3,0.2
		c0.2,0,0.3,0.1,0.3,0.2c0,0.1,0.1,0.2,0.2,0.2c0.1,0,0.6,0.3,1.1,0.6c0.5,0.3,1.2,0.8,1.7,1.1c0.4,0.2,1,0.6,1.3,0.7
		c0.3,0.2,0.6,0.3,0.6,0.4c0.2,0.2,5.5,2.8,5.7,2.8c0.1,0,0.3,0.1,0.3,0.2s0.1,0.2,0.3,0.2s0.5,0.1,0.7,0.2c0.2,0.1,0.6,0.3,1,0.4
		c0.3,0.1,0.9,0.4,1.2,0.5c0.3,0.1,0.8,0.3,1.1,0.5c0.3,0.1,0.7,0.3,0.9,0.4c0.2,0.1,0.6,0.2,0.8,0.2c0.2,0,0.5,0.1,0.6,0.2
		c0.1,0.1,0.4,0.2,0.6,0.2s0.6,0.1,0.6,0.2c0.1,0.1,0.4,0.2,0.6,0.2c0.3,0,0.6,0.1,0.6,0.2c0.1,0.1,0.4,0.2,0.8,0.2
		c0.3,0,0.7,0.1,0.8,0.2s0.4,0.2,0.8,0.2c0.3,0,0.7,0.1,0.7,0.2c0.1,0.1,0.5,0.2,0.9,0.3c1.5,0.2,2.3,0.4,2.7,0.6
		c0.2,0.1,0.8,0.2,1.3,0.3c0.5,0.1,1.4,0.2,2.1,0.3c6.9,1.2,19.1,1.2,25.7,0c0.7-0.1,1.7-0.3,2.3-0.4c0.5-0.1,1.1-0.2,1.2-0.3
		c0.1-0.1,0.6-0.2,1-0.2c0.4,0,0.9-0.1,0.9-0.2c0.1-0.1,0.5-0.2,0.9-0.2c0.4,0,0.8-0.1,0.9-0.2c0.1-0.1,0.4-0.2,0.8-0.2
		c0.3,0,0.7-0.1,0.8-0.2c0.1-0.1,0.4-0.2,0.7-0.2s0.7-0.1,0.9-0.2c0.2-0.1,0.8-0.3,1.3-0.5c0.5-0.2,1.1-0.4,1.2-0.5
		c0.1-0.1,0.4-0.2,0.7-0.2s0.5-0.1,0.6-0.2c0.1-0.1,0.4-0.2,0.7-0.2c0.3,0,0.5-0.1,0.5-0.2c0-0.1,0.2-0.2,0.4-0.2
		c0.2,0,0.6-0.1,0.8-0.2c0.2-0.1,0.9-0.4,1.4-0.7c0.6-0.3,1.4-0.7,1.9-0.9c0.5-0.2,1-0.4,1.1-0.4c0.2,0,0.3-0.1,0.3-0.2
		s0.2-0.2,0.4-0.2s0.4-0.1,0.5-0.2c0-0.1,0.8-0.5,1.7-1c1.6-0.8,2.8-1.5,3-1.7c0.2-0.2,1.4-0.9,1.8-1c0.2-0.1,0.4-0.2,0.4-0.3
		c0-0.1,0.1-0.2,0.3-0.2c0.2,0,0.3-0.1,0.3-0.2c0-0.1,0.1-0.2,0.3-0.2c0.2,0,0.3-0.1,0.3-0.2c0-0.1,0.1-0.2,0.3-0.2
		c0.2,0,0.5-0.2,0.7-0.4c0.3-0.2,0.6-0.4,0.7-0.4c0.1,0,0.2-0.1,0.2-0.2c0-0.1,0.1-0.2,0.3-0.2c0.2,0,0.3-0.1,0.3-0.2
		c0-0.1,0.3-0.3,0.6-0.5c0.4-0.2,0.8-0.5,0.9-0.6c0.2-0.1,0.6-0.5,1-0.8c0.4-0.3,1-0.8,1.2-1c0.3-0.2,0.9-0.7,1.4-1.1
		c0.5-0.4,1.3-1.1,1.7-1.5c0.4-0.4,1.4-1.3,2.1-2c1.7-1.6,4-4.1,5.2-5.6c0.5-0.7,1-1.2,1.1-1.3c0.1-0.1,0.4-0.5,0.9-1.1
		c0.4-0.5,0.8-1.1,0.9-1.2c0.1-0.1,0.5-0.8,1-1.4c0.5-0.7,0.9-1.3,1-1.4c0.1-0.1,0.3-0.5,0.5-0.8c0.2-0.3,0.3-0.6,0.4-0.6
		c0.2-0.2,2.4-3.9,2.4-4.1c0-0.1,0.1-0.2,0.2-0.3c0.3-0.1,3.7-7,3.7-7.4c0-0.2,0.1-0.3,0.2-0.3c0.1,0,0.3-0.3,0.4-0.7
		c1.1-3,1.3-3.6,1.4-3.8c0.1-0.1,0.1-0.4,0.1-0.6c0-0.3,0.1-0.6,0.2-0.7c0.1-0.1,0.3-0.6,0.4-1.1c0.1-0.5,0.4-1.5,0.7-2.4
		c0.8-2.8,1.4-5.4,1.7-7.2c0.1-0.7,0.3-1.8,0.4-2.6c1.6-9.9,0.9-23.3-1.8-32.5c-0.6-1.9-2.4-7.4-2.9-8.9c-1-2.6-3.9-8.6-4.2-8.7
		c-0.1,0-0.2-0.2-0.2-0.3c0-0.2-2.1-3.9-2.5-4.3c-0.1-0.1-0.3-0.5-0.4-0.7c-0.1-0.2-0.2-0.4-0.3-0.4c-0.1,0-0.3-0.2-0.4-0.5
		c-0.1-0.3-0.3-0.7-0.5-0.8c-0.1-0.1-0.7-0.9-1.3-1.8c-0.6-0.8-1.2-1.6-1.4-1.8c-0.2-0.2-0.3-0.4-0.3-0.4c0-0.1-0.5-0.6-1-1.3
		c-0.6-0.6-1.2-1.4-1.5-1.8c-0.7-0.9-5.5-5.8-6.7-6.7c-0.5-0.4-1.2-1-1.6-1.4c-0.4-0.4-1-0.9-1.4-1.2c-0.8-0.6-1.4-1-1.8-1.5
		c-0.2-0.1-0.4-0.3-0.5-0.3c-0.1,0-0.2-0.1-0.2-0.2c0-0.1-0.4-0.4-0.9-0.7c-0.5-0.3-0.9-0.6-0.9-0.7c0-0.1-0.1-0.2-0.3-0.2
		c-0.2,0-0.3-0.1-0.3-0.2c0-0.1-0.1-0.2-0.3-0.2s-0.3-0.1-0.3-0.2c0-0.1-0.1-0.2-0.3-0.2c-0.2,0-0.3-0.1-0.3-0.2s-0.1-0.2-0.3-0.2
		c-0.2,0-0.3-0.1-0.3-0.2s-0.1-0.2-0.2-0.2c-0.1,0-0.5-0.2-0.8-0.4c-0.8-0.6-2.4-1.5-3.3-1.9c-0.4-0.2-0.8-0.4-0.8-0.5
		c0-0.1-0.2-0.2-0.4-0.2c-0.2,0-0.4-0.1-0.5-0.2c-0.1-0.2-2.8-1.6-3.1-1.6c-0.2,0-0.3-0.1-0.3-0.2c0-0.1-0.1-0.2-0.3-0.2
		c-0.3,0-0.9-0.3-2.5-1.1c-0.2-0.1-0.6-0.2-0.8-0.2c-0.2,0-0.4-0.1-0.4-0.2s-0.2-0.2-0.5-0.2c-0.3,0-0.5-0.1-0.5-0.2
		c0-0.1-0.2-0.2-0.5-0.2c-0.3,0-0.6-0.1-0.7-0.2c-0.1-0.1-0.4-0.2-0.6-0.2c-0.3,0-0.6-0.1-0.6-0.2c-0.1-0.1-0.4-0.2-0.6-0.2
		c-0.3,0-0.6-0.1-0.6-0.2c-0.1-0.1-0.4-0.2-0.6-0.2c-0.3,0-0.6-0.1-0.6-0.2c-0.1-0.1-0.4-0.2-0.8-0.3c-0.4-0.1-1.1-0.2-1.6-0.4
		c-0.5-0.1-1.3-0.3-1.8-0.5c-0.5-0.1-1.4-0.3-1.9-0.4c-2.2-0.5-5.3-1-8.1-1.3C119.6,33.8,108,33.6,107.8,33.8 M120.1,36.1
		c0.9,0.1,1.7,0.2,1.7,0.3c0.1,0.1,0.3,0.3,0.6,0.4c0.3,0.1,0.7,0.4,1,0.5c0.3,0.1,0.5,0.3,0.6,0.4c0.1,0.1,0.4,0.4,0.9,0.6
		c1.2,0.8,4.3,4.1,5.5,5.7c0.6,0.8,1.1,1.5,1.2,1.6c0.1,0,0.2,0.2,0.2,0.3c0,0.2,1.4,2.5,1.9,3.1c0.1,0.1,0.4,0.7,0.7,1.2
		c0.3,0.5,0.6,1,0.6,1.1c0.1,0.1,0.4,0.8,0.8,1.8c1,2.5-0.2,5.1-2.3,5.1c-1.3,0-1.2,0-1.5,1.6c-0.1,0.7-0.2,1-0.4,1
		c-0.5,0-0.6,0.7-0.3,1.9c0.2,1.3,0.2,1.5-0.6,1.5c-0.4,0-2.9-1.5-3.3-1.9c-0.1-0.1-0.4-0.4-0.9-0.7c-0.4-0.3-0.8-0.6-0.9-0.7
		c-0.3-0.4-1.9-0.3-2.6,0.2c-0.6,0.4-1.6,0.6-2.9,0.5c-0.9-0.1-2.1-1.4-2.1-2.4c0-0.2-0.2-0.6-0.4-0.8c-0.2-0.2-0.7-0.9-1.1-1.4
		c-0.4-0.5-0.9-1.1-1.1-1.3c-0.2-0.2-0.7-0.8-1.1-1.3c-0.4-0.5-0.9-1.1-1.1-1.3c-1.4-1.3-1.2-2.4,0.4-2.4c0.7,0,0.9,0.1,1,0.4
		c0.1,0.2,0.4,0.7,0.8,1.1c0.4,0.4,0.6,0.8,0.6,0.9c0,0.1,0.3,0.5,0.6,0.9c0.4,0.4,0.6,0.8,0.6,0.9c0,0.1,0.2,0.4,0.5,0.7
		c0.3,0.3,0.7,0.9,1,1.3c1.8,2.5,2.8,3.2,3.6,2.1c0.3-0.5-0.1-2-0.7-2.5c-0.1-0.1-0.5-0.7-0.9-1.5c-0.4-0.8-0.8-1.5-0.9-1.5
		c-1.3-1.2-1.1-3.3,0.4-3.3c0.7,0,2.9,3.4,3.3,5.3c0.1,0.3,0.3,0.7,0.4,0.9c0.2,0.2,0.5,0.7,0.8,1.3c0.3,0.5,0.9,1.4,1.4,1.8
		c2.9,2.9,5.3,1.3,3.2-2.1c-0.3-0.5-0.7-1.2-0.8-1.5c-1.1-2.7-2.1-4.4-3.3-5.6c-1.5-1.5-1.7-2.3-0.5-2.4c0.7-0.1,1.7,0.7,3.3,2.8
		c0.4,0.5,0.9,1.1,1,1.2c0.1,0.1,0.3,0.5,0.4,0.7c0.1,0.2,0.2,0.4,0.3,0.4c0.1,0,0.2,0.2,0.3,0.4c0.1,0.2,0.3,0.6,0.4,0.7
		c0.1,0.1,0.5,0.7,0.8,1.3c0.5,1,0.5,1,1.4,1c1.4-0.1,1.8-2,0.7-3.2c-0.1-0.2-0.7-1-1.2-1.9c-0.5-0.9-1-1.7-1.1-1.7
		c-0.1,0-0.2-0.2-0.2-0.3c0-0.2-1.4-2.5-1.9-3.1c-0.1-0.1-0.3-0.5-0.5-0.8c-0.2-0.3-0.6-0.8-0.8-1.1c-0.2-0.3-0.5-0.6-0.5-0.7
		c0-0.5-3.7-3.7-4.3-3.7c-0.1,0-0.2-0.1-0.2-0.2c0-0.1-0.3-0.2-0.6-0.3c-0.3-0.1-1.1-0.2-1.7-0.4c-2.6-0.6-4.1-0.7-7.4-0.7
		c-3.6,0-5.3,0.2-5.5,0.5c-0.1,0.1-0.3,0.2-0.6,0.2c-0.2,0-0.7,0.2-1.1,0.5c-2.3,1.6-3.7,3.2-5.6,5.9c-1.6,2.4-2.4,2.8-2.8,1.3
		c-0.1-0.5,1.7-4.6,2.4-5.3c0.2-0.2,0.3-0.4,0.3-0.5c0-0.4,2.6-2.8,3-2.8c0.2,0,0.6-0.1,0.8-0.2c0.2-0.1,0.6-0.3,0.9-0.4
		c0.2-0.1,0.7-0.2,1-0.2c0.3,0,0.6-0.1,0.6-0.2c0.1-0.1,0.4-0.2,0.8-0.3c0.4-0.1,1.2-0.2,1.9-0.4c0.6-0.1,2.2-0.3,3.5-0.4
		c1.3-0.1,2.4-0.3,2.5-0.3C115.3,35.8,116.6,35.8,120.1,36.1 M22.2,44.3c-0.7,0.6-0.8,0.9-0.8,1.5c0,1.3,1.8,6.1,2.4,6.3
		c0.1,0,0.2,0.2,0.2,0.3c0,0.1,0.2,0.5,0.4,0.7c0.9,0.9,2,3.7,1.9,4.5c-0.2,1.1-0.6,1.4-1.9,1.4c-0.6,0-2.2,0.1-3.5,0.2
		c-1.6,0.2-3.1,0.2-5,0c-1.9-0.2-2.8-0.2-2.9,0c-0.6,0.5-2.3,4.5-1.9,4.5c0.1,0,0.4,0.2,0.7,0.5c0.5,0.4,0.6,0.5,3.2,0.3
		c6.9-0.5,14.9-0.2,16.3,0.6c1.5,0.9,1.7,1,1.8,1.1c0.1,0.1,0.4,0.3,0.8,0.4c0.4,0.2,0.7,0.4,0.8,0.4c0.1,0.1,0.4,0.3,0.8,0.4
		c0.4,0.2,0.7,0.4,0.8,0.4c0.6,0.6,3.2,1.8,3.7,1.6c0.9-0.2,2.9-3.5,2.9-4.6c0-0.7-0.2-0.9-2.5-2c-1.1-0.5-2-1-2-1.1
		c-0.1-0.1-1.6-0.9-2.5-1.4c-0.3-0.1-0.5-0.3-0.5-0.4c0-0.1-0.1-0.2-0.2-0.2c-0.2,0-4-2.5-4.4-2.9c-0.3-0.3-0.8-1.5-1.2-2.7
		c-0.8-2.4-2.6-6.5-3.4-7.4c-0.1-0.1-0.6-0.8-1.2-1.5C23,43.3,23.2,43.4,22.2,44.3 M113.5,47.9c1.1,1.3,0.5,1.7-2.2,1.7
		c-1.3,0-2.3,0.1-2.3,0.2c0,0.1-0.8,0.6-1.9,1.1c-1,0.5-2,1-2.3,1.1c-0.2,0.1-0.6,0.2-0.8,0.2s-0.5,0.1-0.6,0.2
		c-0.1,0.1-0.4,0.2-0.8,0.2c-0.3,0-0.7,0.1-0.8,0.2c-0.1,0.1-0.4,0.2-0.8,0.2c-0.4,0-0.9,0.1-1.2,0.3l-0.5,0.3l0.8,0.7
		c0.5,0.4,1.3,1.1,1.8,1.5c2.3,1.9,1.9,1.2,3.2,6.3c0.2,0.9,0.3,0.9,2.5,0.5c0.7-0.2,1.1,0.6,1.1,2.2c0,0.9,0.2,1.1,1.5,1.4
		c1.3,0.3,1.5,0.5,1.5,1.4c0,0.7,0.5,1.4,1,1.4c0.2,0,0.3,0.1,0.3,0.2c0,0.8,1.9,0,3.3-1.5c0.3-0.3,0.6-0.5,0.6-0.5
		c0.2,0,0.7,0.6,0.7,0.8c0,0.3,1.7,2.8,2.4,3.5c0.8,0.9,0.6,0.8-1.9-0.4c-1.5-0.7-1.9-0.8-2.7-0.7c-3.9,0.6-5.7,0.3-5.8-0.7
		c0-0.1-0.3-0.5-0.6-0.9s-0.6-0.8-0.6-0.9c0-0.6-1.8-2-2.6-2c-0.4,0-0.9-0.1-1-0.2c-0.1-0.1-0.4-0.2-0.7-0.3c-0.6-0.1-0.5,0-1.8-4.3
		c-0.8-2.7-3.4-6-4.6-6c-0.1,0-0.2-0.1-0.2-0.2c0-0.2-0.5-0.4-1.5-0.7c-0.4-0.1-0.6-0.3-0.7-1.1c-0.3-1.5-0.3-1.5,2.8-1.5
		c1.6,0,2.8-0.1,2.9-0.2c0.1-0.1,0.3-0.2,0.6-0.2c0.4,0,0.7-0.1,1.8-0.7c0.4-0.2,0.8-0.4,1-0.5c0.2-0.1,0.4-0.2,0.4-0.3
		c0-0.1,0.1-0.2,0.2-0.2c0.1,0,0.4-0.2,0.7-0.4c0.2-0.2,0.7-0.6,1-0.9c0.4-0.3,0.9-0.5,1.5-0.5c0.5,0,1.1-0.1,1.3-0.2
		C110.5,47.2,113,47.4,113.5,47.9 M108.2,54.9c1.1,1.6-1.1,3.5-2.4,2.1c-0.5-0.5-0.5-1.7-0.1-2.2C106.2,54.2,107.8,54.3,108.2,54.9
		 M206.2,55.1c-0.6,0.3-0.8,0.6-2,2.9c-0.5,1-1.3,2.4-1.7,3.2c-0.4,0.7-0.8,1.4-0.8,1.5c0,0.1-0.1,0.2-0.2,0.4
		c-0.1,0.1-0.5,0.7-0.9,1.3c-0.4,0.6-0.7,1.1-0.8,1.2c-0.1,0.1-0.4,0.4-0.6,0.9c-0.7,1-1.9,2.2-2.3,2.2c-0.2,0-0.3,0.1-0.3,0.2
		c0,0.1-0.1,0.2-0.3,0.2s-0.5,0.2-0.7,0.4c-0.3,0.2-0.5,0.4-0.6,0.4s-0.7,0.4-1.4,0.9c-0.7,0.5-1.4,0.9-1.5,0.9
		c-0.1,0-0.2,0.1-0.2,0.2c0,0.1-0.1,0.2-0.3,0.2s-0.5,0.2-0.7,0.4c-0.2,0.2-0.6,0.4-0.7,0.5c-2.1,0.9-2.5,2-1.5,4.2
		c1.3,2.8,2.4,3.4,4,2.2c0.3-0.2,0.7-0.4,0.8-0.4c0.1,0,0.2-0.1,0.2-0.2c0-0.1,0.1-0.2,0.3-0.2c0.2,0,0.3-0.1,0.3-0.2
		c0-0.1,0.1-0.2,0.2-0.2c0.1,0,0.5-0.2,0.8-0.4c0.8-0.6,2.3-1.4,3.7-2.1c0.6-0.3,1.6-0.8,2.1-1c0.9-0.4,0.9-0.4,3.9,0.1
		c3,0.5,5,0.7,8.8,0.8l3.9,0.1l-0.1-1.1c-0.1-1.1-1.1-3.2-1.7-3.8c-0.4-0.4-3.5-0.5-3.7-0.1c-0.1,0.1-0.5,0.2-0.9,0.2
		c-0.4,0-0.8,0.1-0.8,0.2c-0.3,0.5-5.1,0.9-5.8,0.4c-1-0.6-0.5-2.1,1.3-4c0.2-0.2,0.9-1,1.4-1.6s1.2-1.4,1.4-1.6
		c0.2-0.3,0.8-0.9,1.2-1.4c0.4-0.5,0.9-1.1,1-1.3c0.4-0.4-0.6-2.8-1.1-2.8c-0.1,0-0.2-0.1-0.2-0.3c0-0.1-0.2-0.6-0.5-0.9
		c-0.3-0.3-0.5-0.7-0.5-0.8c0-0.1-0.3-0.5-0.6-0.9c-0.4-0.4-0.6-0.8-0.6-0.9C207.4,54.7,206.7,54.8,206.2,55.1 M82.2,60.6
		c0.1,0.1,0.4,0.2,0.6,0.2c0.3,0,0.6,0.1,0.6,0.2c0.1,0.1,0.3,0.2,0.5,0.2c0.2,0,0.4,0.1,0.4,0.2c0,0.1,0.1,0.2,0.3,0.2
		s0.5,0.2,0.7,0.4c0.2,0.2,0.8,0.6,1.2,0.9c0.4,0.3,1,0.7,1.2,1c0.3,0.3,0.8,0.8,1.3,1.1c0.4,0.3,0.9,0.7,1.1,0.9
		c0.2,0.1,0.6,0.4,1,0.6l0.7,0.3l-0.1,1.6c-0.1,1.6-0.1,1.7,0.9,2.8c0.8,0.8,1.2,1.1,2.8,1.9c0.8,0.4,1.6,0.8,1.6,0.9
		c0.1,0.1,0.4,0.3,0.7,0.4c1.3,0.6,2.9,2.6,2.9,3.5c0,1.6-3.3,5.6-5.4,6.6c-1,0.5-2.1,0.6-8.4,0.8l-3.5,0.1l-0.8,0.7
		c-0.7,0.6-0.9,0.6-1.2,0.4c-0.9-0.5-2-0.3-3.4,0.7c-0.2,0.2,0.7,0.7,1,0.6c0.8-0.3,1.1,0.1,1.1,1.4c0,2.1,0.9,1.9,2.6-0.6
		c0.4-0.6,0.9-1.1,1.1-1.1c0.2,0,0.4-0.1,0.5-0.2c0.1-0.1,0.5-0.3,0.9-0.3c0.4-0.1,1.1-0.2,1.5-0.3c0.8-0.1,2.5,0.3,3.1,0.8
		c0.8,0.7,2.4,1.7,2.8,1.7c0.2,0,0.6,0.1,0.8,0.2c0.6,0.3,1.9,0.7,2.4,0.7c0.3,0,0.5,0.1,0.6,0.2c0.1,0.1,0.4,0.2,0.8,0.2
		c0.3,0,0.7,0.1,0.8,0.2c0.1,0.1,0.5,0.2,0.9,0.2s0.8,0.1,0.9,0.2c0.1,0.1,0.5,0.2,0.9,0.2c0.4,0,0.8,0.1,0.9,0.2
		c0.1,0.1,0.5,0.2,0.9,0.2c0.4,0,0.9,0.1,1,0.2c0.1,0.1,0.6,0.2,1.2,0.3c0.5,0.1,1.6,0.2,2.4,0.4c5.9,1,12.6,1,17.4,0
		c1.9-0.4,3.9-0.5,4.1-0.2c0.1,0.1,0.4,0.2,0.6,0.2c0.8,0,2.8,1.2,2.8,1.8c0,0.7,0.5,1.7,0.9,1.7c0.2,0,0.4-0.1,0.4-0.2
		c0-0.2,0.6-0.4,1-0.3c0.1,0,0.3,0.3,0.3,0.5c0,0.2,0.2,0.6,0.4,0.9s0.5,0.8,0.5,1.1c0.4,1.7,1.8,1.9,2.5,0.4
		c0.6-1.4,0.5-1.4,1.9,0.4c0.4,0.5,0.8,1,0.9,1.1c0.1,0.1,0.5,0.5,0.9,1.1c1.8,2.3,3.4,3.4,3.7,2.4c0.2-0.4,0.5-2.7,0.7-4.9
		c0.1-0.7,0.2-1.4,0.2-1.6c0.1-0.4,0.7-0.1,0.7,0.3c0,1.8,2.4,3.3,2.9,1.8c0.1-0.2,0.2-0.4,0.3-0.4c0.4,0,0.6-1.1,1.2-5.9l0.1-1h2
		c2.2,0,2.1-0.1,2.8,2.3c0.6,1.7,1.7,2,2.5,0.6c0.3-0.5-0.1-2.5-0.5-2.5c-0.1,0-0.2-0.2-0.3-0.4c-0.5-1.6-1.9-2.1-5.5-2.2
		c-2.7,0-2.5-0.2-2.5,3.3c0,4.3-0.7,4.7-3.5,2.1l-0.6-0.6l-0.2,0.6c-0.1,0.3-0.3,1-0.4,1.6c-0.6,3.2-0.7,3.5-1.1,3.5
		c-0.7,0-1.5-0.5-2.9-2l-1.4-1.4l0.2-2.9c0.1-2.4,0.1-2.9-0.1-2.9c-0.9,0-1.4,1.2-1.4,4l0,1.1l-0.7-0.1c-0.4-0.1-0.9-0.1-1.2-0.1
		c-0.8,0-1.2-1.2-1.4-4.2c-0.2-3.4-0.8-4.1-1.2-1.6c-0.5,2.8-0.8,3.1-2.2,2.4c-0.8-0.4-0.8-0.2-0.4-4.5c0.3-3.3,0.5-4.2,0.8-4.2
		c0.1,0,0.2-0.2,0.2-0.4c0-0.2,0.1-0.4,0.2-0.4c0.1,0,0.4-0.5,0.7-1c0.8-1.7,3.7-5,4.4-5c0.2,0,0.3-0.1,0.3-0.2
		c0-0.1,0.3-0.3,0.7-0.4c1.2-0.5,1.3-0.6,1.6-1.4c0.3-0.7,0.3-0.9-0.1-1.7c-0.2-0.5-0.5-1.4-0.6-1.9l-0.1-1l1.1,0.1
		c0.6,0.1,1.3,0.2,1.5,0.3c0.6,0.3,2.1,0.2,2.4-0.1c1.1-1.1,0.4-2.7-1.3-2.7c-0.3,0-0.5-0.1-0.6-0.2c-0.1-0.1-0.4-0.2-0.8-0.2
		c-0.3,0-0.7-0.1-0.7-0.2c-0.1-0.1-0.4-0.2-0.8-0.3c-0.4-0.1-1.1-0.2-1.6-0.4c-0.5-0.1-1.1-0.3-1.4-0.4c-0.3-0.1-0.7-0.2-1-0.3
		c-1.2-0.5-1.7-0.4-2,0.3c-0.8,2-2.4,4.2-4,5.9c-1.6,1.6-1.6,1.6-4.6,3c-0.3,0.1-1.7,0.2-3.1,0.2c-2.4,0-3.3-0.1-4.9-0.8
		c-0.3-0.1-0.7-0.3-1-0.4c-2-0.8-2.1-0.8-2-1.8c0.1-0.8,0.1-0.9,0.7-1c0.6-0.1,2.5,0.7,2.5,1.1c0,0.1,0.2,0.2,0.4,0.2
		c0.2,0,0.5,0.1,0.5,0.2c0.1,0.1,0.3,0.2,0.5,0.2c0.2,0,0.4,0.1,0.4,0.2s0.2,0.2,0.4,0.2c0.2,0,0.5,0.1,0.5,0.2
		c0.2,0.3,2.5,0.3,2.8,0c0.1-0.1,0.6-0.3,1.1-0.5c2.3-0.8,5.2-3.7,6.5-6.6c0.2-0.4,0.4-0.8,0.5-1c0.1-0.2,0.2-0.5,0.2-0.7
		c0-0.2,0.1-0.5,0.2-0.7c0.1-0.2,0.3-0.8,0.4-1.3l0.3-0.9l1.9,0.1c1.5,0.1,2.1,0.2,2.8,0.7c0.5,0.3,1.3,0.7,1.8,0.9
		c0.4,0.2,0.8,0.4,0.8,0.5c0,0.1,0.2,0.2,0.4,0.2c0.2,0,0.4,0.1,0.4,0.2c0,0.1,0.2,0.2,0.5,0.2c0.3,0,0.6,0.1,0.7,0.2
		c0.1,0.1,0.4,0.2,0.7,0.2c1,0,2.3,0.5,3,1.1c0.4,0.3,0.8,0.6,0.9,0.6c0.1,0,0.2,0.1,0.2,0.2c0,0.1,0.3,0.3,0.7,0.5
		c0.4,0.2,0.9,0.4,1.1,0.5c0.6,0.2,1.5,0.4,2.7,0.6c0.5,0.1,1.1,0.2,1.2,0.3c0.1,0.1,0.5,0.2,0.9,0.2c0.4,0,0.8,0.1,0.8,0.2
		c0.1,0.1,0.3,0.2,0.6,0.2c0.7,0,2.3,0.9,2.3,1.2c0,0.7,1.5,0.8,4,0.3c1.2-0.3,2.4,0.1,3.6,1.2c0.3,0.3,1.1,0.8,1.6,1.2
		c1.1,0.7,1.1,0.6,1.5,4.4c0.3,2.8,1.3,3.5,2.3,1.7c0.2-0.4,0.5-0.9,0.7-1.1c0.1-0.2,0.3-0.4,0.3-0.5c0-0.3,1.4-0.2,1.7,0.1
		c0.4,0.5,1.1,3.3,1.3,5.1c0.1,1,0.3,2.5,0.4,3.3c0.2,1.4,0,2.5-0.4,2.5c-0.1,0-0.3,0.3-0.4,0.6c-0.1,0.4-0.3,0.6-0.4,0.6
		c-0.4,0-0.8,1.2-0.6,1.7c1.2,2.8,1.1,3.5-0.5,6.7l-1.3,2.6l0.2,1.1c0.6,2.8,0.7,3.5,0.7,4.4c0,0.5-0.2,1.4-0.5,2
		c-0.7,1.6-0.5,3.8,0.3,5c0.8,1.1,0.9,4,0.1,5.6c-0.3,0.5-0.5,1.1-0.5,1.3c0,0.2-0.1,0.3-0.2,0.3c-0.1,0-0.2,0.2-0.2,0.4
		c0,0.2-0.1,0.4-0.2,0.4s-0.2,0.2-0.2,0.3c0,0.2-0.1,0.5-0.2,0.6c-0.1,0.1-0.5,0.7-0.9,1.3c-1,1.5-2.7,3.5-4.5,5l-0.8,0.7l0,2.1
		c0,2,0.1,2.7,0.9,7c0.2,1.1,0.5,2.6,0.5,3.3c0.1,0.7,0.2,1.2,0.3,1.2c0.1,0,0.5,0.4,1,0.8c0.5,0.4,1.2,1.1,1.6,1.4
		c1.5,1.3,1.7,3.9,0.5,8c-0.1,0.5-0.3,1-0.4,1.1c-0.9,1.4-1.2,3.7-0.6,4.9c0.4,0.8,0.4,1,0.2,2.1c-0.1,0.7-0.2,1.5-0.2,1.9
		c0,1-0.3,1.5-2.1,3.2l-1.6,1.5l-2.1,0.3c-1.1,0.1-3,0.2-4.2,0.2l-2.1-0.1l-0.4-0.8c-0.6-1-0.2-1.8,1.9-3.9c1.2-1.2,3.5-2.9,3.9-2.9
		c0.5,0,0.5-0.8-0.2-6c-0.1-0.9-0.3-2.3-0.3-3.1c-0.1-0.8-0.2-1.6-0.3-1.7c-0.1-0.1-0.7-0.9-1.3-1.7c-1.1-1.5-3.1-3.8-4.3-4.8
		c-0.3-0.3-1-0.9-1.4-1.3c-0.4-0.4-1.1-1-1.5-1.3c-0.4-0.3-0.8-0.6-0.9-0.8c-0.1-0.1-0.6-0.5-1-0.8c-0.4-0.3-0.9-0.7-1.2-0.9
		c-0.2-0.2-0.5-0.4-0.7-0.4c-0.1,0-0.3-0.1-0.3-0.2c-0.1-0.2-4.6-3.3-4.8-3.3c-0.1,0-0.3-0.2-0.6-0.4c-0.3-0.2-0.6-0.4-0.7-0.4
		c-0.2,0-0.3-0.1-0.3-0.2c0-0.1-0.1-0.2-0.2-0.2c-0.5,0-2.7-1.7-3-2.3c-0.2-0.3-0.4-0.7-0.4-0.7c-0.3-0.3-2.7-5.4-3-6.3
		c-1.1-4-5.4-10.4-6.9-10.4c-1.9,0-2.2,1.9-0.4,2.8c1,0.5,3,2.4,3,2.8c0,0.1,0.1,0.3,0.3,0.5c0.6,0.7,1.9,3.4,1.9,4.2v0.8l-1.4,0
		c-0.8,0-1.8,0.1-2.2,0.3c-1.4,0.5-2.6,1.1-2.6,1.3c0,0.1-0.1,0.2-0.3,0.2c-0.2,0-0.3,0.1-0.3,0.2c0,0.1-0.1,0.2-0.2,0.2
		c-0.1,0-0.4,0.2-0.6,0.4c-0.2,0.2-0.6,0.5-1,0.7c-0.4,0.2-0.8,0.4-1,0.5c-0.5,0.3-1,0.2-1.8-0.1c-0.8-0.3-1.4-0.1-2.7,1.2
		c-0.9,0.8-2.3,1.2-2.7,0.6c-0.5-0.8-3.1-0.1-4.6,1.2c-1,0.9-3.5,1.2-4.2,0.5c-0.2-0.3-2.1-0.3-2.4-0.1c-0.2,0.2-2.1,0.7-2.7,0.7
		c-0.6,0-1.1,0.5-3.1,2.7c-1.9,2.2-2.2,2.5-3,3.6c-0.4,0.5-0.9,1.1-1.1,1.3c-0.1,0.2-0.5,0.6-0.9,1.1c-0.3,0.4-0.8,1-1.1,1.3
		c-0.3,0.3-0.5,0.6-0.5,0.7c0,0.1-0.2,0.4-0.5,0.7c-0.2,0.3-0.6,0.8-0.8,1.1c-0.2,0.3-0.4,0.6-0.5,0.8c-0.3,0.3-1.7,2.4-2,2.8
		c-1.8,2.7-2.5,3.9-4.1,6.6c-1,1.7-2.2,3.7-2.5,4.3c-0.3,0.7-0.7,1.2-0.8,1.3c-0.8,0.6-2.8,5.5-2.8,6.8c0,1.4,0.4,3.2,0.7,3.2
		c0.1,0,0.2,0.1,0.2,0.3c0,0.4,2.3,2.7,2.7,2.7c0.2,0,0.3,0.1,0.3,0.2c0,0.1,0.2,0.2,0.4,0.2c0.2,0,0.5,0.1,0.5,0.2
		c0.1,0.1,0.3,0.2,0.6,0.2c0.3,0,0.6,0.1,0.7,0.2c0.3,0.3,4.3,0.1,6.6-0.2c0.8-0.1,2-0.3,2.6-0.4c0.6-0.1,1.2-0.2,1.2-0.3
		c0.1-0.1,0.5-0.2,0.9-0.2s0.9-0.1,1-0.2c0.1-0.1,0.3-0.2,0.6-0.2c0.4,0,1.3-0.3,2.4-0.7c0.2-0.1,0.9-0.3,1.4-0.4
		c0.5-0.1,1.1-0.3,1.3-0.5c0.2-0.1,0.6-0.2,0.8-0.2c0.2,0,0.5-0.1,0.6-0.2c0.1-0.1,0.4-0.2,0.6-0.2s0.6-0.1,0.6-0.2
		c0.1-0.1,0.4-0.2,0.6-0.2c0.3,0,0.6-0.1,0.6-0.2c0.1-0.1,0.4-0.2,0.6-0.2c0.3,0,0.6-0.1,0.6-0.2c0.1-0.1,0.4-0.2,0.6-0.2
		c0.3,0,0.6-0.1,0.6-0.2c0.1-0.1,0.3-0.2,0.6-0.2s0.6-0.1,0.7-0.2c0.1-0.1,0.7-0.3,1.3-0.3c1.4-0.2,3.2-0.4,7.9-1.2
		c0.7-0.1,1.8-0.3,2.4-0.3c0.6-0.1,1.3-0.2,1.5-0.3c0.2-0.1,0.9-0.2,1.5-0.3c0.6-0.1,1.7-0.2,2.5-0.4c1.8-0.3,11.1-0.5,11.7-0.2
		c0.2,0.1,0.9,0.3,1.4,0.5c0.5,0.1,1.2,0.3,1.4,0.4c0.2,0.1,0.9,0.3,1.4,0.4c0.5,0.1,1.1,0.3,1.3,0.5c0.2,0.1,0.5,0.2,0.7,0.2
		c0.4,0,1.2,0.4,1.5,0.9c0.1,0.2,0.5,0.6,0.7,0.8c0.2,0.3,0.5,0.6,0.5,0.7s0.2,0.4,0.5,0.7c0.3,0.3,0.7,0.9,1,1.3
		c0.3,0.4,0.6,0.8,0.7,1c0.1,0.1,0.4,0.5,0.6,0.8c1.1,1.4,1.4-3.8,0.4-5.9c-0.2-0.5-0.4-0.9-0.4-1c0-0.4-1.1-1.5-1.9-1.9
		c-1.5-0.8-3.9-3.2-5.4-5.7c-0.7-1.1-1.3-2.1-1.5-2.2c-0.1-0.1-0.3-0.5-0.5-0.8c-0.7-1.3-2.6-2.7-2.9-2.1c-0.1,0.1-0.4,0.2-0.6,0.2
		c-0.3,0-0.6,0.1-0.6,0.2c-0.1,0.1-0.3,0.2-0.6,0.2c-0.4,0-0.6,0.1-1.6,0.6c-0.3,0.1-0.6,0.2-0.8,0.2c-0.2,0-0.3,0.1-0.3,0.2
		c0,0.1-0.1,0.2-0.3,0.2c-0.2,0-1,0.4-1.9,0.8c-2,1-3,1.2-7.2,1.2c-3,0-4.8-0.1-10.4-0.7c-0.9-0.1-2.6-0.3-3.7-0.4
		c-1.1-0.1-2-0.3-2.2-0.3c-0.4-0.3-4.6-0.2-4.8,0c-0.1,0.1-0.5,0.3-0.7,0.3s-0.5,0.1-0.6,0.2c-0.1,0.1-0.4,0.2-0.7,0.2
		c-0.3,0-0.5,0.1-0.5,0.2c0,0.1-0.1,0.2-0.3,0.2c-0.2,0-0.5,0.1-0.7,0.2c-1.6,0.8-2.3,1.1-2.5,1.1c-0.2,0-0.3,0.1-0.3,0.2
		c0,0.1-0.4,0.3-0.8,0.5c-0.8,0.4-2,1-2.2,1.2c-0.2,0.2-1.4,0.9-1.8,1c-0.2,0.1-0.4,0.2-0.4,0.3c0,0.1-0.3,0.2-0.6,0.2
		c-0.3,0-0.7,0.1-0.8,0.2c-0.2,0.3-1.6,0.3-1.6-0.1c0-0.7,0.6-2.2,0.9-2.3c0.2,0,0.4-0.2,0.4-0.3c0-0.1,0.1-0.2,0.3-0.2
		c0.4,0,1.4-0.5,1.4-0.7c0-0.1,0.2-0.2,0.4-0.2c0.2,0,0.4-0.1,0.4-0.2c0-0.1,0.2-0.2,0.4-0.2c0.2,0,0.4-0.1,0.4-0.2
		c0-0.1,0.2-0.2,0.4-0.2c0.2,0,0.4-0.1,0.4-0.2c0-0.1,0.2-0.2,0.4-0.2c0.2,0,0.4-0.1,0.4-0.2c0-0.1,0.5-0.4,1.2-0.7
		c0.6-0.3,1.2-0.6,1.2-0.6c0-0.1,0.5-0.4,1.2-0.6c0.6-0.3,1.2-0.6,1.2-0.7c0-0.1,0.2-0.2,0.4-0.2c0.2,0,0.4-0.1,0.4-0.2
		c0-0.1,0.3-0.3,0.8-0.5s0.8-0.4,0.8-0.4c0-0.1,0.3-0.3,0.7-0.4c0.4-0.2,0.7-0.4,0.8-0.4c0.1-0.1,0.5-0.3,1-0.6c1.1-0.6,1.9-1,2-1.2
		c0.1-0.1,0.5-0.3,1-0.6c1.1-0.6,1.9-1,2-1.2c0.1-0.1,0.5-0.3,1-0.6c1.1-0.6,1.9-1,2-1.2c0.1-0.1,0.5-0.3,1-0.6
		c0.5-0.2,1.2-0.7,1.7-0.9c0.4-0.3,1.2-0.7,1.6-0.9c0.4-0.3,1.2-0.7,1.7-0.9c0.5-0.2,0.9-0.5,1-0.6c0.1-0.1,0.5-0.3,1-0.6
		c0.5-0.3,1.3-0.7,1.8-1c0.5-0.3,1-0.5,1-0.6c0.1-0.1,1-0.5,2-1.1c1.1-0.5,2-1,2-1.1c0-0.1,0.3-0.2,0.5-0.2s0.4-0.1,0.4-0.2
		c0-0.1,0.2-0.2,0.4-0.2s0.4-0.1,0.5-0.2c0-0.1,0.9-0.6,2-1.1c2.1-1.1,2.4-1.3,3.4-2.3c1.1-1.2,1.7-1.9,1.7-2.2
		c0-0.1,0.2-0.3,0.4-0.3c0.2,0,0.4,0.1,0.4,0.2c0,0.1,0.1,0.2,0.3,0.2c0.9,0,0.9,2.2,0,2.8c-0.4,0.2-0.7,0.4-0.8,0.5
		c-0.1,0.1-0.9,0.6-2,1.2c-0.5,0.2-0.9,0.5-1,0.6c-0.1,0.1-0.9,0.6-2,1.2c-0.5,0.2-0.9,0.5-1,0.6c-0.1,0.1-0.3,0.2-0.6,0.4
		c-0.8,0.4-1.9,1.1-2.7,1.5c-0.4,0.2-1.1,0.6-1.5,0.9c-0.4,0.2-1.1,0.6-1.5,0.9c-0.4,0.2-1.1,0.6-1.5,0.9c-0.4,0.2-1.1,0.6-1.5,0.9
		c-0.4,0.2-1.1,0.6-1.5,0.9c-0.8,0.5-1.9,1.1-2.7,1.5c-0.3,0.2-0.6,0.3-0.6,0.4c-0.1,0.1-0.5,0.3-1,0.6c-1.1,0.6-1.9,1-2,1.2
		c-0.1,0.1-0.5,0.3-1,0.6c-1.1,0.6-1.9,1-2,1.2c-0.1,0.1-0.4,0.3-0.8,0.4c-0.4,0.2-0.9,0.5-1.1,0.6l-0.5,0.3l0.6,0.3
		c0.3,0.2,0.7,0.3,1,0.3c0.2,0,0.5,0.1,0.5,0.2c0.1,0.1,0.4,0.2,0.8,0.2c0.3,0,0.7,0.1,0.7,0.2c0.1,0.1,0.4,0.2,0.8,0.3
		c0.4,0.1,1.2,0.2,1.8,0.4c4.8,1.1,15.1,1.5,15.7,0.6c0.1-0.1,0.3-0.2,0.6-0.2c1,0,1.1-2.1,0.3-3.2c-2-2.6-4.9-4.6-4.9-3.5
		c0,0.1-0.2,0.2-0.4,0.2c-0.2,0-0.4,0.1-0.4,0.2c0,0.1-0.1,0.2-0.3,0.2s-1.4,0.6-2.8,1.3c-1.4,0.7-2.7,1.3-2.8,1.3s-0.3,0.1-0.3,0.2
		c0,0.2-1.2,0.4-4.2,0.6l-1.9,0.1l1.1-1.1l1.1-1.1l2-0.1c1.8-0.1,2.1-0.2,3.1-0.9c0.6-0.4,1.2-0.7,1.3-0.7s0.2-0.1,0.2-0.2
		c0-0.1,0.1-0.2,0.2-0.2s0.9-0.5,1.8-1.1c1.8-1.2,4-1.5,5.1-0.7c1.4,1.1,3.5,3.5,4,4.5c0.5,1.1,1.2,1.5,1.6,0.9
		c0.1-0.1,0.4-0.2,0.8-0.2c0.3,0,0.7-0.1,0.8-0.2c0.1-0.1,0.4-0.2,0.6-0.2c0.3,0,0.6-0.1,0.6-0.2c0.1-0.1,0.6-0.2,1.1-0.2
		c0.5,0,1,0.1,1,0.2s0.2,0.2,0.4,0.2c0.2,0,0.4,0.1,0.4,0.2c0,0.1,0.1,0.2,0.2,0.2c0.4,0,3,2.4,3,2.8c0,0.1,0.2,0.4,0.5,0.7
		c0.3,0.3,1,1.3,1.6,2.3s1.2,1.8,1.3,2c0.1,0.1,0.3,0.5,0.5,0.8c0.1,0.3,0.3,0.5,0.4,0.5c0.1,0,0.2,0.2,0.3,0.4
		c0.2,0.5,2.5,2.9,3.1,3.2c0.3,0.1,0.8,0.3,1.2,0.4c0.5,0.1,0.7,0.4,0.8,0.9c0.1,0.4,0.3,1.1,0.4,1.6c1.4,5.9,1.3,6.1-1.4,9.5
		c-1.2,1.5-1.4,1.6-2.5,1.6c-1.1,0-1.3-0.2-1.3-1.4c0-1.3-0.5-2.8-1.1-3.3c-1-0.9-1.5-1.3-1.7-1.3c-0.1,0-0.2-0.1-0.3-0.2
		c-0.1-0.3-2.1-1.6-2.4-1.6c-0.2,0-0.4-0.1-0.5-0.2c-0.5-0.8-1.3-0.2-1.6,1c-0.2,0.7-0.4,1.3-0.5,1.4c-0.1,0.1-0.2,0.4-0.2,0.6
		c0,0.6-1.6,2.7-2.1,2.7c-0.1,0-0.2,0.1-0.3,0.2c-0.2,0.5-3,1.5-4.8,1.6l-1,0.1l0.1-1.3c0.3-2.9,0.5-5.8,0.4-7.1l-0.1-1.3l-3.5,0.1
		c-1.9,0.1-4.1,0.2-4.9,0.3c-2.4,0.4-4.9,0.9-7,1.3c-0.6,0.1-1.4,0.3-1.9,0.4c-0.4,0.1-0.9,0.2-0.9,0.3c-0.1,0.1-0.4,0.2-0.8,0.2
		c-0.4,0-0.8,0.1-0.8,0.2c-0.1,0.1-0.5,0.3-0.9,0.3c-0.4,0.1-1.1,0.2-1.5,0.3c-0.4,0.1-0.8,0.2-0.9,0.3c-0.1,0.1-0.4,0.2-0.8,0.2
		c-0.4,0-0.8,0.1-0.8,0.2c-0.1,0.1-0.5,0.3-0.9,0.3c-0.4,0.1-1.1,0.2-1.5,0.3c-0.4,0.1-0.8,0.2-0.9,0.3c-0.1,0.1-0.4,0.2-0.7,0.2
		c-0.3,0-0.7,0.1-0.8,0.2c-0.1,0.1-0.5,0.2-0.9,0.2s-0.8,0.1-0.9,0.2c-0.1,0.1-0.5,0.2-0.9,0.2c-0.4,0-0.8,0.1-0.9,0.2
		c-0.1,0.1-0.5,0.2-0.9,0.2s-0.8,0.1-0.9,0.2c-0.1,0.1-0.4,0.2-0.8,0.2c-0.4,0-0.8,0.1-0.9,0.2c-0.1,0.1-0.6,0.2-1.1,0.3
		c-0.5,0.1-1.4,0.2-2,0.4c-4.4,0.9-10.4,1-10.9,0.2c-0.1-0.1-0.3-0.2-0.5-0.2c-1.1,0-3.9-1.9-4.9-3.4c-1.6-2.3-1.7-7.7-0.2-9.1
		c0.1-0.1,0.5-0.9,1-1.9c0.5-1,1.1-2.2,1.4-2.7c0.3-0.5,0.5-1,0.6-1c0.1-0.1,0.5-0.7,0.9-1.5c0.4-0.8,0.8-1.5,0.9-1.5
		c0.1-0.1,0.5-0.7,0.9-1.5c0.4-0.8,0.8-1.5,0.9-1.5c0.1-0.1,0.4-0.5,0.6-1.1c0.3-0.5,0.6-1.1,0.7-1.2c0.5-0.6,1.9-3,1.9-3.1
		c0-0.1,0.1-0.2,0.2-0.2s0.3-0.3,0.5-0.6c0.1-0.4,0.3-0.6,0.4-0.6c0.1,0,0.3-0.3,0.4-0.6c0.1-0.4,0.3-0.6,0.4-0.6
		c0.1,0,0.2-0.2,0.3-0.4c0.1-0.2,0.3-0.6,0.4-0.7c0.1-0.1,0.7-0.9,1.2-1.7c0.5-0.8,1.2-1.6,1.4-1.9c0.3-0.3,0.5-0.6,0.5-0.7
		c0-0.1,0.1-0.3,0.3-0.4c0.1-0.2,0.6-0.7,1-1.3c0.4-0.5,0.8-1,0.9-1.1c0.1-0.1,0.6-0.7,1.3-1.5c0.6-0.8,1.3-1.4,1.3-1.5
		c0.1,0,0.2-0.3,0.2-0.5c0-0.4-0.2-0.4-1.8-0.4h-1.8l-0.8,1.3c-0.4,0.7-0.8,1.4-0.8,1.5c0,0.1-0.1,0.2-0.2,0.3s-0.4,0.5-0.8,1.1
		c-0.9,1.5-2.1,2.8-2.9,2.8c-1.3,0.1-0.8-1.6,0.7-2.7c3-2.1,3.2-3.7,0.4-3.9c-1.5-0.1-1.7-0.3-2.2-3.1c-0.4-2.1-0.2-3.2,0.9-4.8
		c1.2-1.8,0.2-6-2.1-8.5c-1.1-1.2-1.7,0.7-0.8,2.8c0.8,1.9,0.9,2.2,0.9,3.1c0,0.7-0.2,1.2-0.7,1.9l-0.7,1l0.1,2.3
		c0.1,1.3,0.2,2.8,0.3,3.5c0.1,1.4-0.3,2.2-1.1,2.2c-0.6,0-0.6,0.4-0.2,3.5c0.1,0.8,0,1.3-0.5,2.7c-1.1,2.9-1.1,3.2-1.1,5.8
		c0,1.4-0.1,2.8-0.2,3.1c-0.1,0.3-0.3,0.8-0.4,1c-0.1,0.2-0.3,1-0.4,1.6c-0.2,1-1.6,4.2-2.2,4.9c-1,1.2-2.7,4.7-2.7,5.3
		c0,0.5-1.4,3.2-1.9,3.7c-0.1,0.1-0.4,0.4-0.6,0.9c-1.3,1.8-0.8,1.7-7.2,1.7h-5.7l0-0.5c-0.2-2.5,0.4-3.2,3.9-5
		c1.2-0.6,2.3-1.2,2.3-1.3c0-0.1,0.2-0.2,0.4-0.2c0.2,0,0.3-0.1,0.3-0.2c0-0.1,0.1-0.2,0.2-0.2c0.5,0,2.1-1.8,2.7-3.1
		c0.8-1.6,1-2.7,1.3-7.8c0.5-7.3,0.4-8-1.2-12.5c-2.5-7-2.7-7.5-2.7-8.7c0-2.3-0.7-3.5-2.5-4.3c-2.9-1.4-4.4-3.6-4.4-6.3
		c0-3.3-0.8-6.4-1.5-6.4c-0.2,0-0.4-0.1-0.5-0.2c-0.1-0.1-0.3-0.2-0.5-0.2c-0.3,0-2.4-2.1-2.4-2.4c0-0.1-0.1-0.3-0.3-0.4
		c-0.4-0.4-1.3-3.5-2-6.5c-0.4-2-1.1-4.1-1.5-4.9c-0.3-0.6-0.3-0.7,0.1-2.1c0.3-0.8,0.5-1.6,0.5-1.8c0-1.5,3-5.2,5-6.3
		c1.8-0.9,2.2-2.2,1.6-4.7c-0.7-2.6,1.5-7.6,3.3-7.6c0.3,0,0.6,0,0.6,0.1c0,0,0.1,0.8,0.3,1.8c0.2,1,0.3,2.1,0.3,2.5
		c0,0.4,0.1,0.8,0.2,0.8c0.8,0,2,3.4,2,5.7c0,2.9,0.8,3.7,1.7,1.8c0.4-0.8,0.5-1.5,0.3-1.8c-0.1-0.1-0.5-1.2-1.9-5.2
		c-1.1-3.1-1.4-5.7-1-8.7c0.2-1.3,0.3-2.4,0.3-2.5c0-0.5,3.8-3.9,4.8-4.3c0.3-0.1,0.6-0.3,0.6-0.4c0-0.1,0.2-0.2,0.4-0.2
		c0.2,0,0.4-0.1,0.4-0.2c0-0.1,0.2-0.2,0.5-0.2c0.3,0,0.6-0.1,0.7-0.2c0.1-0.1,0.4-0.2,0.7-0.2s0.7-0.1,0.9-0.3
		c0.4-0.2,0.5-0.2,0.8,0.2c0.4,0.4,1.5,0.7,1.5,0.3c0-0.1,0.3-0.3,0.6-0.5c0.3-0.2,0.8-0.5,0.9-0.6c0.2-0.1,0.5-0.4,0.7-0.5
		C79.5,60.4,82,60.3,82.2,60.6 M9.4,66.9c-0.1,0.2-0.2,0.4-0.3,0.5c-0.3,0.3-1.1,2-1.2,2.9c-0.1,0.9-0.1,0.9,1.1,2
		c0.7,0.6,1.6,1.4,2,1.8c0.4,0.4,1.3,1.2,2,1.7c2.5,2.1,2.9,2.7,2.4,3.4c-0.2,0.3-4.6,0.2-6.5-0.2c-3.3-0.7-3.5-0.7-3.9,1.2
		c-0.9,4-0.8,4.7,0.7,4.9c0.6,0.1,1.8,0.3,2.5,0.4c0.7,0.1,1.8,0.3,2.5,0.4c0.6,0.1,1.8,0.3,2.5,0.4c0.7,0.1,1.8,0.3,2.5,0.4
		c0.6,0.1,1.8,0.3,2.5,0.4c0.7,0.1,1.7,0.3,2.3,0.3s1.2,0.2,1.4,0.3c0.2,0.1,0.9,0.2,1.4,0.3c0.5,0.1,1.5,0.2,2.3,0.3
		c5.5,1,6,1,6.2,0.4c0.1-0.3,0.3-0.9,0.6-1.4c0.6-1.3,0.5-2.3-0.2-2.4c-0.3,0-0.6-0.2-0.7-0.3c-0.1-0.1-0.5-0.2-0.9-0.2
		c-0.4,0-0.7-0.1-0.8-0.2c-0.1-0.1-0.4-0.2-0.8-0.3c-0.4-0.1-1.1-0.2-1.7-0.4c-0.5-0.1-1.3-0.3-1.6-0.4c-0.8-0.1-1.6-0.8-1.6-1.3
		c0-0.4,2.2-1.4,3.1-1.4c0.4,0,0.8-0.1,0.9-0.2c0.1-0.1,0.6-0.2,1.1-0.3c0.5-0.1,1.3-0.2,1.9-0.4c0.6-0.1,1.5-0.3,1.9-0.4
		c0.5-0.1,0.9-0.2,1.1-0.3c0.1-0.1,0.5-0.2,0.8-0.2h0.6v-2c0-3-0.5-4.5-1.2-3.8c-0.1,0.1-0.6,0.2-1.1,0.3c-0.5,0.1-1.3,0.2-1.9,0.4
		c-0.6,0.1-1.5,0.3-1.9,0.4c-0.5,0.1-0.9,0.2-1.1,0.3c-0.1,0.1-0.6,0.2-1,0.2s-0.9,0.1-0.9,0.2c-0.1,0.1-0.5,0.2-0.9,0.2
		c-0.4,0-0.9,0.1-1,0.2c-0.1,0.1-0.6,0.2-1.1,0.3c-1,0.1-2.6,0.5-3.3,0.7c-0.3,0.1-0.5,0.1-0.5-0.1c0-0.1-0.1-0.2-0.2-0.2
		c-0.1,0-0.5-0.3-0.8-0.6c-1.2-1.3-2.5-2.8-3-3.5c-0.3-0.4-0.9-1.1-1.3-1.5c-0.4-0.4-1-1.1-1.4-1.5C10.6,66.7,9.7,66.2,9.4,66.9
		 M77.1,67.9c-0.3,0.8-0.3,4.2,0,6.5c0.2,1.7,0.1,2.9-0.4,2.9c-0.1,0-0.3,0.2-0.6,0.4c-0.2,0.2-0.7,0.5-1,0.7
		c-1.1,0.5-2.1,1.6-2.4,2.5c-0.2,0.5-0.5,1.4-0.7,2c-0.4,1.1-0.2,2.4,0.3,1.7c0.1-0.1,0.5-0.8,1-1.5c1.1-1.7,2-2.6,3.1-3.4
		c0.5-0.4,1.4-1.1,1.9-1.6l0.9-1l-0.5-2.1c-0.3-1.1-0.6-2.3-0.7-2.6c-0.1-0.3-0.2-1.4-0.3-2.6C77.9,67.5,77.6,66.9,77.1,67.9
		 M85.4,72.2c-0.6,0.4-0.7,1.7-0.2,2.2c0.6,0.6,2,0.4,2.3-0.3C88.1,72.5,86.7,71.3,85.4,72.2 M57.3,87.6c-0.1,0.1-0.5,0.6-0.7,1.1
		c-0.3,0.5-0.6,1-0.6,1.1c-1.7,1.2-2,6.2-0.6,10.4c0.5,1.5,1,2.8,1.1,2.9c0.1,0.1,0.2,0.4,0.2,0.7c0,0.2,0.1,0.5,0.2,0.7
		s0.4,0.9,0.7,1.8c0.5,1.6,1.6,3.1,2.3,3.1c0.2,0,0.3,0.1,0.3,0.2c0,0.1,0.2,0.3,0.5,0.4c0.3,0.1,1,0.5,1.7,0.9
		c0.7,0.4,1.5,0.7,1.8,0.8c0.3,0.1,0.8,0.2,1.1,0.2c0.7,0.2,1.3-0.4,1.1-1c-0.1-0.3-0.3-0.6-0.5-0.6c-0.4,0-1.7-0.4-2.3-0.7
		c-0.2-0.1-0.5-0.2-0.6-0.2c-0.4,0-1.5-1-1.5-1.4c0-0.6,0.8-0.7,2.1-0.1c0.3,0.1,0.8,0.3,1,0.4c0.3,0.1,0.7,0.3,1,0.4
		c0.3,0.1,0.8,0.3,1.1,0.4c1.3,0.5,1.7,0.7,2.1,0.9c0.6,0.3,1.4,0.2,1.5-0.1c0.3-0.8-0.4-1.5-2-2.1c-0.3-0.1-0.7-0.3-1-0.4
		c-2.1-0.8-2.7-1.6-1.6-2.2c0.4-0.2,0.7-0.1,2.6,0.8c1.2,0.6,2.3,1.1,2.4,1.1s0.3,0.1,0.3,0.2c0,0.3,0.6,0.3,1-0.1
		c0.5-0.5,0.2-1.2-0.6-1.6c-0.4-0.2-0.9-0.4-1.1-0.5c-0.2-0.1-0.6-0.2-0.8-0.2c-0.2,0-0.4-0.1-0.4-0.2c0-0.1-0.2-0.2-0.4-0.2
		c-0.9,0-1.2-1.1-0.4-1.6c0.3-0.2,0.5-0.2,0.8,0c0.2,0.1,0.6,0.3,0.8,0.3c0.2,0,0.5,0.1,0.6,0.2c0.9,0.8,2.4,0.2,2.1-0.8
		c-0.3-1-0.6-1.2-3.4-1.5c-0.6-0.1-1.2-0.2-1.3-0.3c-0.1-0.1-0.5-0.2-0.8-0.2c-0.3,0-0.8-0.1-1-0.2c-0.2-0.1-0.8-0.4-1.4-0.7
		c-2.3-1.1-3.1-2.4-1.9-3.2c0.6-0.3,0.6-0.3,2.4,0.6c2.2,1.1,3.8,1.3,4.3,0.4c0.5-0.7,0.4-1.1-0.1-1.4c-1.1-0.5-1.7-0.7-2.2-0.7
		c-0.3,0-0.5-0.1-0.5-0.2S66.6,95,66.4,95c-0.1,0-0.5-0.2-0.8-0.5c-1.2-1-1.4-1.2-2.4-1.8C62.6,92.3,62.1,92,62,92
		c-0.1,0-0.2-0.1-0.2-0.2s-0.2-0.2-0.5-0.2s-0.6-0.1-0.7-0.2c-0.1-0.1-0.7-0.2-1.3-0.2H58l0.1-1.7c0.1-1.4,0.1-1.7-0.2-1.8
		C57.6,87.4,57.6,87.4,57.3,87.6 M219.6,88.1c-0.4,0.2-0.8,0.4-1,0.4c-0.2,0-0.4,0.1-0.4,0.2c0,0.1-0.1,0.2-0.3,0.2
		c-0.2,0-0.7,0.2-1.1,0.4c-0.4,0.2-0.9,0.4-1.1,0.4s-0.3,0.1-0.3,0.2c0,0.1-0.1,0.2-0.3,0.2c-0.3,0-0.9,0.3-2.5,1.1
		c-0.2,0.1-0.5,0.2-0.7,0.2c-0.2,0-0.3,0.1-0.3,0.2s-0.1,0.2-0.3,0.2c-0.2,0-0.5,0.1-0.7,0.2c-0.5,0.3-2.4,1.1-2.9,1.3
		c-0.2,0.1-0.9,0.4-1.5,0.6c-0.6,0.3-1.3,0.6-1.5,0.6c-0.2,0.1-0.9,0.4-1.5,0.6c-0.6,0.3-1.3,0.6-1.5,0.6c-0.2,0.1-0.9,0.4-1.5,0.6
		c-0.6,0.3-1.3,0.6-1.6,0.7c-0.3,0.1-0.7,0.3-0.9,0.4c-0.2,0.1-0.5,0.2-0.6,0.2c-1.1,0-1.8,2.4-1.1,3.7c0.3,0.6,2.5,0.8,15.7,1.4
		c4.7,0.2,5.1,0.4,5.1,1.7c0,0.8-0.1,0.9-0.9,1.3c-1.4,0.7-3.8,1.8-4.8,2.2c-1.1,0.5-3.7,1.7-4.7,2.2c-0.5,0.2-1,0.4-1.1,0.4
		c-0.2,0-0.3,0.1-0.3,0.2c0,0.1-0.1,0.2-0.3,0.2c-0.2,0-0.7,0.2-1.2,0.5c-2.3,1.1-2.6,1.3-2.9,1.3c-0.2,0-0.3,0.1-0.3,0.2
		c0,0.1-0.1,0.2-0.3,0.2c-0.2,0-0.7,0.2-1.2,0.5c-0.5,0.3-1.2,0.6-1.5,0.7c-1.4,0.6-1.6,1.9-0.3,1.9c0.4,0,0.9,0.1,1,0.2
		c0.1,0.1,0.6,0.2,1.2,0.3s1.4,0.2,2,0.3c2.3,0.5,3.5,0.7,4.3,0.8c0.5,0.1,1.1,0.2,1.3,0.3c0.2,0.1,0.8,0.2,1.3,0.3
		c0.8,0.1,1.8,0.3,4.3,0.8c0.6,0.1,1.5,0.3,1.9,0.3c0.5,0.1,1.1,0.2,1.3,0.3c0.2,0.1,0.8,0.2,1.3,0.3c0.8,0.1,1.4,0.2,4.2,0.8
		c3.3,0.7,3.8,0.4,3.8-2c0-1.6-0.1-1.8-1.3-1.9c-0.5-0.1-1.6-0.2-2.2-0.3c-0.7-0.1-1.8-0.3-2.4-0.4c-0.6-0.1-1.7-0.3-2.4-0.4
		c-0.6-0.1-1.7-0.3-2.3-0.4c-0.6-0.1-1.5-0.3-1.9-0.3c-1.5-0.3-1.6-1-0.2-1.7c0.5-0.2,1.2-0.7,1.6-0.9c0.4-0.3,1.1-0.7,1.6-0.9
		c0.4-0.2,1.1-0.6,1.5-0.9c0.8-0.5,1.9-1.1,2.7-1.5c0.3-0.2,0.6-0.3,0.6-0.4c0.1-0.1,1.6-0.9,2.5-1.4c0.8-0.4,1-1.2,0.8-3.7
		c-0.2-3.5,0.3-3.2-6.5-3.4c-8.9-0.2-9.5-0.3-9.2-1.3c0.1-0.3,1.1-0.8,1.6-0.8c0.2,0,0.4-0.1,0.5-0.2c0.1-0.1,0.4-0.2,0.6-0.2
		c0.3,0,0.6-0.1,0.6-0.2c0.1-0.1,0.4-0.2,0.6-0.2c0.3,0,0.6-0.1,0.6-0.2c0.1-0.1,0.4-0.2,0.8-0.2c0.3,0,0.7-0.1,0.8-0.2
		c0.1-0.1,0.4-0.2,0.6-0.2c0.3,0,0.6-0.1,0.6-0.2c0.1-0.1,0.4-0.2,0.6-0.2c0.3,0,0.6-0.1,0.6-0.2c0.1-0.1,0.4-0.2,0.6-0.2
		s0.6-0.1,0.6-0.2c0.1-0.1,0.4-0.2,0.6-0.2c0.3,0,0.6-0.1,0.6-0.2c0.1-0.1,0.4-0.2,0.6-0.2c0.3,0,0.6-0.1,0.6-0.2
		c0.1-0.1,0.3-0.2,0.5-0.2c1,0,1.6-0.8,1.5-2.1c-0.1-1.3-0.7-4.2-0.8-4.2c0,0-0.3-0.2-0.5-0.3C220.4,87.6,220.3,87.6,219.6,88.1
		 M26.9,102.8c-0.4,0.3-0.8,0.6-1.1,0.9c-0.2,0.2-0.5,0.4-0.6,0.4c-0.1,0-0.4,0.2-0.6,0.4c-0.3,0.2-0.6,0.4-0.7,0.4
		s-0.3,0.1-0.3,0.2c0,0.1-0.3,0.3-0.8,0.5c-0.4,0.2-0.8,0.4-0.8,0.4c0,0.1-0.3,0.3-0.7,0.4c-0.4,0.2-0.7,0.4-0.8,0.4
		c-0.1,0.1-0.7,0.4-1.4,0.8c-2.1,1.1-3.2,1.7-3.3,1.8c-0.7,0.7-2.6,1.3-2.9,0.9c-0.1-0.1-0.3-0.2-0.5-0.2S12,110,12,109.9
		c0-0.1-0.2-0.2-0.4-0.2c-0.2,0-0.4-0.1-0.4-0.2c0-0.1-0.2-0.2-0.4-0.3c-0.4-0.1-1.6-0.8-1.8-1c-0.1-0.1-0.4-0.4-0.9-0.6
		c-0.4-0.3-0.9-0.6-1-0.8c-0.2-0.2-0.6-0.5-1.1-0.9c-0.4-0.3-1.1-0.9-1.4-1.2c-0.4-0.3-0.7-0.6-0.8-0.6c-0.1,0-0.5-0.3-0.8-0.6
		c-0.9-0.9-2-0.9-2.3,0c-0.7,2.2,0,5.8,1.1,5.8c0.2,0,0.4,0.1,0.4,0.2c0,0.1,0.7,0.5,1.6,0.9c0.8,0.4,1.6,0.8,1.6,0.9s1,0.6,2,1.1
		c5.8,2.9,4.1,3.9-4.9,3.1c-1.5-0.1-1.5-0.1-1.8,0.4c-0.3,0.7-0.3,4.3-0.1,5.2c0.1,0.3,0.3,1,0.4,1.6l0.3,0.9l0.9-0.1
		c0.5-0.1,1.5-0.2,2.2-0.4c0.7-0.1,1.8-0.3,2.4-0.3c0.6-0.1,1.3-0.2,1.5-0.3c0.2-0.1,1-0.2,1.6-0.3c0.6-0.1,1.9-0.2,2.8-0.3
		c4.2-0.6,8.1-1,12.1-1.3c4.9-0.4,5.4-0.6,5.2-2.9c-0.2-2.9-0.5-3.1-5.6-2.3c-4.1,0.6-5,0.6-5-0.3c0-0.4,0.9-1.4,1.3-1.4
		c0.1,0,0.2-0.1,0.3-0.2c0.1-0.3,3.3-2.4,3.6-2.4c0.1,0,0.2-0.1,0.2-0.2c0-0.1,0.3-0.3,0.7-0.5c0.4-0.2,0.7-0.4,0.8-0.4
		c0.2-0.2,2-1.1,2.3-1.1c0.2,0,0.3-0.1,0.3-0.2c0-0.1,0.2-0.2,0.4-0.2c1.5,0,1.3-1.7-0.6-4.9C27.6,102.2,27.7,102.2,26.9,102.8
		 M166.4,108.1c0,0.6-0.1,1.4-0.1,1.7l-0.1,0.7h-1.7c-0.9,0-1.9,0.1-2.3,0.2c-0.3,0.1-0.8,0.3-1.1,0.5c-0.3,0.1-0.7,0.3-1,0.4
		s-0.8,0.4-1.3,0.7c-0.5,0.2-0.9,0.5-1,0.6c-0.2,0.2-2.2,0.6-3,0.6c-0.9,0-1.3,0.3-1.3,1c0,0.6,0.5,1.2,0.9,1.2
		c0.2,0,0.4,0.1,0.6,0.3c0.3,0.3,1.5,0,2.5-0.5c0.2-0.1,0.6-0.2,0.9-0.2c0.3,0,0.6-0.1,0.7-0.2c0.3-0.5,1.3-0.2,1.7,0.4
		c0.4,0.7,0.2,1.5-0.4,1.5c-0.1,0-0.3,0.1-0.3,0.2c0,0.1-0.3,0.3-0.7,0.5c-0.4,0.2-0.9,0.4-1.1,0.5c-0.8,0.3-2.1,0.5-5.1,0.6
		c-3.2,0.1-3.7,0.3-3.3,1.7c0.1,0.5,0.2,0.6,1,0.4c2.5-0.4,3.3-0.4,3.5,0c0.3,0.7-0.4,1.4-1.5,1.4c-0.5,0-1,0.1-1.1,0.2
		c-0.1,0.1-0.5,0.2-0.9,0.2c-1,0-1.7,0.7-1.4,1.3c0.3,0.4,1.7,0.6,2.1,0.3c0.1-0.1,0.5-0.2,0.8-0.2c0.3,0,0.6-0.1,0.7-0.2
		c0.1-0.1,0.4-0.2,0.8-0.2c0.3,0,0.7-0.1,0.8-0.2c0.2-0.3,1.5-0.3,1.8,0c0.6,0.6,0,1.5-0.9,1.5c-0.3,0-0.6,0.1-0.7,0.2
		c-0.1,0.1-0.6,0.2-1.1,0.3c-2.1,0.3-2.7,0.6-2.7,1.6c0,0.5,1.9,0.8,2.2,0.3c0.1-0.1,0.5-0.2,0.9-0.2c0.4,0,0.9-0.1,1-0.2
		c0.2-0.2,1-0.3,3.5-0.6c0.9-0.1,1.2-0.1,1.3,0.2c0.1,0.4-0.4,1-0.8,1c-0.1,0-0.2,0.1-0.2,0.2c0,0.1-0.6,0.2-1.2,0.3
		c-3.1,0.3-3.6,0.6-3,1.5c0.2,0.4,3.6,0.3,3.9,0c0.1-0.1,0.4-0.2,0.6-0.2c0.2,0,0.6-0.1,0.8-0.2c0.2-0.1,0.6-0.3,1-0.4
		c1.5-0.6,1.9-0.9,3.4-2.4c1.8-1.8,3-3.2,3-3.6c0-0.1,0.1-0.3,0.2-0.3c0.1,0,0.6-0.8,1.1-1.8l0.9-1.7l0-2.4c0-2.7-0.3-4.7-0.9-6
		c-0.2-0.5-0.6-1.4-0.8-2C167.3,106.6,166.4,106.5,166.4,108.1 M27.9,123.7c-0.4,0.1-1,0.2-1.4,0.2c-1.7,0.1-1.9,1-0.9,3.9
		c0.9,2.6,1.1,4.5,0.6,4.9c-0.5,0.4-1.8,1-2.7,1.3c-0.5,0.2-1.3,0.4-1.6,0.5c-2.5,0.8-4,0-4.3-2.1c-0.1-0.7-0.3-2-0.4-3
		c-0.3-1.6-0.4-2.1-0.9-3.4c-0.2-0.5-3-0.5-3.6,0c-0.6,0.4-0.5,1.9,0.1,4c0.3,0.9,0.6,2,0.7,2.4c0.2,0.7,0.4,1.7,0.8,3
		c0.1,0.5-0.8,1.2-1.7,1.2c-0.3,0-0.6,0.1-0.6,0.2c-0.1,0.1-0.4,0.2-0.8,0.2c-0.3,0-0.7,0.1-0.7,0.2c-0.2,0.3-3.1,0.5-3.8,0.3
		c-0.8-0.2-1-1.5-1-6.1v-3.8L5,127.2c-0.4-0.2-0.7-0.2-1.2,0c-0.4,0.1-1.1,0.3-1.6,0.3H1.2l0,1.2c0,1.3,0.5,5,0.8,6.9
		c0.1,0.6,0.3,1.6,0.4,2.2c1.2,7,2,8.4,4.1,7.3c0.2-0.1,0.8-0.3,1.3-0.5c0.5-0.1,1.1-0.3,1.3-0.5c0.2-0.1,0.6-0.2,0.8-0.2
		c0.2,0,0.5-0.1,0.6-0.2c0.1-0.1,0.4-0.2,0.8-0.2c0.3,0,0.7-0.1,0.8-0.2c0.1-0.1,0.4-0.2,0.8-0.2s0.7-0.1,0.8-0.2
		c0.1-0.1,0.4-0.2,0.7-0.2c0.3,0,0.7-0.1,0.9-0.2s0.8-0.3,1.3-0.5c1.8-0.5,2.5-0.7,3-0.9c0.3-0.1,0.7-0.2,1-0.2s0.6-0.1,0.6-0.2
		c0.1-0.1,0.4-0.2,0.8-0.2c0.3,0,0.7-0.1,0.8-0.2c0.1-0.1,0.4-0.2,0.8-0.2c0.3,0,0.7-0.1,0.7-0.2c0.1-0.1,0.4-0.2,0.8-0.3
		c0.4-0.1,1.1-0.2,1.7-0.4c0.5-0.1,1.3-0.3,1.7-0.4c0.4-0.1,0.8-0.2,0.8-0.3c0.1-0.1,0.4-0.2,0.6-0.2s0.7-0.1,1-0.2
		c0.3-0.1,0.6-0.3,0.8-0.4c0.5-0.2,0.3-2.4-0.4-6.3c-0.3-1.7-0.7-4-0.9-5.1C29.9,123.7,29.5,123.3,27.9,123.7 M193.7,133.3
		c-0.1,0.4-0.3,0.9-0.4,1.1c-1.1,2.7-0.5,3.5,3.4,4.1c0.4,0.1,0.7,0.2,0.7,0.3c0,0.1,0.1,0.2,0.3,0.2c0.5,0,0.6,0.5,0.1,1.7
		c-0.7,2-0.3,6.6,0.6,6.9c0.1,0,0.2,0.2,0.2,0.4c0,0.9,4.4,4.4,5.5,4.4c0.2,0,0.5,0.1,0.7,0.2c1.9,1,7.5,1,9.3,0
		c0.2-0.1,0.5-0.2,0.7-0.2c0.2,0,0.3-0.1,0.3-0.2c0-0.1,0.3-0.3,0.7-0.5c1.4-0.6,2.1-1.9,2.8-5c0.2-1.1,0.5-2.3,0.6-2.7
		c0.2-1.1,1.3-4.4,1.5-4.7c0.1-0.1,0-0.3-0.4-0.5c-0.3-0.2-0.8-0.4-1-0.5c-0.2-0.1-0.6-0.2-0.8-0.2c-0.2,0-0.5-0.1-0.6-0.2
		c-0.1-0.1-0.4-0.2-0.8-0.2c-0.3,0-0.7-0.1-0.8-0.2c-0.1-0.1-0.5-0.2-1-0.2c-0.5,0-0.9-0.1-1-0.2c-0.1-0.2-0.6-0.3-2.7-0.6
		c-0.5-0.1-1.1-0.2-1.2-0.3c-0.1-0.1-0.6-0.2-1-0.2c-0.4,0-0.9-0.1-0.9-0.2c-0.1-0.1-0.5-0.2-0.9-0.3c-0.4-0.1-1.5-0.3-2.3-0.5
		c-0.8-0.2-1.9-0.3-2.3-0.3c-0.4,0-0.9-0.1-0.9-0.2c-0.1-0.1-0.4-0.2-0.8-0.2c-0.3,0-0.7-0.1-0.8-0.2c-0.1-0.1-0.4-0.2-0.6-0.2
		c-0.3,0-0.6-0.1-0.6-0.2c-0.1-0.1-0.4-0.2-0.6-0.2c-0.3,0-0.6-0.1-0.6-0.2c-0.1-0.1-0.5-0.2-0.9-0.2c-0.4,0-0.8-0.1-0.9-0.2
		C196.2,132.2,194,132.6,193.7,133.3 M31.4,140.8c-0.2,0.2-0.5,0.4-0.7,0.4c-0.2,0-0.3,0.1-0.3,0.2c0,0.1-0.5,0.2-1.2,0.2
		c-1.5,0-1.6,0.2-1.1,1.9c0.3,1,2,3.8,2.5,4.2c0.3,0.2,0.4,1.4,0.1,1.8c-0.3,0.4-0.9,0.4-11.6,0.4c-11.4,0-11.9,0-12.4,0.7
		c-0.2,0.2,0,1.4,0.3,1.7c0.1,0.1,0.2,0.3,0.2,0.5c0,0.6,4.7,10.4,5,10.4c0.1,0,0.2,0.2,0.2,0.4c0,0.2,0.1,0.4,0.2,0.4
		c0.1,0,0.3,0.4,0.4,0.9c0.4,1.5,0.7,1.8,2,1.7c1.3,0,3.2-0.5,3.4-0.8c0.2-0.2,0-1.7-0.2-1.9c-0.1-0.1-0.5-0.6-0.9-1.3
		c-0.4-0.7-1.2-1.7-1.8-2.2c-0.5-0.6-1.2-1.6-1.5-2.2l-0.6-1.2l0.5-0.4c0.3-0.2,0.7-0.4,0.9-0.4c0.2,0,0.4-0.1,0.5-0.2
		c0.4-0.4,4.8-0.8,12-1.1c12.5-0.6,11.9-0.2,9-6.1c-1.3-2.7-2.4-5.4-2.8-7.4C33.3,140.5,32.1,140.1,31.4,140.8 M206.4,140.7
		c0.5,0.1,1.1,0.2,1.2,0.3c0.1,0.1,0.5,0.2,0.9,0.2c0.4,0,0.8,0.1,0.8,0.2c0.1,0.1,0.4,0.2,0.8,0.2c0.3,0,0.7,0.1,0.8,0.2
		c0.1,0.1,0.4,0.2,0.6,0.2c0.3,0,0.6,0.1,0.6,0.2c0.1,0.1,0.3,0.2,0.5,0.2c0.6,0,1.6,0.6,2.3,1.3c0.7,0.8,0.6,1-0.9,1.7
		c-0.6,0.3-1.2,0.6-1.4,0.7c-0.2,0.1-0.6,0.2-0.8,0.2c-0.2,0-0.5,0.1-0.6,0.2c-0.1,0.1-0.9,0.2-1.9,0.2s-1.9-0.1-1.9-0.2
		c-0.1-0.1-0.3-0.2-0.5-0.2c-0.2,0-0.4-0.1-0.4-0.2c0-0.1-0.2-0.2-0.4-0.2c-0.2,0-0.4-0.1-0.4-0.2s-0.1-0.2-0.2-0.2
		c-0.7,0-3.9-2.8-4.1-3.7C200.8,140.4,202.1,140,206.4,140.7 M70.3,148.5c0,3.2-0.1,3.7-0.4,4.5c-0.2,0.5-0.4,1-0.4,1.2
		c0,0.4-2.4,3.4-3.5,4.3c-0.5,0.4-1,0.8-1.2,1c-0.2,0.1-0.4,0.3-0.5,0.3c-0.1,0-0.4,0.1-0.7,0.3c-0.3,0.2-0.6,0.2-1.1,0
		c-0.4-0.1-0.9-0.3-1.1-0.3c-0.7,0-1.4-0.9-1.4-1.7c0-1.1,0.9-2.7,1.5-2.7c0.1,0,0.2-0.1,0.2-0.2c0-0.1,0.2-0.2,0.4-0.3
		c1.7-0.6,5.6-3.6,5.6-4.4c0-0.2,0.1-0.3,0.2-0.3c0.3,0,2-4.2,2-5.1c0-0.2,0.1-0.3,0.2-0.3C70.2,144.9,70.3,146.2,70.3,148.5
		 M156.4,147.5c0.4,0.5,1.1,1.3,1.5,1.8c0.8,0.9,0.8,1,1.4,6.4c0.1,1.1,0.3,2.4,0.3,2.8c0.1,0.9-0.9,2.9-1.5,3
		c-0.9,0.1-1.6,0.6-3.1,1.9c-0.7,0.6-2.8,1.2-2.8,0.8c0-0.1-0.3-0.5-0.6-0.8c-0.3-0.4-0.8-1-1.1-1.4l-0.5-0.7l0.9-1
		c0.5-0.5,1.1-1,1.3-1c0.2,0,0.4-0.1,0.4-0.2c0-0.1,0.1-0.2,0.3-0.2c0.2,0,0.5-0.1,0.7-0.2c0.2-0.1,0.6-0.3,1-0.5
		c0.9-0.4,1-4.8,0.2-9.9c-0.1-0.8-0.3-1.8-0.3-2.3l-0.1-0.9l0.6,0.7C155.3,146.2,156,147,156.4,147.5 M186.6,153.7
		c-0.3,0.4-0.6,0.9-0.7,1c-0.4,0.6-1.8,2.9-2.1,3.5c-0.2,0.4-0.4,0.7-0.5,0.7c-0.1,0-0.2,0.1-0.2,0.3c0,0.2-0.2,0.7-0.4,1.1
		c-0.5,0.8-0.6,1.7-0.2,1.9c0.1,0.1,0.2,0.3,0.2,0.4c0,0.2,0.2,0.7,0.4,1.2c0.2,0.5,0.5,1.2,0.7,1.6c1.3,3.4,5,7.3,8.5,8.9
		c0.6,0.3,1.2,0.6,1.4,0.7c0.2,0.1,0.6,0.2,0.8,0.2c0.2,0,0.5,0.1,0.6,0.2c0.1,0.1,0.4,0.2,0.7,0.2c0.3,0,0.7,0.1,0.8,0.2
		c0.1,0.1,0.6,0.3,1.2,0.3c6.7,0.9,6.2,0.9,6.9,0c0.3-0.5,0.6-0.9,0.7-0.9c0.5-0.4,3.6-5.4,5-8l0.8-1.4l-0.8-1.4
		c-0.9-1.5-1.2-1.9-1.8-2.7c-0.2-0.3-0.5-0.7-0.6-0.9c-1.2-1.7-5.6-5.4-6.3-5.4c-0.1,0-0.2-0.1-0.2-0.2c0-0.1-0.3-0.3-0.7-0.5
		c-1.5-0.6-1.8-0.7-2.1-0.9c-0.2-0.1-0.6-0.2-0.9-0.2c-0.3,0-0.6-0.1-0.7-0.2c-0.3-0.3-2-0.5-5.9-0.6l-3.8-0.1L186.6,153.7
		 M38.7,155.7c-0.3,0.4-0.9,1.1-1.3,1.6c-0.4,0.5-0.8,1-0.8,1.1s-0.2,0.4-0.5,0.6c-0.3,0.3-0.8,0.9-1.2,1.5c-0.4,0.5-0.8,1-0.9,1.1
		c-0.1,0.1-0.5,0.5-0.9,1.1c-0.4,0.5-0.8,1-0.9,1.1c-0.1,0.1-0.5,0.5-0.9,1.1c-0.4,0.5-1.1,1.3-1.4,1.7c-0.4,0.4-0.7,0.8-0.7,0.9
		c0,0.1-0.4,0.6-0.9,1.1c-0.5,0.5-0.9,1-0.9,1.1c0,0.1-0.2,0.4-0.5,0.6c-0.3,0.3-0.8,0.9-1.2,1.5c-0.4,0.5-1,1.2-1.2,1.5
		s-0.5,0.6-0.5,0.6c0,0.7-1.1,0.6-1.1-0.1c0-0.5-1.7-2.6-1.9-2.5c-0.2,0.1-0.7,0.3-1.1,0.5c-1.3,0.6-2.8,2.3-1.9,2.3
		c0.1,0,0.3,0.3,0.5,0.6c0.2,0.4,0.5,0.8,0.6,0.9c0.1,0.2,0.6,0.7,1,1.2c0.4,0.5,0.9,1.1,1,1.3c0.1,0.2,0.3,0.4,0.3,0.4
		s0.3,0.5,0.6,0.9c0.4,0.4,0.6,0.8,0.6,0.9c0,0.1,0.2,0.4,0.5,0.7c0.3,0.3,0.7,0.9,1,1.3c0.3,0.4,0.7,1,1,1.3
		c0.3,0.3,0.5,0.6,0.5,0.6c0,0.1,0.3,0.5,0.6,0.9c0.4,0.4,0.6,0.8,0.6,0.9c0,0.1,0.2,0.4,0.5,0.7c0.3,0.3,0.7,0.9,1,1.3
		c0.9,1.3,1,1.3,2.5,1.3c1.6,0,2-0.3,2.5-1.6c0.2-0.6,0.2-0.9,0.1-1c-0.3-0.2-2.3-1.9-3.3-2.9c-0.9-0.8-0.8-1.5,0.1-1.5
		c0.2,0,0.3-0.1,0.3-0.2c0-0.1,0.1-0.2,0.3-0.2c0.2,0,1-0.4,2-0.9c0.9-0.5,1.8-0.9,2-0.9c0.2,0,0.3-0.1,0.3-0.2
		c0-0.1,0.1-0.2,0.3-0.2c0.2,0,1-0.4,2-0.9c0.9-0.5,1.8-0.9,2-0.9c0.2,0,0.3-0.1,0.3-0.2c0-0.1,0.2-0.2,0.4-0.2
		c0.2,0,0.4-0.1,0.4-0.2s0.1-0.2,0.3-0.2c0.2,0,1-0.4,2-0.9c0.9-0.5,1.8-0.9,2-0.9c0.2,0,0.3-0.1,0.3-0.2s0.1-0.2,0.3-0.2
		c0.2,0,1-0.4,2-0.9c0.9-0.5,1.8-0.9,2-0.9s0.3-0.1,0.3-0.2c0-0.1,0.2-0.2,0.4-0.2c0.2,0,0.4-0.1,0.4-0.2s0.2-0.2,0.4-0.2
		c0.8,0,0.9-0.5,0.3-1.9c-0.7-1.5-1.5-2.2-2.3-1.8c-0.6,0.3-1.4,0.6-2.2,0.9c-1,0.4-1.7,0.7-2.1,0.9c-0.9,0.5-2.1,0.2-2.8-0.5
		c-2.7-3-2.1-4.1,2.3-4.1c3.3,0,3.1,0.1,2.5-1.6l-0.4-1.1l-2.9,0.1c-1.6,0-3,0.1-3,0.2c-0.4,0.2,0.1-1.1,0.5-1.4
		c0.2-0.2,1.5-2.4,1.5-2.6c0-0.3-1.2-2.7-1.6-3.1C39.8,154.9,39.4,154.8,38.7,155.7 M192.5,158.9c0.6,0.1,1.4,0.3,1.8,0.4
		c0.4,0.1,0.8,0.2,0.8,0.3c0.1,0.1,0.3,0.2,0.6,0.2c0.3,0,0.6,0.1,0.6,0.2c0.1,0.1,0.3,0.2,0.5,0.2c0.2,0,0.4,0.1,0.4,0.2
		c0,0.1,0.2,0.2,0.4,0.2c0.2,0,0.4,0.1,0.4,0.2s0.3,0.3,0.6,0.4c1.2,0.6,2.9,2.1,4.2,3.9c1.3,1.8,2.1,3.4,2,4.1
		c-0.1,0.7-1.3,1.4-2.1,1.2c-0.3-0.1-1.1-0.2-1.7-0.3c-2.5-0.4-2.8-0.5-2.9-0.7c-0.1-0.1-0.3-0.2-0.5-0.2c-0.2,0-0.6-0.1-0.8-0.2
		s-0.9-0.4-1.4-0.7c-0.6-0.3-1.1-0.6-1.1-0.7c0-0.1-0.2-0.2-0.3-0.2c-0.1,0-0.3-0.1-0.5-0.3c-0.2-0.1-0.7-0.6-1.2-1
		c-1.2-1-2.3-2.1-4.7-5c-0.4-0.4-0.6-0.9-0.6-1c0-0.5,0.5-1.4,0.8-1.4c0.2,0,0.3-0.1,0.3-0.2C188.1,158.4,190.9,158.5,192.5,158.9
		 M38,169.8c2.5,2.6,2.4,3-1.3,4.5c-1.2,0.5-1.7,0.7-2,0.9c-0.2,0.1-0.5,0.2-0.8,0.2c-0.2,0-0.5,0.1-0.6,0.2
		c-0.1,0.1-0.6,0.3-1.1,0.3l-0.9,0.1l0.7-1.4c0.4-0.7,0.8-1.5,0.9-1.6c0.5-0.6,1.9-3,1.9-3.1c0-0.1,0.1-0.2,0.2-0.2
		c0.1,0,0.4-0.3,0.7-0.7C36.2,168,36.4,168.1,38,169.8 M135.5,170.4c0,1.1-0.1,2.3-0.2,2.8s-0.3,1.3-0.3,1.9l-0.1,1.1h0.7
		c1.5,0,2.3-1.7,3-6.4l0.2-1.1l-0.8-0.1c-0.4-0.1-1.1-0.1-1.6-0.1l-0.8,0L135.5,170.4 M175.9,169.7c-0.5,0.4-1.2,1.1-1.5,1.3
		c-0.3,0.3-1,0.9-1.5,1.3c-0.5,0.4-1.2,1-1.5,1.3c-0.3,0.3-0.9,0.8-1.3,1.1c-1.1,0.9-0.6,2.8,0.7,2.8c0.2,0,0.3,0.1,0.3,0.2
		c0,0.1,0.2,0.2,0.4,0.2c0.2,0,0.4,0.1,0.4,0.2c0,0.1,0.1,0.2,0.3,0.2c0.3,0,0.6-0.5,0.6-1.1c0-1,1.3-2.4,2.2-2.4
		c0.2,0,3.1,2.9,7.5,7.6c8.2,8.7,9.2,9.6,10.1,8.9c2.6-2.1,5.2-6.1,4-6.1c-0.2,0-0.7-0.3-1.4-1c-0.1-0.1-0.6-0.5-1-0.7
		c-0.4-0.3-0.8-0.6-0.9-0.7c-0.1-0.1-0.4-0.4-0.9-0.7c-0.4-0.3-0.9-0.6-1-0.8s-0.6-0.5-1.1-0.9c-0.4-0.3-1-0.8-1.2-1
		c-0.2-0.2-0.8-0.7-1.2-1c-0.4-0.3-1-0.8-1.3-1.1c-0.3-0.3-1.1-1-1.7-1.5c-1.2-1-2-1.8-5.2-4.9c-1-1-2-1.8-2.1-1.8
		c-0.1,0-0.2-0.1-0.2-0.2C177.6,168.6,176.8,168.9,175.9,169.7 M54.4,176c-0.9,0.9-2.1,2-2.7,2.5c-0.6,0.5-1.3,1.1-1.5,1.3
		c-0.2,0.2-0.8,0.6-1.2,0.9c-0.4,0.3-0.8,0.6-0.9,0.8c-0.1,0.1-0.6,0.5-1,0.8c-0.4,0.3-0.9,0.7-1.1,0.9c-0.2,0.2-0.6,0.5-1,0.8
		c-0.4,0.3-0.8,0.6-0.9,0.7c-0.1,0.1-0.4,0.4-0.9,0.6c-0.4,0.3-0.8,0.6-0.9,0.6c-0.1,0.1-0.4,0.4-0.9,0.6c-0.4,0.3-0.9,0.7-1.1,0.9
		c-0.2,0.2-0.4,0.4-0.5,0.4c-0.1,0-0.3,0.1-0.4,0.3c-0.2,0.1-0.5,0.4-0.7,0.6c-2.7,2.2-3.2,2.6-3.5,3.2c-0.6,1.2-0.2,2.3,1.5,3.5
		c0.4,0.3,0.8,0.7,1,0.8c0.2,0.1,0.3,0.3,0.4,0.3c0.1,0,0.5,0.4,1,0.9c0.8,0.8,1.9,1.2,1.9,0.6c0-0.1,0.1-0.2,0.3-0.2
		c0.2,0,0.3-0.1,0.3-0.2c0-0.1,0.2-0.4,0.5-0.7c0.3-0.3,0.8-0.9,1.2-1.5c0.4-0.5,1.1-1.3,1.4-1.7c0.4-0.4,0.7-0.8,0.7-0.9
		c0-0.1,0.4-0.5,0.9-1c0.5-0.5,1.2-1.3,1.7-1.9c0.4-0.6,1.1-1.3,1.5-1.8c0.4-0.4,1.1-1.2,1.5-1.7c0.4-0.5,1.1-1.3,1.4-1.6
		c0.4-0.4,1.1-1.2,1.6-1.8c0.5-0.6,1.2-1.5,1.6-1.8c0.3-0.4,1-1.1,1.4-1.6c0.4-0.5,0.9-1.1,1.2-1.3c1-0.9-0.4-3.6-1.8-3.6
		C56.2,174.5,55.6,174.9,54.4,176 M165.6,179c-0.3,0.1-0.9,0.2-1.2,0.2c-0.4,0-0.9,0.1-1.1,0.2c-0.2,0.1-0.7,0.4-1.2,0.6
		c-1,0.4-2.5,1.9-2.5,2.3c0,0.2-0.1,0.4-0.2,0.5c-0.3,0.2-1.9,5.4-2.1,7.1c-0.1,1.1-0.1,1.2,1.2,2.1c0.4,0.3,1,0.8,1.3,1
		c0.3,0.3,1.2,0.8,2,1.2c0.8,0.4,1.6,0.8,1.8,0.9c0.2,0.1,0.6,0.2,0.9,0.2c0.3,0,0.6,0.1,0.7,0.2c0.1,0.1,1.2,0.2,2.7,0.3
		c2.4,0,2.7,0,4-0.7c0.6-0.3,4.2-0.2,4.7,0.1c1.3,0.8,2.4,2,2.1,2.6c-0.3,0.7-0.8,1.1-1.1,1.1c-0.1,0-0.4,0.1-0.6,0.2
		c-1.2,0.6-1.6,0.7-2.7,0.6c-0.6-0.1-1.7-0.2-2.3-0.4c-2.4-0.5-2.8-0.4-3.6,0.7c-1,1.4-1,3.2,0,4.1c1.1,1.1,6.6,1.4,8.3,0.5
		c0.2-0.1,0.6-0.2,0.8-0.2c0.2,0,0.4-0.1,0.4-0.2c0-0.1,0.1-0.2,0.3-0.2c0.7,0,2.8-2.1,3.5-3.6c0.3-0.6,0.6-1.1,0.7-1.2
		c1.3-1,2.2-5,1.5-6.3c-0.8-1.3-2.7-3.6-3.2-3.6c-0.1,0-0.3-0.1-0.3-0.2c0-0.1-0.1-0.2-0.3-0.2c-0.2,0-0.3-0.1-0.3-0.2
		c0-0.1-0.2-0.2-0.4-0.2c-0.2,0-0.5-0.1-0.5-0.2c-0.1-0.1-0.4-0.2-0.6-0.2c-0.3,0-0.6-0.1-0.6-0.2c-0.1-0.1-1.1-0.2-2.3-0.2
		c-1.2,0-2.2,0.1-2.3,0.2c-0.1,0.1-0.4,0.2-0.8,0.2c-0.3,0-0.7,0.1-0.8,0.2c-0.1,0.1-0.4,0.2-0.8,0.2c-0.3,0-0.7,0.1-0.7,0.2
		c-0.3,0.4-4.7,0.9-5.1,0.5c-0.1-0.1-0.5-0.2-0.7-0.2c-0.3,0-0.7-0.1-0.9-0.2c-0.2-0.1-0.6-0.3-0.9-0.3c-3.4-0.7-0.2-5.1,3.7-5.1
		c3.4,0,4.5-0.3,4.8-1.4c0.1-0.5,0.3-1.1,0.4-1.5c0.3-0.7,0.1-1-0.6-1c-0.3,0-0.6-0.1-0.6-0.2C170,178.8,166.4,178.8,165.6,179
		 M63.7,181.2c-0.6,0.3-1.8,1.5-8.2,8.1c-2.4,2.5-5.7,5.9-7.2,7.5c-1.5,1.6-3.2,3.2-3.6,3.7l-0.8,0.9l0.4,0.8c0.6,1.2,2.8,3,3.7,3
		c0.4,0,2.8-2.4,3-3.1c0.1-0.2,0.2-0.4,0.3-0.4c0.1,0,0.3-0.3,0.4-0.6c0.1-0.4,0.3-0.6,0.4-0.6c0.1,0,0.3-0.3,0.4-0.6
		c0.1-0.4,0.3-0.6,0.4-0.6c0.1,0,0.3-0.3,0.4-0.6c0.1-0.4,0.3-0.6,0.4-0.6c0.1,0,0.3-0.3,0.4-0.6c0.1-0.4,0.3-0.6,0.4-0.6
		c0.1,0,0.2-0.2,0.3-0.4c0.1-0.2,0.3-0.6,0.4-0.7c0.1-0.1,0.6-0.7,1-1.2c1-1.4,1.1-1.4,1.8-1.6c1.3-0.3,1.5,0.7,0.5,2.7
		c-0.3,0.5-0.7,1.6-0.9,2.3c-0.2,0.7-0.4,1.5-0.5,1.7c-0.6,1.6-2.4,7.4-2.6,8.3c-0.2,1.1-0.2,1.1,1.1,2c0.4,0.3,0.9,0.7,1,0.8
		c0.2,0.2,0.6,0.5,1.1,0.9c0.4,0.3,0.9,0.7,1.1,0.9c0.4,0.4,0.5,0.3,1.1-0.1c0.8-0.6,3.6-3.7,4.2-4.6c0.1-0.2,0.4-0.5,0.5-0.7
		c0.2-0.2,0.7-0.8,1.1-1.3c0.4-0.5,0.8-1,0.9-1.1c0.1-0.1,0.5-0.5,0.9-1.1c0.4-0.5,0.9-1.2,1.1-1.4c0.2-0.2,0.6-0.7,0.9-1.1
		c1.2-1.7,2.5-0.7,1.9,1.3c-0.1,0.4-0.6,2.4-1.1,4.4c-0.5,2.1-1,4.1-1.1,4.6c-0.1,0.4-0.3,1.2-0.4,1.6c-0.1,0.4-0.3,1.3-0.5,1.8
		c-0.3,1.2,0,2.3,0.7,2.3c0.2,0,0.4,0.1,0.4,0.2c0,0.1,0.2,0.2,0.4,0.2c0.2,0,0.4,0.1,0.4,0.2c0,0.1,0.3,0.3,0.8,0.5
		s0.8,0.4,0.8,0.5c0,0.1,0.2,0.2,0.4,0.2c0.2,0,0.5,0.1,0.5,0.2c0.1,0.1,0.5,0.2,0.9,0.2c1.1,0,1.3-0.4,1.8-3.6
		c0.1-0.7,0.3-1.9,0.4-2.5c0.1-0.7,0.3-1.8,0.4-2.5c0.1-0.7,0.3-1.9,0.4-2.6c1.1-6.6,1.9-11.1,2.6-14.4c0.1-0.5,0.3-1.2,0.3-1.6
		c0.2-0.8-0.5-2-1.2-2.3c-0.3-0.1-0.7-0.3-0.9-0.4c-0.9-0.4-1.7-0.2-2.5,0.7c-0.4,0.5-1.3,1.4-1.9,2.1c-0.6,0.7-1.8,1.9-2.6,2.8
		c-0.8,0.9-1.9,2.1-2.4,2.6c-5.2,5.5-5.2,5.5-1.9-4.4l2.4-7.4l-0.4-0.9c-0.5-1.1-2.2-2.9-2.9-3c-0.3-0.1-0.6-0.2-0.8-0.2
		C64.4,181,64,181.1,63.7,181.2 M145,190.7c-0.6,0.6-1.8,2.7-1.8,3.3c0,0.1-0.3,0.8-0.6,1.5c-0.8,1.5-0.8,1.7-0.2,2.2
		c0.6,0.5,0.8,0.5,1.1-0.1c0.7-1.3,2.4-1.9,3.6-1.3c0.2,0.1,0.7,0.3,1.1,0.5c0.4,0.2,0.7,0.4,0.7,0.4c0,0.1,0.1,0.2,0.2,0.2
		c0.7,0,5.6,4.3,5.6,4.9c0,0.1,0.3,0.5,0.6,0.9c0.4,0.4,0.6,0.8,0.6,0.9c0,0.1,0.1,0.3,0.3,0.5c2,2.2,2.4,7.5,0.6,7.5
		c-0.3,0-0.6-0.1-0.6-0.2c0-0.1-0.3-0.3-0.6-0.5c-0.3-0.2-0.9-0.6-1.2-0.9c-0.4-0.3-0.7-0.6-0.9-0.6c-0.3,0-1.5-1.3-2-2.3
		c-0.7-1.3-1.4-2.3-1.8-2.8l-0.5-0.5l-1,0.5c-0.5,0.3-1,0.6-1,0.7c0,0.1-0.2,0.2-0.3,0.2c-0.5,0-1.7,1.5-1.9,2.4
		c-0.2,0.9,0.3,2.4,0.7,2.4c0.1,0,0.2,0.1,0.2,0.3c0,0.4,2.7,3.2,3.6,3.7c0.4,0.2,0.7,0.5,0.7,0.6c0,0.1,0.1,0.2,0.2,0.2
		c0.1,0,0.9,0.5,1.8,1c2.2,1.5,2.6,1.6,3.6,1.3c0.5-0.1,0.9-0.3,0.9-0.4c0-0.1,0.2-0.2,0.5-0.2c0.4,0,1.8-0.7,2.1-1.1
		c0.2-0.2,2-1.1,2.3-1.1c0.2,0,0.3-0.1,0.3-0.2c0-0.1,0.2-0.2,0.4-0.2c0.2,0,0.4-0.1,0.4-0.2s0.2-0.3,0.5-0.4
		c2.4-1.3,0.5-11.1-3-15.6c-1.2-1.5-3.9-4.1-4.3-4.1c-0.1,0-0.2-0.1-0.2-0.2c0-0.1-0.3-0.3-0.7-0.4c-1.5-0.6-1.8-0.7-2.1-0.9
		c-0.2-0.1-0.5-0.2-0.7-0.2c-0.2,0-0.3-0.1-0.3-0.2c0-0.1-0.2-0.2-0.4-0.2c-0.2,0-0.5-0.1-0.5-0.2c-0.1-0.1-0.3-0.2-0.5-0.2
		c-0.2,0-0.4-0.1-0.4-0.2c0-0.1-0.2-0.2-0.5-0.2c-0.3,0-0.6-0.1-0.7-0.2c-0.1-0.1-0.4-0.2-0.8-0.2c-0.3,0-0.7-0.1-0.8-0.2
		C146.8,189.8,145.7,190,145,190.7 M84.4,194.3c-0.2,0.7-0.5,1.4-0.7,1.6c-1,0.9-0.8,1.9,0.4,1.9c0.3,0,0.7,0.1,0.9,0.2
		c0.2,0.2,0.8,0.2,1.8,0.1c6.8-0.6,8.1-0.3,6.6,1.4c-0.2,0.3-0.4,0.6-0.4,0.6s-0.2,0.4-0.5,0.8s-0.5,0.7-0.5,0.9
		c0,0.1-0.1,0.3-0.2,0.3c-0.1,0-0.4,0.4-0.7,0.8c-0.3,0.4-0.7,0.9-0.8,1.1c-0.1,0.2-0.3,0.4-0.3,0.4c0,0.1-0.2,0.4-0.5,0.7
		c-0.3,0.3-0.7,0.9-1,1.3c-0.3,0.4-0.6,0.9-0.8,1c-0.2,0.2-0.3,0.4-0.3,0.4c0,0.1-0.2,0.4-0.5,0.7s-0.8,1-1.2,1.5
		c-0.4,0.5-1,1.2-1.2,1.5c-0.3,0.3-0.5,0.6-0.5,0.7c0,0.1-0.4,0.6-0.9,1.1c-0.5,0.5-0.9,1-0.9,1.1c0,0.1-0.4,0.6-0.9,1.1
		c-0.5,0.5-0.9,1.1-1,1.3c-0.1,0.2-0.2,0.4-0.3,0.4c-0.1,0-0.3,0.4-0.5,0.8c-0.6,1.4-0.1,3.1,0.9,3.1c0.2,0,0.5,0.1,0.6,0.2
		c0.1,0.1,0.4,0.2,0.6,0.2c0.3,0,0.6,0.1,0.6,0.2c0.1,0.1,0.5,0.2,0.9,0.2c0.4,0,0.8,0.1,0.9,0.2c0.1,0.1,0.5,0.2,0.9,0.2
		c0.4,0,0.8,0.1,0.8,0.2c0.1,0.1,0.5,0.2,0.9,0.3c0.4,0.1,1.3,0.2,2,0.4c0.6,0.1,1.6,0.3,2.1,0.3c0.5,0.1,1.2,0.2,1.4,0.3
		c0.2,0.1,0.9,0.2,1.4,0.3c0.5,0.1,1.7,0.2,2.7,0.3c1.4,0.2,1.8,0.2,2-0.1c0.3-0.4,0.9-1.8,0.9-2.4c0-0.2,0.2-0.8,0.5-1.2
		c0.5-0.9,0.5-0.9-0.6-2c-0.4-0.4-0.6-0.4-1.8-0.3c-2.5,0.3-8.8,0.1-8.8-0.3c0-0.1,0.9-1.4,1.2-1.7c0.1-0.2,0.6-0.8,1.1-1.5
		c0.4-0.7,1-1.4,1.2-1.6c0.2-0.2,0.4-0.5,0.4-0.7c0-0.1,0.1-0.3,0.2-0.3c0.1,0,0.8-1,1.6-2.1c0.8-1.1,1.5-2.2,1.6-2.3
		c0.1-0.1,0.3-0.5,0.4-0.7c0.1-0.2,0.2-0.4,0.3-0.4c0.1,0,0.2-0.2,0.3-0.4s0.3-0.6,0.4-0.7c0.1-0.1,0.9-1.2,1.6-2.3
		c0.8-1.1,1.4-2.1,1.5-2.2c0.1-0.1,0.4-0.4,0.6-0.9c0.3-0.4,0.7-1,1-1.3s0.5-0.6,0.5-0.7c0-0.1,0.1-0.3,0.3-0.5
		c0.3-0.3,0.3-0.4,0.1-0.8c-0.1-0.2-0.2-0.7-0.2-1c0-0.5-0.1-0.5-1.2-0.6c-5.5-0.5-11.1-1.3-12.4-1.9c-1.2-0.5-2.1-0.7-3.1-0.7h-1.1
		L84.4,194.3 M134.6,194.1c-0.1,0.1-0.4,0.2-0.7,0.2s-0.7,0.1-0.8,0.2c-0.1,0.1-1.1,0.3-2.1,0.3c-3.9,0.3-6.2,0.6-6.5,1
		c-0.1,0.1-0.5,0.2-0.9,0.2c-1.1,0-1.3,0.3-1.5,2.7c-0.3,2.8,0.2,3.3,2,2c0.3-0.2,0.7-0.4,0.9-0.4c0.2,0,0.4-0.1,0.5-0.2
		c0.1-0.1,0.4-0.2,0.7-0.2c0.3,0,0.5-0.1,0.5-0.2c0-0.1,0.2-0.2,0.5-0.2c0.3,0,0.6-0.1,0.7-0.2c0.2-0.3,3.4-0.3,3.8,0.1
		c0.5,0.4,1.4,3.1,1.6,4.7c0.3,2.4-0.5,2.9-5.3,2.9h-3.4l-0.4,0.7c-0.4,0.6-0.4,0.8,0,2.3c0.2,0.9,0.4,1.9,0.5,2.3
		c0.1,0.7,0.4,0.9,1.1,0.5c0.7-0.4,3.2-1.5,3.6-1.7c0.2-0.1,1.2-0.2,2-0.3c0.9-0.1,2.1-0.2,2.6-0.3c0.9-0.1,1-0.1,1.1,0.4
		c0.1,0.3,0.4,1.4,0.7,2.6c0.3,1.1,0.6,2.7,0.6,3.6l0.1,1.5l-0.9,0.2c-0.5,0.1-2.4,0.2-4.3,0.3c-4.3,0.1-4.5,0.3-3.7,4
		c0.5,2.3,0.4,2.2,1.8,2.1c2.4-0.2,3.4-0.4,3.6-0.6c0.1-0.1,0.6-0.2,1-0.2c0.4,0,0.9-0.1,0.9-0.2c0.1-0.1,0.5-0.3,1-0.3
		c2.2-0.3,2.5-0.4,2.6-0.6c0.1-0.1,0.5-0.2,1-0.2c0.5,0,0.9-0.1,1-0.2c0.1-0.1,0.5-0.2,1-0.2c0.5,0,0.9-0.1,1-0.2
		c0.1-0.1,0.3-0.2,0.5-0.2c0.9,0,1.4-0.8,1.2-2.2c-0.1-1.1-2-7.4-2.5-8.5c-0.1-0.2-0.2-0.5-0.2-0.8c0-0.2-0.2-0.9-0.4-1.5
		s-0.4-1.1-0.3-1.1s0-0.3-0.1-0.7c-0.1-0.4-0.9-3.3-1.7-6.5c-1.6-6.4-1.8-6.8-3.1-6.8C135,193.9,134.7,194,134.6,194.1 M110.2,205.5
		c-0.4,0-0.8,0.2-0.8,0.3s-0.1,0.2-0.3,0.2c-0.1,0-0.5,0.2-0.8,0.5c-2.5,2.1-1.9,6.1,1.1,7.9c1.7,1,6-0.5,6-2c0-0.1,0.1-0.3,0.2-0.3
		c0.1,0,0.3-0.6,0.3-1.3C116.3,207.3,113.9,205.1,110.2,205.5"/>
	<path id="path2" class="st2" d="M94.6,10.7c0,0.4,0,0.6,0.1,0.4c0.1-0.2,0.1-0.5,0-0.8C94.7,10.2,94.6,10.3,94.6,10.7 M66.9,16.5
		c0.4,0.4,0.8,0.8,0.8,0.8s-0.2-0.3-0.6-0.8c-0.4-0.4-0.8-0.8-0.8-0.8C66.2,15.7,66.5,16.1,66.9,16.5 M111,33.6c0.4,0,1,0,1.3,0
		c0.3,0,0-0.1-0.7-0.1C110.9,33.5,110.7,33.5,111,33.6 M115,33.6c0.3,0,0.9,0,1.2,0c0.3,0,0.1-0.1-0.6-0.1
		C114.9,33.5,114.7,33.5,115,33.6 M56.8,37c0.4,0.4,0.8,0.8,0.8,0.8c0.1,0-0.2-0.3-0.6-0.8c-0.4-0.4-0.8-0.8-0.8-0.8
		C56.1,36.2,56.4,36.6,56.8,37 M172,49.6l-0.7,0.8L172,49.6c0.8-0.6,1-0.8,0.8-0.8C172.8,48.8,172.4,49.1,172,49.6 M110.2,49.6
		c0.4,0,1,0,1.3,0s0-0.1-0.7-0.1C110.1,49.5,109.8,49.5,110.2,49.6 M177.8,53.5l-0.7,0.8L177.8,53.5c0.8-0.6,1-0.8,0.8-0.8
		C178.6,52.6,178.2,53,177.8,53.5 M193.5,53.8c-0.5,0.5-0.9,1-0.8,1s0.5-0.4,1.1-1c0.5-0.5,0.9-1,0.8-1S194,53.3,193.5,53.8
		 M15.3,59.3c0.3,0.1,0.7,0,0.9,0c0.2-0.1,0-0.1-0.5-0.1C15.2,59.2,15.1,59.2,15.3,59.3 M80,60.6c0.2,0.1,0.5,0.1,0.8,0
		c0.2-0.1,0-0.1-0.4-0.1C80,60.5,79.8,60.5,80,60.6 M58.4,91c0.2,0.1,0.5,0.1,0.8,0c0.2-0.1,0-0.1-0.4-0.1
		C58.3,90.9,58.2,91,58.4,91 M152.3,92.1c0.6,0,1.4,0,1.9,0c0.5,0,0-0.1-1-0.1C152.2,92,151.8,92.1,152.3,92.1 M212.1,100.3
		c0.4,0,1,0,1.4,0c0.4,0,0.1-0.1-0.7-0.1C212,100.2,211.7,100.3,212.1,100.3 M191.8,109.8c0,0.6,0,0.8,0.1,0.5c0-0.3,0-0.8,0-1.1
		C191.9,108.9,191.8,109.2,191.8,109.8 M128.9,114.7c0.5,0.6,1,1,1,1C130.1,115.7,129.9,115.5,128.9,114.7l-1-1L128.9,114.7
		 M191.8,114.8c0,0.6,0,0.8,0.1,0.5c0-0.3,0-0.8,0-1.1C191.9,113.9,191.8,114.2,191.8,114.8 M5.6,133c0,0.5,0,0.8,0.1,0.5
		c0.1-0.3,0.1-0.7,0-1C5.6,132.3,5.6,132.5,5.6,133 M197.2,143.6c0,0.4,0,0.6,0.1,0.4c0.1-0.2,0.1-0.5,0-0.8
		C197.2,143,197.2,143.2,197.2,143.6 M81.8,145.2c0,1.1,0,1.5,0.1,1c0-0.5,0-1.4,0-1.9C81.8,143.7,81.8,144.1,81.8,145.2
		 M70.2,145.6c0,0.5,0,0.6,0.1,0.4c0.1-0.3,0-0.7,0-0.9C70.2,144.9,70.2,145.2,70.2,145.6 M26.8,155.2c0.2,0.1,0.5,0.1,0.8,0
		c0.2-0.1,0-0.1-0.4-0.1C26.8,155.1,26.6,155.1,26.8,155.2 M205.7,158.6c0.4,0.4,0.8,0.8,0.8,0.8c0.1,0-0.2-0.3-0.6-0.8
		c-0.4-0.4-0.8-0.8-0.8-0.8C205,157.8,205.3,158.2,205.7,158.6 M170.7,166.2L170,167L170.7,166.2c0.8-0.6,1-0.8,0.8-0.8
		C171.5,165.4,171.1,165.8,170.7,166.2 M131.3,166c0.3,0,0.9,0,1.2,0c0.3,0,0.1-0.1-0.6-0.1C131.3,165.9,131,165.9,131.3,166
		 M63.4,167.1c1.6,0,4.1,0,5.7,0s0.3-0.1-2.8-0.1C63.1,167,61.8,167,63.4,167.1 M58.1,168.1c0.9,1,1.1,1.1,1.1,1
		C59.2,169,58.7,168.5,58.1,168.1l-1-1L58.1,168.1 M167,170l-0.6,0.7L167,170c0.5-0.3,0.8-0.6,0.8-0.6
		C167.7,169.2,167.6,169.3,167,170 M178.5,178.5c0.8,0.8,1.4,1.4,1.5,1.4c0.1,0-0.5-0.6-1.3-1.4c-0.8-0.8-1.4-1.4-1.5-1.4
		C177.1,177.1,177.7,177.7,178.5,178.5 M184.5,184.7c0.4,0.4,0.8,0.8,0.8,0.8c0.1,0-0.2-0.3-0.6-0.8c-0.4-0.4-0.8-0.8-0.8-0.8
		C183.8,184,184.1,184.3,184.5,184.7 M58.3,186.3l-0.7,0.8L58.3,186.3c0.8-0.6,1-0.8,0.8-0.8C59.1,185.5,58.7,185.9,58.3,186.3
		 M181.5,189.5c0,0,0.3,0.4,0.7,0.7l0.7,0.6l-0.6-0.7C181.6,189.4,181.5,189.3,181.5,189.5 M51,193.8c-0.5,0.5-0.9,1-0.8,1
		c0.1,0,0.5-0.4,1.1-1c0.5-0.5,0.9-1,0.8-1C52,192.8,51.5,193.3,51,193.8 M177.4,195.7c0,0,0.3,0.4,0.7,0.7l0.7,0.6l-0.6-0.7
		C177.6,195.7,177.4,195.6,177.4,195.7 M130.2,218.9c0.3,0,0.8,0,1.1,0c0.3-0.1,0-0.1-0.6-0.1C130.1,218.8,129.9,218.9,130.2,218.9"
		/>
	<path id="path3" class="st3" d="M123.2,0.1c0.3,0,0.8,0,1.1,0c0.3-0.1,0-0.1-0.6-0.1C123.1,0,122.8,0,123.2,0.1 M147.4,5.3
		c0.2,0.1,0.5,0.1,0.8,0c0.2-0.1,0-0.1-0.4-0.1C147.4,5.2,147.2,5.2,147.4,5.3 M62.2,21.4c0,0,0.3,0.4,0.7,0.7l0.7,0.6L62.9,22
		C62.3,21.4,62.2,21.2,62.2,21.4 M41.8,27.9c0,0,0.3,0.4,0.7,0.7l0.7,0.6l-0.6-0.7C42,27.9,41.8,27.7,41.8,27.9 M122.6,28
		c0.3,0.1,0.7,0.1,1,0c0.3-0.1,0-0.1-0.5-0.1C122.6,27.9,122.4,27.9,122.6,28 M109.4,33.6c0.2,0.1,0.5,0.1,0.8,0
		c0.2-0.1,0-0.1-0.4-0.1S109.2,33.5,109.4,33.6 M117,33.6c0.3,0.1,0.7,0,0.9,0c0.2-0.1,0-0.1-0.5-0.1
		C116.9,33.5,116.8,33.5,117,33.6 M106.2,33.8c0.2,0.1,0.5,0.1,0.8,0s0-0.1-0.4-0.1S106,33.7,106.2,33.8 M120.2,33.8
		c0.2,0.1,0.5,0.1,0.8,0c0.2-0.1,0-0.1-0.4-0.1C120.1,33.7,119.9,33.7,120.2,33.8 M115.4,36.2c0.7,0,1.7,0,2.4,0
		c0.6,0,0.1-0.1-1.2-0.1C115.3,36.1,114.8,36.1,115.4,36.2 M195.6,37c0.4,0.4,0.8,0.8,0.8,0.8c0.1,0-0.2-0.3-0.6-0.8
		c-0.4-0.4-0.8-0.8-0.8-0.8S195.2,36.6,195.6,37 M27,41.1c0,0,0.3,0.4,0.7,0.7l0.7,0.6l-0.6-0.7C27.2,41,27,40.9,27,41.1 M102.9,42
		c-0.5,0.5-0.9,1-0.8,1c0.1,0,0.5-0.4,1.1-1c0.5-0.5,0.9-1,0.8-1C103.9,41,103.5,41.4,102.9,42 M186.6,45l-0.7,0.8L186.6,45
		c0.8-0.6,1-0.8,0.8-0.8C187.4,44.2,187,44.6,186.6,45 M165.2,45.8c0.4,0.4,0.8,0.8,0.8,0.8s-0.2-0.3-0.6-0.8
		c-0.4-0.4-0.8-0.8-0.8-0.8S164.8,45.4,165.2,45.8 M199.5,47.4l-0.7,0.8L199.5,47.4c0.8-0.6,1-0.8,0.8-0.8
		C200.2,46.6,199.9,47,199.5,47.4 M126.3,49c0.9,1,1.1,1.1,1.1,1C127.4,50,126.9,49.5,126.3,49l-1-1L126.3,49 M181.5,49.9
		c-0.5,0.5-0.9,1-0.8,1c0.1,0,0.5-0.4,1.1-1c0.5-0.5,0.9-1,0.8-1C182.5,49,182,49.4,181.5,49.9 M112.3,49.6c0.3,0.1,0.7,0,0.9,0
		c0.2-0.1,0-0.1-0.5-0.1C112.2,49.5,112.1,49.5,112.3,49.6 M135.8,55.1c0,0.5,0,0.6,0.1,0.4c0.1-0.3,0-0.7,0-0.9
		C135.9,54.4,135.8,54.7,135.8,55.1 M191.9,55.5l-0.6,0.7L191.9,55.5c0.5-0.3,0.8-0.6,0.8-0.6C192.6,54.7,192.4,54.9,191.9,55.5
		 M168.8,56.4c0.4,0.4,0.8,0.8,0.8,0.8c0.1,0-0.2-0.3-0.6-0.8c-0.4-0.4-0.8-0.8-0.8-0.8C168.1,55.7,168.4,56,168.8,56.4 M17.6,59.3
		c0.7,0,1.7,0,2.4,0c0.6,0,0.1-0.1-1.2-0.1C17.4,59.2,16.9,59.2,17.6,59.3 M18.1,64.7c0.6,0,1.6,0,2.1,0c0.6,0,0-0.1-1.1-0.1
		C18,64.6,17.5,64.6,18.1,64.7 M24.5,64.7c0.6,0,1.4,0,1.9,0c0.5,0,0-0.1-1-0.1C24.3,64.6,23.9,64.6,24.5,64.7 M91.6,69
		c0,0.5,0,0.6,0.1,0.4c0.1-0.3,0-0.7,0-0.9C91.7,68.3,91.6,68.5,91.6,69 M214.6,70.1c0.2,0.1,0.5,0.1,0.8,0s0-0.1-0.4-0.1
		S214.4,70,214.6,70.1 M65,71.8c0,0.5,0,0.6,0.1,0.4c0.1-0.3,0-0.7,0-0.9C65.1,71.1,65,71.3,65,71.8 M161.5,71.2
		c0.3,0.1,0.7,0,0.9,0c0.2-0.1,0-0.1-0.5-0.1C161.4,71.1,161.2,71.1,161.5,71.2 M158,71.6c0.3,0.1,0.7,0,0.9,0
		c0.2-0.1,0-0.1-0.5-0.1C157.9,71.5,157.8,71.5,158,71.6 M65,73.7c0,0.5,0,0.6,0.1,0.4c0.1-0.3,0-0.7,0-0.9C65.1,73,65,73.2,65,73.7
		 M217.8,74.9c0,0.4,0,0.6,0.1,0.4c0.1-0.2,0.1-0.5,0-0.8C217.8,74.3,217.8,74.5,217.8,74.9 M215.9,75.9c0.3,0,0.9,0,1.2,0
		c0.3,0,0.1-0.1-0.6-0.1C215.8,75.8,215.5,75.9,215.9,75.9 M97.7,82.7L97,83.4L97.7,82.7c0.5-0.3,0.8-0.6,0.8-0.6
		C98.4,81.9,98.3,82.1,97.7,82.7 M88.9,85.2c0.3,0.1,0.7,0.1,1,0c0.3-0.1,0-0.1-0.5-0.1C88.9,85.1,88.7,85.2,88.9,85.2 M131.1,89.4
		c0,0.4,0,0.6,0.1,0.4s0.1-0.5,0-0.8C131.1,88.8,131.1,89,131.1,89.4 M58.1,90.2c0,0.4,0,0.6,0.1,0.4c0.1-0.2,0.1-0.5,0-0.8
		C58.2,89.6,58.1,89.8,58.1,90.2 M150.1,89.7c0.3,0.1,0.7,0.1,1,0c0.3-0.1,0-0.1-0.5-0.1C150,89.6,149.8,89.7,150.1,89.7 M135,91.4
		c0,0.8,0,1.1,0.1,0.7c0-0.4,0-1.1,0-1.5C135,90.2,135,90.6,135,91.4 M115.3,93.9c0.5,0,1.3,0,1.7,0s0-0.1-0.9-0.1
		C115.2,93.8,114.8,93.8,115.3,93.9 M139.7,95.9c0,0.7,0.1,1.1,0.3,1.3c0.3,0.3,0.3,0.3,0.1,0c-0.1-0.2-0.3-0.8-0.3-1.3l-0.1-1
		L139.7,95.9 M67.6,98.4c0.2,0.1,0.5,0.1,0.8,0c0.2-0.1,0-0.1-0.4-0.1S67.4,98.3,67.6,98.4 M215.8,100.3c1,0,2.8,0,3.9,0
		c1.1,0,0.3-0.1-1.9-0.1C215.7,100.3,214.8,100.3,215.8,100.3 M2.3,102.6c0,0,0.3,0.4,0.7,0.7l0.7,0.6l-0.6-0.7
		C2.5,102.6,2.3,102.4,2.3,102.6 M198.4,102.7c0.3,0.1,0.7,0.1,1,0c0.3-0.1,0-0.1-0.5-0.1C198.3,102.6,198.1,102.6,198.4,102.7
		 M206.1,103.1c0.3,0.1,0.7,0.1,1,0c0.3-0.1,0-0.1-0.5-0.1C206,103,205.8,103.1,206.1,103.1 M213.8,103.6c0.3,0.1,0.7,0.1,1,0
		c0.3-0.1,0-0.1-0.5-0.1S213.5,103.5,213.8,103.6 M216.5,105.1c0,0.4,0,0.6,0.1,0.4c0.1-0.2,0.1-0.5,0-0.8
		C216.5,104.6,216.5,104.7,216.5,105.1 M35.2,110.1c0,1,0,1.4,0.1,0.9c0-0.5,0-1.3,0-1.8C35.2,108.7,35.2,109.1,35.2,110.1
		 M170.6,110.9c0,0.6,0,0.8,0.1,0.5c0-0.3,0-0.8,0-1.1C170.6,110,170.6,110.3,170.6,110.9 M35.2,114.5c0,1,0,1.3,0.1,0.8
		c0-0.5,0-1.3,0-1.7C35.2,113.2,35.2,113.6,35.2,114.5 M155.2,113.3c0.3,0.1,0.7,0.1,1,0c0.3-0.1,0-0.1-0.5-0.1
		C155.2,113.2,155,113.2,155.2,113.3 M169.7,116.6c0,0.7,0,0.9,0.1,0.6c0-0.3,0-0.9,0-1.2C169.8,115.7,169.7,115.9,169.7,116.6
		 M191.8,116.4c0,0.4,0,0.6,0.1,0.4c0.1-0.2,0.1-0.5,0-0.8C191.9,115.8,191.8,116,191.8,116.4 M0,118.1c0,0.5,0,0.8,0.1,0.5
		c0.1-0.3,0.1-0.7,0-1S0,117.6,0,118.1 M151.9,118.5c0.8,0,2.1,0,2.9,0c0.8,0,0.1-0.1-1.4-0.1C151.8,118.4,151.1,118.4,151.9,118.5
		 M224.9,119.4c0,0.4,0,0.6,0.1,0.4c0.1-0.2,0.1-0.5,0-0.8C224.9,118.8,224.9,119,224.9,119.4 M27.7,120.4c0.2,0.1,0.5,0.1,0.8,0
		c0.2-0.1,0-0.1-0.4-0.1S27.5,120.4,27.7,120.4 M67.8,127.2c0,0.4,0,0.6,0.1,0.4c0.1-0.2,0.1-0.5,0-0.8
		C67.8,126.6,67.8,126.8,67.8,127.2 M121.3,128.4c0.3,0.1,0.7,0,0.9,0c0.2-0.1,0-0.1-0.5-0.1C121.2,128.3,121.1,128.4,121.3,128.4
		 M26.4,131.3c0,0.4,0,0.6,0.1,0.4c0.1-0.2,0.1-0.5,0-0.8C26.4,130.7,26.4,130.9,26.4,131.3 M89,132.5c0.2,0.1,0.5,0.1,0.8,0
		c0.2-0.1,0-0.1-0.4-0.1S88.8,132.5,89,132.5 M214.6,143.8c0.3,0.4,0.7,0.7,0.7,0.7C215.4,144.5,215.1,144.1,214.6,143.8l-0.6-0.8
		L214.6,143.8 M70.2,147.4c0,0.6,0,0.8,0.1,0.5c0-0.3,0-0.8,0-1.1C70.2,146.5,70.2,146.8,70.2,147.4 M126.1,146.8c0.5,0,1.3,0,1.8,0
		c0.5,0,0.1-0.1-0.9-0.1C126,146.7,125.6,146.7,126.1,146.8 M208.3,146.8c0.3,0,0.8,0,1.1,0c0.3-0.1,0-0.1-0.6-0.1
		C208.2,146.7,208,146.7,208.3,146.8 M169.3,149.2c0,0.4,0,0.6,0.1,0.4c0.1-0.2,0.1-0.5,0-0.8C169.3,148.6,169.3,148.8,169.3,149.2
		 M10,149.8c0.5,0,1.3,0,1.8,0c0.5,0,0.1-0.1-0.9-0.1C9.9,149.7,9.5,149.8,10,149.8 M115.4,152.6c0.2,0.1,0.5,0.1,0.8,0
		c0.2-0.1,0-0.1-0.4-0.1C115.4,152.5,115.2,152.5,115.4,152.6 M141.8,153.2c0,0,0.3,0.4,0.7,0.7l0.7,0.6l-0.6-0.7
		C141.9,153.1,141.8,153,141.8,153.2 M208.7,153.7c0.4,0,1.1,0,1.5,0c0.4,0,0.1-0.1-0.7-0.1C208.6,153.6,208.3,153.6,208.7,153.7
		 M32.5,155c0.3,0.1,0.7,0,0.9,0c0.2-0.1,0-0.1-0.5-0.1C32.4,154.9,32.2,154.9,32.5,155 M28.2,155.2c0.3,0.1,0.7,0,0.9,0
		c0.2-0.1,0-0.1-0.5-0.1C28.1,155.1,27.9,155.1,28.2,155.2 M155.6,155.7c0,0.4,0,0.6,0.1,0.4c0.1-0.2,0.1-0.5,0-0.8
		C155.6,155.1,155.6,155.3,155.6,155.7 M23.1,155.4c0.3,0.1,0.7,0.1,1,0c0.3-0.1,0-0.1-0.5-0.1C23,155.3,22.8,155.4,23.1,155.4
		 M121.4,156.3c0.2,0.1,0.5,0.1,0.8,0c0.2-0.1,0-0.1-0.4-0.1C121.4,156.2,121.2,156.2,121.4,156.3 M121,158.2c0.2,0.1,0.5,0.1,0.8,0
		c0.2-0.1,0-0.1-0.4-0.1C121,158.1,120.8,158.2,121,158.2 M157,164.3l-0.7,0.8L157,164.3c0.8-0.6,1-0.8,0.8-0.8
		C157.8,163.5,157.4,163.8,157,164.3 M190.9,164.9c0.6,0.7,1.2,1.2,1.3,1.2c0.1,0-0.4-0.5-1.1-1.2c-0.6-0.7-1.2-1.2-1.3-1.2
		S190.3,164.2,190.9,164.9 M166.5,165.7l-0.8,0.9L166.5,165.7c0.6-0.4,1-0.8,1-0.9C167.5,164.7,167.3,164.8,166.5,165.7 M55.9,165.9
		c0.4,0.4,0.8,0.8,0.8,0.8c0.1,0-0.2-0.3-0.6-0.8c-0.4-0.4-0.8-0.8-0.8-0.8C55.3,165.2,55.5,165.5,55.9,165.9 M41.9,166
		c0.3,0.1,0.7,0,0.9,0c0.2-0.1,0-0.1-0.5-0.1C41.8,165.9,41.7,165.9,41.9,166 M133.5,166c0.3,0,0.8,0,1.1,0c0.3-0.1,0-0.1-0.6-0.1
		C133.4,165.9,133.1,165.9,133.5,166 M17.2,166.6c0.2,0.1,0.5,0.1,0.8,0c0.2-0.1,0-0.1-0.4-0.1S17,166.6,17.2,166.6 M14.4,167.1
		c0.2,0.1,0.5,0.1,0.8,0c0.2-0.1,0-0.1-0.4-0.1C14.3,167,14.2,167,14.4,167.1 M75.5,168.6c0,0.5,0,0.8,0.1,0.5c0.1-0.3,0.1-0.7,0-1
		C75.6,167.9,75.5,168.1,75.5,168.6 M130.3,168.6c0.3,0.1,0.7,0.1,1,0c0.3-0.1,0-0.1-0.5-0.1C130.3,168.5,130.1,168.5,130.3,168.6
		 M160.6,168.6c0.3,0.1,0.7,0,0.9,0c0.2-0.1,0-0.1-0.5-0.1C160.5,168.5,160.3,168.5,160.6,168.6 M179.3,170.5
		c0.6,0.7,1.2,1.2,1.3,1.2c0.1,0-0.4-0.5-1.1-1.2c-0.6-0.7-1.2-1.2-1.3-1.2S178.7,169.8,179.3,170.5 M60.2,170.3
		c0.4,0.4,0.8,0.8,0.8,0.8c0.1,0-0.2-0.3-0.6-0.8c-0.4-0.4-0.8-0.8-0.8-0.8C59.6,169.5,59.8,169.9,60.2,170.3 M176.1,176
		c0.5,0.6,1,1,1,1C177.3,177.1,177.1,176.9,176.1,176l-1-1L176.1,176 M182.7,183c0.5,0.6,1,1,1,1C183.9,184,183.8,183.8,182.7,183
		l-1-1L182.7,183 M169.7,183.1c0.2,0.1,0.5,0.1,0.8,0c0.2-0.1,0-0.1-0.4-0.1C169.7,183,169.5,183,169.7,183.1 M55.9,188.7l-1.2,1.2
		L55.9,188.7c1.2-1,1.4-1.2,1.2-1.2C57.1,187.4,56.6,188,55.9,188.7 M189.7,190.1c1.1,1.2,2.1,2.1,2.1,2
		C191.8,192.1,190.9,191.2,189.7,190.1l-2.1-2.1L189.7,190.1 M30.8,189.5c0.3,0.1,0.7,0,0.9,0c0.2-0.1,0-0.1-0.5-0.1
		C30.7,189.4,30.5,189.5,30.8,189.5 M110.3,191.3c0.6,0,1.4,0,1.9,0c0.5,0,0-0.1-1-0.1C110.1,191.2,109.7,191.2,110.3,191.3
		 M115,191.3c0.6,0,1.4,0,1.9,0c0.5,0,0-0.1-1-0.1C114.9,191.2,114.4,191.2,115,191.3 M184.5,194.1c0,0.4,0,0.6,0.1,0.4
		s0.1-0.5,0-0.8S184.5,193.7,184.5,194.1 M48.4,196.4c-0.9,0.9-1.6,1.6-1.5,1.6s0.8-0.7,1.7-1.6c0.9-0.9,1.6-1.6,1.5-1.6
		S49.3,195.5,48.4,196.4 M128.1,194.9c0.2,0.1,0.5,0.1,0.8,0c0.2-0.1,0-0.1-0.4-0.1C128.1,194.8,127.9,194.9,128.1,194.9 M121.9,198
		c0,0.4,0,0.6,0.1,0.4c0.1-0.2,0.1-0.5,0-0.8C121.9,197.4,121.9,197.6,121.9,198 M167.6,201.9c0,0.4,0,0.6,0.1,0.4
		c0.1-0.2,0.1-0.5,0-0.8C167.6,201.3,167.6,201.5,167.6,201.9 M180.3,202.6l-0.6,0.7L180.3,202.6c0.5-0.3,0.8-0.6,0.8-0.6
		C181,201.8,180.9,202,180.3,202.6 M164.1,209.5c0,0.4,0,0.6,0.1,0.4c0.1-0.2,0.1-0.5,0-0.8C164.2,208.9,164.1,209.1,164.1,209.5
		 M61.3,210.9l-0.7,0.8L61.3,210.9c0.8-0.6,1-0.8,0.8-0.8C62.1,210.1,61.7,210.5,61.3,210.9 M79,219.2c0,0.4,0,0.6,0.1,0.4
		c0.1-0.2,0.1-0.5,0-0.8C79,218.6,79,218.8,79,219.2 M91.7,218.7c0.3,0.1,0.7,0,0.9,0c0.2-0.1,0-0.1-0.5-0.1
		C91.6,218.6,91.5,218.6,91.7,218.7 M133.5,218.7c0.2,0.1,0.5,0.1,0.8,0c0.2-0.1,0-0.1-0.4-0.1S133.3,218.6,133.5,218.7
		 M128.3,218.9c0.3,0,0.8,0,1.1,0c0.3-0.1,0-0.1-0.6-0.1C128.2,218.8,128,218.9,128.3,218.9"/>
	<path id="path4" class="st4" d="M102.7,0.3c0.4,0,1,0,1.3,0c0.3,0,0-0.1-0.7-0.1C102.5,0.2,102.3,0.3,102.7,0.3 M122,0.3
		c1,0,2.6,0,3.5,0c1,0,0.2-0.1-1.8-0.1C121.8,0.2,121,0.3,122,0.3 M97.6,0.7c0.2,0.1,0.5,0.1,0.8,0c0.2-0.1,0-0.1-0.4-0.1
		C97.6,0.6,97.4,0.7,97.6,0.7 M123.3,3.5c0,0,0.3,0.1,0.6,0.2c0.3,0.1,0.6,0,0.5-0.1C124.4,3.4,123.3,3.3,123.3,3.5 M147.8,5.5
		c0.3,0,0.8,0,1.1,0c0.3-0.1,0-0.1-0.6-0.1C147.7,5.4,147.5,5.4,147.8,5.5 M126.4,13.7c0.2,0.1,0.5,0.1,0.8,0c0.2-0.1,0-0.1-0.4-0.1
		C126.3,13.6,126.2,13.6,126.4,13.7 M129.8,14.1c0.2,0.1,0.5,0.1,0.8,0c0.2-0.1,0-0.1-0.4-0.1C129.8,14,129.6,14.1,129.8,14.1
		 M103.2,16.1c0,0.9,0,1.3,0.1,0.8c0-0.4,0-1.2,0-1.6C103.3,14.9,103.2,15.3,103.2,16.1 M118.4,15.5c0,0.5,0,0.8,0.1,0.5
		c0.1-0.3,0.1-0.7,0-1C118.5,14.7,118.4,15,118.4,15.5 M56.2,20c0,0.4,0,0.6,0.1,0.4c0.1-0.2,0.1-0.5,0-0.8
		C56.3,19.4,56.2,19.6,56.2,20 M82.4,32.9c0.2,0.1,0.5,0.1,0.8,0c0.2-0.1,0-0.1-0.4-0.1C82.4,32.8,82.2,32.9,82.4,32.9 M113.2,33.6
		c0.3,0.1,0.7,0.1,1,0c0.3-0.1,0-0.1-0.5-0.1C113.1,33.5,112.9,33.5,113.2,33.6 M105.7,34c0.3,0.1,0.7,0.1,1,0
		c0.3-0.1,0-0.1-0.5-0.1C105.6,33.9,105.4,34,105.7,34 M120.7,34c0.3,0.1,0.7,0.1,1,0c0.3-0.1,0-0.1-0.5-0.1
		C120.6,33.9,120.4,34,120.7,34 M115.8,36c0.4,0,1,0,1.4,0c0.4,0,0.1-0.1-0.7-0.1C115.7,35.9,115.4,35.9,115.8,36 M30.5,37
		c0.2,0.1,0.5,0.1,0.8,0c0.2-0.1,0-0.1-0.4-0.1C30.4,36.9,30.3,37,30.5,37 M28,38.6l-0.7,0.8L28,38.6c0.8-0.6,1-0.8,0.8-0.8
		C28.8,37.7,28.4,38.1,28,38.6 M111.9,38.3c0.4,0,1.1,0,1.5,0c0.4,0,0.1-0.1-0.7-0.1C111.9,38.2,111.5,38.3,111.9,38.3 M40.2,46.3
		c0.3,0.1,0.7,0,0.9,0c0.2-0.1,0-0.1-0.5-0.1C40.1,46.2,40,46.3,40.2,46.3 M173.8,47c0,0.4-0.2,1-0.5,1.3l-0.5,0.6l0.6-0.6
		c0.5-0.5,0.6-0.7,0.5-1.3l-0.1-0.7L173.8,47 M184.1,47.3l-0.6,0.7L184.1,47.3c0.5-0.3,0.8-0.6,0.8-0.6
		C184.9,46.5,184.7,46.6,184.1,47.3 M170,50.2c0.3,0.1,0.7,0.1,1,0c0.3-0.1,0-0.1-0.5-0.1S169.8,50.2,170,50.2 M195.1,52.3l-0.6,0.7
		L195.1,52.3c0.5-0.3,0.8-0.6,0.8-0.6C195.8,51.5,195.7,51.6,195.1,52.3 M95.6,52c-0.1,0.1,0.2,0.1,0.5,0.1c0.3-0.1,0.6-0.1,0.6-0.2
		C96.7,51.7,95.7,51.8,95.6,52 M99.1,53.4c0,0,0.2,0.2,0.4,0.4c0.2,0.2,0.3,0.2,0.2,0c-0.1-0.1,0-0.3,0.1-0.4
		c0.1-0.1,0.1-0.1-0.2-0.1C99.3,53.3,99.1,53.3,99.1,53.4 M17.9,59.5c0.4,0,1,0,1.3,0c0.3,0,0-0.1-0.7-0.1
		C17.8,59.4,17.5,59.5,17.9,59.5 M133.1,62.1c0.4,0,1.1,0,1.5,0c0.4,0,0.1-0.1-0.7-0.1C133.1,62,132.8,62,133.1,62.1 M20,64.5
		c1.3,0,3.3,0,4.6,0c1.3,0,0.2-0.1-2.3-0.1C19.7,64.4,18.7,64.4,20,64.5 M214.5,70.3c0.6,0,1.3,0.2,1.4,0.3c0.1,0.2,0.2,0.2,0.1-0.1
		C215.9,70.3,215.5,70.2,214.5,70.3l-1.2-0.1L214.5,70.3 M113,70.7c0.3,0.1,0.7,0.1,1,0s0-0.1-0.5-0.1
		C112.9,70.6,112.7,70.7,113,70.7 M61.9,73.6c-0.1,0.1,0.2,0.1,0.6,0.1c0.4,0,0.7-0.1,0.7-0.2C63.2,73.3,62,73.4,61.9,73.6
		 M121.4,74c0.2,0.1,0.5,0.1,0.8,0c0.2-0.1,0-0.1-0.4-0.1C121.4,73.9,121.2,73.9,121.4,74 M208.6,75.3c0.2,0.1,0.5,0.1,0.8,0
		c0.2-0.1,0-0.1-0.4-0.1C208.5,75.2,208.4,75.2,208.6,75.3 M214.4,75.7c0.7,0,1.7,0,2.4,0c0.6,0,0.1-0.1-1.2-0.1
		C214.2,75.6,213.7,75.7,214.4,75.7 M35.2,77c0,0.5,0,0.6,0.1,0.4c0.1-0.3,0-0.7,0-0.9C35.2,76.3,35.2,76.5,35.2,77 M59.2,79.9
		c0,0.5,0,0.8,0.1,0.5c0.1-0.3,0.1-0.7,0-1C59.3,79.1,59.2,79.3,59.2,79.9 M87.6,85.4c0.4,0,1.1,0,1.5,0c0.4,0,0.1-0.1-0.7-0.1
		C87.6,85.3,87.3,85.4,87.6,85.4 M86.7,86.9c0.3,0,0.8,0,1.1,0c0.3-0.1,0-0.1-0.6-0.1C86.6,86.8,86.4,86.9,86.7,86.9 M80,89.3
		c0,0.7,0,1,0.1,0.6c0-0.4,0-1,0-1.3C80.1,88.2,80,88.6,80,89.3 M126.1,92.6c0.4,0,1.1,0,1.5,0c0.4,0,0.1-0.1-0.7-0.1
		C126,92.5,125.7,92.5,126.1,92.6 M110.4,93.4c0.3,0.1,0.7,0.1,1,0c0.3-0.1,0-0.1-0.5-0.1C110.3,93.3,110.1,93.4,110.4,93.4
		 M54.3,95.4c0,0.8,0,1.1,0.1,0.7c0-0.4,0-1,0-1.4C54.3,94.3,54.3,94.6,54.3,95.4 M67.5,98.2c0.3,0.1,0.7,0.1,1,0
		c0.3-0.1,0-0.1-0.5-0.1C67.4,98.1,67.2,98.1,67.5,98.2 M210.4,100.3c0.3,0.1,0.7,0,0.9,0c0.2-0.1,0-0.1-0.5-0.1
		C210.3,100.2,210.1,100.3,210.4,100.3 M217.4,100.5c0.9,0,2.4,0,3.3,0c0.9,0,0.2-0.1-1.7-0.1S216.4,100.5,217.4,100.5 M197.1,102.5
		c0.4,0,1.1,0,1.5,0c0.4,0,0.1-0.1-0.7-0.1C197.1,102.4,196.7,102.4,197.1,102.5 M1.3,102.7c0.2,0.1,0.5,0.1,0.8,0
		c0.2-0.1,0-0.1-0.4-0.1C1.2,102.6,1.1,102.6,1.3,102.7 M204.8,102.9c0.4,0,1.1,0,1.5,0c0.4,0,0.1-0.1-0.7-0.1
		C204.8,102.8,204.4,102.9,204.8,102.9 M212.5,103.4c0.4,0,1.1,0,1.5,0c0.4,0,0.1-0.1-0.7-0.1C212.5,103.3,212.1,103.3,212.5,103.4
		 M0.2,105.9c0,0.5,0,0.6,0.1,0.4c0.1-0.3,0-0.7,0-0.9C0.2,105.2,0.2,105.4,0.2,105.9 M35.4,107.9c0,0.5,0,0.8,0.1,0.5
		c0.1-0.3,0.1-0.7,0-1C35.4,107.2,35.4,107.4,35.4,107.9 M191.8,112.3c0,0.9,0,1.3,0.1,0.8c0-0.4,0-1.2,0-1.6
		C191.9,111,191.8,111.4,191.8,112.3 M154.8,113.5c0.3,0.1,0.7,0.1,1,0c0.3-0.1,0-0.1-0.5-0.1C154.8,113.4,154.5,113.5,154.8,113.5
		 M4.9,115.7c0.3,0,0.9,0,1.2,0c0.3,0,0.1-0.1-0.6-0.1C4.9,115.6,4.6,115.6,4.9,115.7 M7.9,115.7c0.3,0,0.9,0,1.2,0
		c0.3,0,0.1-0.1-0.6-0.1C7.9,115.6,7.6,115.6,7.9,115.7 M0.2,118.2c0,0.8,0,1.1,0.1,0.7c0-0.4,0-1.1,0-1.5
		C0.3,117,0.2,117.4,0.2,118.2 M151.9,118.7c0.8,0,2.1,0,2.8,0c0.7,0,0.1-0.1-1.5-0.1C151.7,118.6,151.1,118.7,151.9,118.7
		 M22.7,120.6c0.3,0,0.8,0,1.1,0c0.3-0.1,0-0.1-0.6-0.1C22.6,120.5,22.4,120.6,22.7,120.6 M18.6,121.1c0.3,0.1,0.7,0,0.9,0
		c0.2-0.1,0-0.1-0.5-0.1C18.5,121,18.3,121,18.6,121.1 M84.3,126.3c0,0.7,0,0.9,0.1,0.6c0-0.3,0-0.9,0-1.2
		C84.4,125.4,84.3,125.7,84.3,126.3 M86.7,127.8c0,0.5,0,0.8,0.1,0.5c0.1-0.3,0.1-0.7,0-1C86.7,127.1,86.7,127.3,86.7,127.8
		 M2.3,127.3c0.3,0.1,0.7,0,0.9,0c0.2-0.1,0-0.1-0.5-0.1C2.2,127.2,2,127.3,2.3,127.3 M5.6,130.1c0,1.2,0,1.6,0.1,1
		c0-0.6,0-1.6,0-2.2C5.6,128.4,5.6,128.9,5.6,130.1 M121.4,128.6c0.2,0.1,0.5,0.1,0.8,0c0.2-0.1,0-0.1-0.4-0.1
		C121.4,128.5,121.2,128.6,121.4,128.6 M95.4,132.1c0.3,0.1,0.7,0.1,1,0c0.3-0.1,0-0.1-0.5-0.1C95.3,132,95.1,132,95.4,132.1
		 M163.7,132.8c0,0.4,0,0.6,0.1,0.4c0.1-0.2,0.1-0.5,0-0.8C163.8,132.2,163.7,132.4,163.7,132.8 M5.6,134.7c0,0.5,0,0.8,0.1,0.5
		c0.1-0.3,0.1-0.7,0-1C5.6,134,5.6,134.2,5.6,134.7 M83.5,136.9c0,0.5,0,0.8,0.1,0.5c0.1-0.3,0.1-0.7,0-1
		C83.5,136.1,83.5,136.4,83.5,136.9 M155.1,144.1c0,0,0.3,0.4,0.7,0.7l0.7,0.6l-0.6-0.7C155.3,144.1,155.1,143.9,155.1,144.1
		 M125.2,146.6c-0.1,0.1,0.5,0.1,1.2,0.1c2.2-0.1,2.5-0.2,0.6-0.2C126.1,146.4,125.2,146.5,125.2,146.6 M21.5,150c0.3,0,0.9,0,1.2,0
		c0.3,0,0.1-0.1-0.6-0.1C21.4,149.9,21.1,150,21.5,150 M114.6,152.8c0.3,0,0.9,0,1.2,0c0.3,0,0.1-0.1-0.6-0.1
		C114.5,152.7,114.3,152.8,114.6,152.8 M155.4,153.6c0,0.6,0,0.8,0.1,0.5c0-0.3,0-0.8,0-1.1C155.4,152.8,155.4,153,155.4,153.6
		 M189.1,152.8c0.6,0,1.6,0,2.1,0c0.6,0,0-0.1-1.1-0.1C189,152.7,188.5,152.8,189.1,152.8 M208.5,153.5c0.6,0,1.6,0,2.1,0
		s0-0.1-1.1-0.1C208.3,153.4,207.8,153.4,208.5,153.5 M33.3,154.8c0.3,0,0.8,0,1.1,0c0.3-0.1,0-0.1-0.6-0.1
		C33.1,154.7,32.9,154.7,33.3,154.8 M23.9,155.2c0.5,0,1.3,0,1.8,0c0.5,0,0.1-0.1-0.9-0.1C23.8,155.1,23.4,155.2,23.9,155.2
		 M18,155.6c0.2,0.1,0.5,0.1,0.8,0c0.2-0.1,0-0.1-0.4-0.1S17.8,155.6,18,155.6 M120.6,156.1c0.3,0,0.8,0,1.1,0
		c0.3-0.1,0-0.1-0.6-0.1C120.5,156,120.3,156,120.6,156.1 M127.6,156.1c0.3,0.1,0.7,0,0.9,0c0.2-0.1,0-0.1-0.5-0.1
		C127.5,156,127.3,156,127.6,156.1 M105.6,156.7c0.2,0.1,0.5,0.1,0.8,0c0.2-0.1,0-0.1-0.4-0.1C105.5,156.6,105.4,156.6,105.6,156.7
		 M66.7,157.8l-0.7,0.8L66.7,157.8c0.8-0.6,1-0.8,0.8-0.8C67.4,157,67.1,157.3,66.7,157.8 M112.6,157.6c0.2,0.1,0.5,0.1,0.8,0
		c0.2-0.1,0-0.1-0.4-0.1C112.6,157.5,112.4,157.5,112.6,157.6 M116.8,158c0.3,0.1,0.7,0,0.9,0c0.2-0.1,0-0.1-0.5-0.1
		C116.7,157.9,116.6,157.9,116.8,158 M121.7,158.4c0.3,0,0.8,0,1.1,0c0.3-0.1,0-0.1-0.6-0.1C121.5,158.3,121.3,158.4,121.7,158.4
		 M43.8,163.2c0.3,0,0.9,0,1.2,0c0.3,0,0.1-0.1-0.6-0.1C43.7,163.1,43.4,163.1,43.8,163.2 M18.4,166c0,0.1-0.3,0.3-0.6,0.3
		c-0.5,0-0.5,0-0.1,0.1c0.5,0.1,1.1-0.2,0.8-0.5C18.5,165.8,18.4,165.9,18.4,166 M129.2,166c0.3,0,0.9,0,1.2,0
		c0.3,0,0.1-0.1-0.6-0.1C129.1,165.9,128.8,165.9,129.2,166 M77.9,167.7c0,0.5,0,0.6,0.1,0.4c0.1-0.3,0-0.7,0-0.9
		C77.9,167,77.9,167.2,77.9,167.7 M129.1,168.8c0.6,0,1.6,0,2.3,0c0.6,0,0.1-0.1-1.1-0.1C128.9,168.7,128.4,168.8,129.1,168.8
		 M159.3,168.8c0.4,0,1,0,1.4,0c0.4,0,0.1-0.1-0.7-0.1C159.2,168.7,158.9,168.8,159.3,168.8 M132.6,172.8c0,0.5,0,0.8,0.1,0.5
		c0.1-0.3,0.1-0.7,0-1C132.6,172,132.6,172.2,132.6,172.8 M86,175.1c0.3,0,0.9,0,1.2,0c0.3,0,0.1-0.1-0.6-0.1
		C86,175,85.7,175,86,175.1 M200.4,176.8c0.2,0.1,0.5,0.1,0.8,0c0.2-0.1,0-0.1-0.4-0.1C200.4,176.7,200.2,176.7,200.4,176.8
		 M84.5,177.4c0.3,0,0.8,0,1.1,0c0.3-0.1,0-0.1-0.6-0.1C84.4,177.4,84.2,177.4,84.5,177.4 M87,177.4c0.4,0,1,0,1.3,0
		c0.3,0,0-0.1-0.7-0.1C86.9,177.4,86.6,177.4,87,177.4 M149.4,178.7c0.3,0.1,0.7,0.1,1,0c0.3-0.1,0-0.1-0.5-0.1
		C149.4,178.6,149.2,178.7,149.4,178.7 M180,179.9c0,0,0.3,0.4,0.7,0.7l0.7,0.6l-0.6-0.7C180.1,179.9,180,179.8,180,179.9
		 M164,183.3c-0.1,0.1,0.3,0.1,0.7,0.1c0.5,0,0.8-0.1,0.8-0.2C165.6,183,164.1,183.1,164,183.3 M175,187.4c0.4,0,1,0,1.3,0
		c0.3,0,0-0.1-0.7-0.1C174.9,187.3,174.6,187.3,175,187.4 M104.1,190.6c0.2,0.1,0.5,0.1,0.8,0c0.2-0.1,0-0.1-0.4-0.1
		S103.9,190.6,104.1,190.6 M122.3,190.6c0.2,0.1,0.5,0.1,0.8,0c0.2-0.1,0-0.1-0.4-0.1C122.3,190.5,122.1,190.6,122.3,190.6
		 M109.3,191.1c0.6,0,1.6,0,2.1,0c0.6,0,0-0.1-1.1-0.1C109.2,191,108.7,191,109.3,191.1 M116.1,191.1c0.6,0,1.4,0,1.9,0
		c0.5,0,0-0.1-1-0.1C115.9,191,115.5,191,116.1,191.1 M52.8,192L52,193L52.8,192c0.9-0.7,1.1-0.9,0.9-0.9
		C53.7,191.1,53.3,191.5,52.8,192 M85.6,193c0.2,0.1,0.5,0.1,0.8,0c0.2-0.1,0-0.1-0.4-0.1C85.6,192.9,85.4,192.9,85.6,193
		 M96.7,195.2c0.3,0.1,0.7,0,0.9,0c0.2-0.1,0-0.1-0.5-0.1C96.6,195.1,96.4,195.1,96.7,195.2 M127.3,195.2c0.3,0.1,0.7,0.1,1,0
		c0.3-0.1,0-0.1-0.5-0.1C127.3,195.1,127.1,195.1,127.3,195.2 M100.4,195.6c0.2,0.1,0.5,0.1,0.8,0c0.2-0.1,0-0.1-0.4-0.1
		S100.2,195.5,100.4,195.6 M169.1,195.8c0.2,0.1,0.5,0.1,0.8,0c0.2-0.1,0-0.1-0.4-0.1C169,195.7,168.9,195.7,169.1,195.8 M88.8,198
		c0.2,0.1,0.5,0.1,0.8,0c0.2-0.1,0-0.1-0.4-0.1C88.8,197.9,88.6,197.9,88.8,198 M173.9,199.5c0.4,0,1,0,1.4,0c0.4,0,0.1-0.1-0.7-0.1
		C173.8,199.4,173.5,199.4,173.9,199.5 M133.2,210.5c0.2,0.1,0.5,0.1,0.8,0c0.2-0.1,0-0.1-0.4-0.1
		C133.2,210.4,133,210.4,133.2,210.5 M110.9,214.8c0.3,0,0.8,0,1.1,0c0.3-0.1,0-0.1-0.6-0.1C110.8,214.7,110.6,214.8,110.9,214.8
		 M92.3,218.9c0.3,0,0.9,0,1.2,0c0.3,0,0.1-0.1-0.6-0.1C92.2,218.8,91.9,218.9,92.3,218.9 M94.5,218.9c0.3,0.1,0.7,0,0.9,0
		c0.2-0.1,0-0.1-0.5-0.1C94.4,218.8,94.2,218.9,94.5,218.9 M132.3,218.9c0.4,0,1,0,1.3,0c0.3,0,0-0.1-0.7-0.1
		C132.2,218.8,131.9,218.9,132.3,218.9"/>
</g>
</svg>
